<svg xmlns="http://www.w3.org/2000/svg" viewBox="0 0 104.86 100"><title>let_19</title><path d="M0,50A48.79,48.79,0,0,1,31.21,3.83,56.65,56.65,0,0,1,52.37,0a56.8,56.8,0,0,1,21.1,3.83A49.94,49.94,0,0,1,90.1,14.44,48.58,48.58,0,0,1,101,30.33,49.48,49.48,0,0,1,104.86,50a50.77,50.77,0,0,1-3.2,18.21,45.85,45.85,0,0,1-9.23,14.94L108.5,100l-22.6,3.52-8.67-8.92a62.38,62.38,0,0,1-11.74,4A57.94,57.94,0,0,1,52.37,100a56.67,56.67,0,0,1-21.16-3.83A49,49,0,0,1,0,50Zm25.74,0A25.2,25.2,0,0,0,27.88,60.4,26.07,26.07,0,0,0,42.13,74.15,27.11,27.11,0,0,0,52.37,76.1a28.93,28.93,0,0,0,6.53-.75L44.83,60.53l23.23-2.89,6.53,6.91A24.29,24.29,0,0,0,79.11,50,25.25,25.25,0,0,0,77,39.56a25.94,25.94,0,0,0-5.84-8.29,27.62,27.62,0,0,0-29-5.46A26.06,26.06,0,0,0,27.88,39.56,25.2,25.2,0,0,0,25.74,50Z"/></svg>