<svg xmlns="http://www.w3.org/2000/svg" viewBox="0 0 69.97 100"><title>let_21</title><path d="M56.28,26.88a30.52,30.52,0,0,0-8-4.84,21.38,21.38,0,0,0-7.79-1.57,12.64,12.64,0,0,0-7.79,2.26,7,7,0,0,0-3,5.9,5.87,5.87,0,0,0,1.51,4.15,13.13,13.13,0,0,0,4,2.83,33.72,33.72,0,0,0,5.53,2.07q3.08.88,6.09,1.88,12.06,4,17.65,10.74T70,67.84A34.12,34.12,0,0,1,67.53,81a27.52,27.52,0,0,1-7.16,10.11,33,33,0,0,1-11.56,6.53A48.18,48.18,0,0,1,33.29,100,57.05,57.05,0,0,1,0,89.32L10.55,69.47a42.78,42.78,0,0,0,10.93,7.29,26.25,26.25,0,0,0,10.68,2.39q6,0,9-2.76a8.56,8.56,0,0,0,2.2-10,8,8,0,0,0-2.51-2.89,20.15,20.15,0,0,0-4.59-2.45q-2.83-1.13-6.85-2.51Q24.62,57,20,55.21a29.38,29.38,0,0,1-8.17-4.84,22.44,22.44,0,0,1-5.78-7.6,26.86,26.86,0,0,1-2.2-11.62A33.55,33.55,0,0,1,6.22,18.4a28.32,28.32,0,0,1,6.53-9.8,29.13,29.13,0,0,1,10.3-6.34A38.94,38.94,0,0,1,36.68,0a59.74,59.74,0,0,1,14.7,1.95,65,65,0,0,1,14.7,5.72Z"/></svg>