<svg xmlns="http://www.w3.org/2000/svg" viewBox="0 0 82.59 100"><title>let_29</title><path d="M15.68,100,43.3,68.26h-.52a19.48,19.48,0,0,1-5.94,2.65,21.81,21.81,0,0,1-4.13.45A31.35,31.35,0,0,1,9.3,61.23a34.61,34.61,0,0,1-6.77-11A37.13,37.13,0,0,1,.07,36.65,36.23,36.23,0,0,1,2.91,22.26,33.78,33.78,0,0,1,11.1,10.64a38.69,38.69,0,0,1,13-7.81A48.89,48.89,0,0,1,41.23,0,49.3,49.3,0,0,1,58.52,2.84a39.31,39.31,0,0,1,13,7.74A33.52,33.52,0,0,1,79.68,22a34.37,34.37,0,0,1,2.84,13.87,50.24,50.24,0,0,1-3.68,17.87,68.73,68.73,0,0,1-11.29,18.9L45,100ZM57.49,36.13a15.26,15.26,0,0,0-1.29-6.26,16.71,16.71,0,0,0-8.58-8.58,15.82,15.82,0,0,0-12.52,0,16.7,16.7,0,0,0-8.58,8.58,15.82,15.82,0,0,0,0,12.52A16.7,16.7,0,0,0,35.1,51a15.83,15.83,0,0,0,12.52,0,16.71,16.71,0,0,0,8.58-8.58A15.25,15.25,0,0,0,57.49,36.13Z" style="fill:#00ae54"/></svg>