<svg xmlns="http://www.w3.org/2000/svg" viewBox="0 0 72.49 100"><title>let_6</title><path d="M72.49,34.3Q63.94,23.87,51.38,23.87a25.84,25.84,0,0,0-10.24,2A24.53,24.53,0,0,0,27.7,39.57a27,27,0,0,0-1.95,10.3A27.33,27.33,0,0,0,27.7,60.3a25.13,25.13,0,0,0,13.5,13.82,25,25,0,0,0,10.05,2q11.81,0,21.23-10V95.23L70,96.11a73,73,0,0,1-10.55,3,51.12,51.12,0,0,1-9.67.94A49.45,49.45,0,0,1,15.14,85.87a51.84,51.84,0,0,1-11-16A48.66,48.66,0,0,1,0,49.75a48.41,48.41,0,0,1,4.08-20A50,50,0,0,1,49.87,0,52,52,0,0,1,61,1.19,67.66,67.66,0,0,1,72.49,4.9Z"/></svg>