<svg xmlns="http://www.w3.org/2000/svg" viewBox="0 0 76.26 100"><title>let_5</title><path d="M0,0H38.73q13.79,0,21,6.63t7.16,19.1q0,7.56-2.72,12.53a22.88,22.88,0,0,1-8.29,8.42,31.46,31.46,0,0,1,9.48,3.25,20.62,20.62,0,0,1,6.37,5.37,20.1,20.1,0,0,1,3.51,7.16A32.83,32.83,0,0,1,76.26,71a30,30,0,0,1-2.45,12.47,25.33,25.33,0,0,1-6.9,9.15A29.45,29.45,0,0,1,56.1,98.14,51.06,51.06,0,0,1,41.78,100H0ZM26,39.26h4.77q12.2,0,12.2-9.68t-12.2-9.68H26Zm0,40.58h5.7q9.81,0,14.06-2.52T50,69.23q0-5.57-4.24-8.09T31.7,58.62H26Z"/></svg>