<svg xmlns="http://www.w3.org/2000/svg" viewBox="0 0 99.25 102.89"><title>let_10</title><path d="M50.38,45.79H99.25a136.08,136.08,0,0,1-.63,13.69,48.64,48.64,0,0,1-2.51,11.43A45.6,45.6,0,0,1,88.94,84a41.86,41.86,0,0,1-10.62,9.55,49.86,49.86,0,0,1-13.38,5.84,57.47,57.47,0,0,1-15.33,2A53.83,53.83,0,0,1,29.46,97.8,45.46,45.46,0,0,1,13.82,87.56,46.35,46.35,0,0,1,3.64,71.73,55.15,55.15,0,0,1,0,51.32,55.67,55.67,0,0,1,3.58,31,44.52,44.52,0,0,1,13.76,15.26,46.27,46.27,0,0,1,29.65,5.09,56.4,56.4,0,0,1,50.38,1.45q14.82,0,26,6.41T94.1,27.7L70.73,37.37q-3.27-7.79-8.48-11.18A21.29,21.29,0,0,0,50.38,22.8a23.83,23.83,0,0,0-10,2.07,21.78,21.78,0,0,0-7.73,5.9,28.34,28.34,0,0,0-5,9.23,37.58,37.58,0,0,0-1.82,12.06,38.14,38.14,0,0,0,1.57,11.18A25.21,25.21,0,0,0,32,72.17,21.21,21.21,0,0,0,39.82,78a26.3,26.3,0,0,0,10.8,2.07,29.89,29.89,0,0,0,7-.82,18.55,18.55,0,0,0,6.09-2.64,15,15,0,0,0,4.46-4.71,18.89,18.89,0,0,0,2.39-7H50.38Z"/></svg>