<svg xmlns="http://www.w3.org/2000/svg" viewBox="0 0 75.13 100"><title>let_30</title><path d="M33.42,39.57a13.9,13.9,0,0,0,1.7.13h1.19a10.45,10.45,0,0,0,7.54-2.76,9.47,9.47,0,0,0,2.89-7.16A9.23,9.23,0,0,0,44,22.86a9.56,9.56,0,0,0-7-2.64,9.42,9.42,0,0,0-7.29,3A11.07,11.07,0,0,0,27,31H4.27A40.74,40.74,0,0,1,8,17.84,31.6,31.6,0,0,1,15.2,8.1a30.11,30.11,0,0,1,10.3-6A39.24,39.24,0,0,1,38.57,0,39.4,39.4,0,0,1,51.32,1.95a28.74,28.74,0,0,1,9.8,5.53,24.1,24.1,0,0,1,6.28,8.67,28.4,28.4,0,0,1,2.2,11.37q0,6.78-2.58,11.12a23.12,23.12,0,0,1-7.35,7.48A21,21,0,0,1,71,54.21q4.08,5.84,4.08,14.38A28.84,28.84,0,0,1,64.64,91.33a35.62,35.62,0,0,1-11.81,6.41,47.65,47.65,0,0,1-15,2.26,44.58,44.58,0,0,1-19.72-4.27A32.26,32.26,0,0,1,4,82.16a27.1,27.1,0,0,1-3.2-8.29A43.34,43.34,0,0,1,0,65.45H24.37q.25,6.66,3.89,10.11T38.06,79q6.53,0,9.55-3.52a12.85,12.85,0,0,0,3-8.67q0-6.15-3.64-9.3a12.85,12.85,0,0,0-8.67-3.14,14.55,14.55,0,0,0-2.39.19L33.42,55Z" style="fill:#4e5a8a"/></svg>