<svg xmlns="http://www.w3.org/2000/svg" viewBox="0 0 87.67 100"><title>let_7</title><path d="M0,0H38.46A45.39,45.39,0,0,1,57.63,4.11,52.25,52.25,0,0,1,73.28,15.05,50.82,50.82,0,0,1,83.82,31a48.33,48.33,0,0,1,3.85,19,48.74,48.74,0,0,1-3.78,18.9,50.63,50.63,0,0,1-10.48,16,51.62,51.62,0,0,1-15.65,11A45.67,45.67,0,0,1,38.46,100H0ZM26,78h6A32.28,32.28,0,0,0,44,75.86,25.78,25.78,0,0,0,53,70a25,25,0,0,0,5.57-8.82A31.58,31.58,0,0,0,60.48,50a30.78,30.78,0,0,0-2-11.14A25,25,0,0,0,43.9,24.14,32,32,0,0,0,32,22H26Z"/></svg>