<?xml version="1.0" encoding="utf-8"?>
<!-- Generator: Adobe Illustrator 21.0.0, SVG Export Plug-In . SVG Version: 6.00 Build 0)  -->
<svg version="1.1" id="Layer_1" xmlns="http://www.w3.org/2000/svg" xmlns:xlink="http://www.w3.org/1999/xlink" x="0px" y="0px"
	 viewBox="0 0 171.8 14.4" style="enable-background:new 0 0 171.8 14.4;" xml:space="preserve">
<style type="text/css">
	.st0{fill:#00AC56;}
	.st1{fill:#E3399F;}
	.st2{fill:#5666A3;}
	.st3{fill:#FF5840;}
	.st4{fill:#FFB100;}
	.st5{fill:#00AE54;}
	.st6{fill:#4E5A8A;}
</style>
<g>
	<path d="M2.5,1.6v5.6c0,0.8,0.1,1.4,0.4,1.7c0.4,0.5,0.9,0.8,1.6,0.8c0.7,0,1.3-0.3,1.6-0.8c0.3-0.4,0.4-0.9,0.4-1.7V1.6H8v6
		c0,1-0.3,1.8-0.9,2.4C6.4,10.6,5.5,11,4.5,11c-1,0-1.8-0.4-2.5-1.1C1.4,9.3,1.1,8.5,1.1,7.5v-6H2.5z"/>
	<path d="M17,2.1v1.7c-0.8-0.7-1.6-1-2.5-1c-1,0-1.8,0.3-2.4,1c-0.7,0.7-1,1.5-1,2.5c0,1,0.3,1.8,1,2.5c0.7,0.7,1.5,1,2.4,1
		c0.5,0,0.9-0.1,1.3-0.2c0.2-0.1,0.4-0.2,0.6-0.3C16.6,9,16.8,8.8,17,8.6v1.7c-0.8,0.5-1.6,0.7-2.5,0.7c-1.3,0-2.5-0.5-3.4-1.4
		c-0.9-0.9-1.4-2.1-1.4-3.4c0-1.2,0.4-2.2,1.2-3.2c1-1.1,2.2-1.7,3.7-1.7C15.5,1.4,16.3,1.6,17,2.1z"/>
	<path d="M20.2,1.6v7.9h2.7v1.3h-4.1V1.6H20.2z"/>
	<path d="M30.2,8.6h-4l-1,2.2h-1.5L28.3,1l4.4,9.8h-1.5L30.2,8.6z M29.6,7.3l-1.4-3.1l-1.4,3.1H29.6z"/>
	<path d="M42.9,2.9l-1.1,0.7c-0.2-0.4-0.4-0.6-0.6-0.7c-0.2-0.1-0.5-0.2-0.8-0.2c-0.4,0-0.7,0.1-1,0.3C39.1,3.2,39,3.5,39,3.8
		c0,0.5,0.3,0.8,1,1.1L41,5.3c0.8,0.3,1.3,0.7,1.6,1.1c0.3,0.4,0.5,1,0.5,1.6c0,0.9-0.3,1.6-0.9,2.1C41.7,10.7,41,11,40.1,11
		c-0.8,0-1.5-0.2-2-0.7c-0.5-0.5-0.8-1.1-1-2L38.6,8c0.1,0.5,0.2,0.9,0.3,1.1c0.3,0.4,0.7,0.6,1.3,0.6c0.4,0,0.8-0.1,1.1-0.4
		c0.3-0.3,0.4-0.7,0.4-1.1c0-0.2,0-0.3-0.1-0.5c0-0.1-0.1-0.3-0.2-0.4C41.3,7.1,41.2,7,41,6.9c-0.2-0.1-0.4-0.2-0.6-0.3l-0.9-0.4
		c-1.3-0.5-1.9-1.3-1.9-2.4c0-0.7,0.3-1.3,0.8-1.7c0.5-0.5,1.2-0.7,2-0.7C41.4,1.4,42.3,1.9,42.9,2.9z"/>
	<path d="M45.9,5v3.4c0,1,0.4,1.5,1.1,1.5c0.8,0,1.1-0.5,1.1-1.5V5h1.3v3.4c0,0.5-0.1,0.9-0.2,1.2c-0.1,0.3-0.3,0.6-0.6,0.8
		c-0.5,0.4-1,0.6-1.7,0.6c-0.7,0-1.3-0.2-1.7-0.6c-0.3-0.2-0.5-0.5-0.6-0.8c-0.1-0.3-0.2-0.7-0.2-1.2V5H45.9z"/>
	<path d="M51.2,5h1.3v0.5c0.3-0.3,0.5-0.5,0.7-0.6c0.2-0.1,0.4-0.2,0.7-0.2c0.7,0,1.2,0.3,1.6,0.9c0.4-0.6,1-0.9,1.7-0.9
		c1.3,0,2,0.8,2,2.4v3.6h-1.4V7.6c0-0.6-0.1-1-0.2-1.2C57.6,6.1,57.3,6,57,6c-0.4,0-0.6,0.1-0.8,0.4c-0.2,0.3-0.3,0.7-0.3,1.3v3
		h-1.4V7.6c0-1-0.3-1.6-0.9-1.6c-0.4,0-0.7,0.1-0.8,0.4c-0.2,0.3-0.3,0.7-0.3,1.3v3h-1.3V5z"/>
	<path d="M61,5h1.3v0.5C62.6,5.2,62.8,5.1,63,5c0.2-0.1,0.4-0.2,0.7-0.2c0.7,0,1.2,0.3,1.6,0.9c0.4-0.6,1-0.9,1.7-0.9
		c1.3,0,2,0.8,2,2.4v3.6h-1.4V7.6c0-0.6-0.1-1-0.2-1.2C67.3,6.1,67,6,66.7,6c-0.4,0-0.6,0.1-0.8,0.4c-0.2,0.3-0.3,0.7-0.3,1.3v3
		h-1.4V7.6c0-1-0.3-1.6-0.9-1.6c-0.4,0-0.7,0.1-0.8,0.4c-0.2,0.3-0.3,0.7-0.3,1.3v3H61V5z"/>
	<path d="M76,8.2h-4.2c0,0.5,0.2,0.9,0.5,1.1c0.3,0.3,0.6,0.4,1.1,0.4c0.3,0,0.6-0.1,0.8-0.2c0.2-0.2,0.5-0.5,0.7-0.9l1.1,0.6
		c-0.2,0.3-0.4,0.6-0.6,0.8c-0.2,0.2-0.4,0.4-0.6,0.5c-0.2,0.1-0.5,0.2-0.7,0.3C73.9,11,73.6,11,73.3,11c-0.9,0-1.6-0.3-2.1-0.8
		c-0.5-0.6-0.8-1.3-0.8-2.2c0-0.9,0.3-1.7,0.8-2.2c0.5-0.6,1.2-0.8,2.1-0.8c0.9,0,1.5,0.3,2,0.8C75.8,6.2,76,6.9,76,7.9L76,8.2z
		 M74.6,7.1C74.4,6.4,74,6,73.3,6c-0.2,0-0.3,0-0.5,0.1c-0.1,0-0.3,0.1-0.4,0.2s-0.2,0.2-0.3,0.3s-0.1,0.3-0.2,0.5H74.6z"/>
	<path d="M77.5,5h1.3v0.5c0.2-0.3,0.5-0.4,0.7-0.5c0.2-0.1,0.4-0.2,0.7-0.2c0.4,0,0.7,0.1,1.1,0.3l-0.6,1.2
		c-0.3-0.2-0.5-0.3-0.7-0.3c-0.7,0-1.1,0.6-1.1,1.7v3h-1.3V5z"/>
	<path d="M91.4,2.9l-1.1,0.7C90,3.2,89.8,3,89.6,2.9c-0.2-0.1-0.5-0.2-0.8-0.2c-0.4,0-0.7,0.1-1,0.3c-0.3,0.2-0.4,0.5-0.4,0.8
		c0,0.5,0.3,0.8,1,1.1l0.9,0.4c0.8,0.3,1.3,0.7,1.6,1.1c0.3,0.4,0.5,1,0.5,1.6c0,0.9-0.3,1.6-0.9,2.1c-0.6,0.6-1.3,0.8-2.1,0.8
		c-0.8,0-1.5-0.2-2-0.7c-0.5-0.5-0.8-1.1-1-2L87.1,8c0.1,0.5,0.2,0.9,0.3,1.1c0.3,0.4,0.7,0.6,1.3,0.6c0.4,0,0.8-0.1,1.1-0.4
		c0.3-0.3,0.4-0.7,0.4-1.1c0-0.2,0-0.3-0.1-0.5c0-0.1-0.1-0.3-0.2-0.4c-0.1-0.1-0.2-0.2-0.4-0.4c-0.2-0.1-0.4-0.2-0.6-0.3L88,6.2
		c-1.3-0.5-1.9-1.3-1.9-2.4c0-0.7,0.3-1.3,0.8-1.7c0.5-0.5,1.2-0.7,2-0.7C89.9,1.4,90.8,1.9,91.4,2.9z"/>
	<path d="M98.3,8.2h-4.2c0,0.5,0.2,0.9,0.5,1.1c0.3,0.3,0.6,0.4,1.1,0.4c0.3,0,0.6-0.1,0.8-0.2c0.2-0.2,0.5-0.5,0.7-0.9l1.1,0.6
		c-0.2,0.3-0.4,0.6-0.6,0.8c-0.2,0.2-0.4,0.4-0.6,0.5c-0.2,0.1-0.5,0.2-0.7,0.3C96.2,11,95.9,11,95.6,11c-0.9,0-1.6-0.3-2.1-0.8
		c-0.5-0.6-0.8-1.3-0.8-2.2c0-0.9,0.3-1.7,0.8-2.2c0.5-0.6,1.2-0.8,2.1-0.8c0.9,0,1.5,0.3,2,0.8c0.5,0.5,0.7,1.3,0.7,2.3L98.3,8.2z
		 M97,7.1C96.8,6.4,96.3,6,95.6,6c-0.2,0-0.3,0-0.5,0.1c-0.1,0-0.3,0.1-0.4,0.2s-0.2,0.2-0.3,0.3s-0.1,0.3-0.2,0.5H97z"/>
	<path d="M103.2,6l-1.1,0.6c-0.2-0.4-0.4-0.5-0.7-0.5c-0.1,0-0.2,0-0.3,0.1S101,6.3,101,6.5c0,0.2,0.3,0.4,0.8,0.7
		c0.7,0.3,1.2,0.6,1.4,0.9c0.2,0.3,0.4,0.6,0.4,1c0,0.6-0.2,1-0.6,1.4c-0.4,0.4-0.9,0.5-1.5,0.5c-1,0-1.7-0.5-2.1-1.4l1.2-0.5
		c0.2,0.3,0.3,0.5,0.4,0.5c0.2,0.2,0.4,0.2,0.6,0.2c0.5,0,0.7-0.2,0.7-0.6c0-0.2-0.2-0.5-0.5-0.7c-0.1-0.1-0.3-0.1-0.4-0.2
		c-0.1-0.1-0.3-0.1-0.4-0.2c-0.4-0.2-0.7-0.4-0.8-0.6c-0.2-0.2-0.3-0.6-0.3-0.9c0-0.5,0.2-0.9,0.5-1.3c0.4-0.3,0.8-0.5,1.3-0.5
		C102.3,4.8,102.9,5.2,103.2,6z"/>
	<path d="M108.2,6l-1.1,0.6c-0.2-0.4-0.4-0.5-0.7-0.5c-0.1,0-0.2,0-0.3,0.1S106,6.3,106,6.5c0,0.2,0.3,0.4,0.8,0.7
		c0.7,0.3,1.2,0.6,1.4,0.9c0.2,0.3,0.4,0.6,0.4,1c0,0.6-0.2,1-0.6,1.4c-0.4,0.4-0.9,0.5-1.5,0.5c-1,0-1.7-0.5-2.1-1.4l1.2-0.5
		c0.2,0.3,0.3,0.5,0.4,0.5c0.2,0.2,0.4,0.2,0.6,0.2c0.5,0,0.7-0.2,0.7-0.6c0-0.2-0.2-0.5-0.5-0.7c-0.1-0.1-0.3-0.1-0.4-0.2
		c-0.1-0.1-0.3-0.1-0.4-0.2c-0.4-0.2-0.7-0.4-0.8-0.6c-0.2-0.2-0.3-0.6-0.3-0.9c0-0.5,0.2-0.9,0.5-1.3c0.4-0.3,0.8-0.5,1.3-0.5
		C107.3,4.8,107.8,5.2,108.2,6z"/>
	<path d="M109.6,2.5c0-0.2,0.1-0.4,0.3-0.6c0.2-0.2,0.4-0.3,0.6-0.3c0.2,0,0.5,0.1,0.6,0.3c0.2,0.2,0.3,0.4,0.3,0.6
		c0,0.2-0.1,0.5-0.3,0.6c-0.2,0.2-0.4,0.3-0.6,0.3c-0.2,0-0.5-0.1-0.6-0.3C109.7,3,109.6,2.8,109.6,2.5z M111.1,5v5.8h-1.3V5H111.1z
		"/>
	<path d="M112.6,7.9c0-0.8,0.3-1.6,0.9-2.2c0.6-0.6,1.3-0.9,2.2-0.9c0.9,0,1.6,0.3,2.2,0.9c0.6,0.6,0.9,1.3,0.9,2.2
		c0,0.9-0.3,1.6-0.9,2.2c-0.6,0.6-1.4,0.9-2.2,0.9c-0.9,0-1.6-0.3-2.2-0.9C112.9,9.5,112.6,8.8,112.6,7.9z M114,7.9
		c0,0.6,0.2,1,0.5,1.4c0.3,0.3,0.7,0.5,1.3,0.5c0.5,0,0.9-0.2,1.3-0.5c0.3-0.3,0.5-0.8,0.5-1.4c0-0.6-0.2-1-0.5-1.4
		c-0.3-0.3-0.7-0.5-1.3-0.5c-0.5,0-0.9,0.2-1.3,0.5C114.1,6.9,114,7.3,114,7.9z"/>
	<path d="M120.2,5h1.4v0.5c0.5-0.5,1-0.7,1.6-0.7c0.7,0,1.2,0.2,1.6,0.6c0.3,0.4,0.5,1,0.5,1.8v3.6h-1.4V7.6c0-0.6-0.1-1-0.2-1.2
		c-0.2-0.2-0.4-0.3-0.9-0.3c-0.4,0-0.8,0.1-1,0.4c-0.2,0.3-0.3,0.8-0.3,1.5v2.8h-1.4V5z"/>
	<path d="M130.4,6l-1.1,0.6c-0.2-0.4-0.4-0.5-0.7-0.5c-0.1,0-0.2,0-0.3,0.1s-0.1,0.2-0.1,0.3c0,0.2,0.3,0.4,0.8,0.7
		c0.7,0.3,1.2,0.6,1.4,0.9c0.2,0.3,0.4,0.6,0.4,1c0,0.6-0.2,1-0.6,1.4c-0.4,0.4-0.9,0.5-1.5,0.5c-1,0-1.7-0.5-2.1-1.4l1.2-0.5
		c0.2,0.3,0.3,0.5,0.4,0.5c0.2,0.2,0.4,0.2,0.6,0.2c0.5,0,0.7-0.2,0.7-0.6c0-0.2-0.2-0.5-0.5-0.7c-0.1-0.1-0.3-0.1-0.4-0.2
		c-0.1-0.1-0.3-0.1-0.4-0.2c-0.4-0.2-0.7-0.4-0.8-0.6c-0.2-0.2-0.3-0.6-0.3-0.9c0-0.5,0.2-0.9,0.5-1.3c0.4-0.3,0.8-0.5,1.3-0.5
		C129.4,4.8,130,5.2,130.4,6z"/>
	<path d="M145.8,2.9h-1.6l0.8-1.3h2.2v9.3h-1.4V2.9z"/>
	<path d="M151.8,11.1l-1-0.8l2.2-3c-0.1,0-0.2,0-0.3,0c-0.1,0-0.2,0-0.2,0c-0.7,0-1.4-0.3-1.9-0.9c-0.5-0.6-0.8-1.3-0.8-2.1
		c0-0.9,0.3-1.6,0.9-2.2c0.6-0.6,1.3-0.9,2.2-0.9c0.8,0,1.6,0.3,2.2,0.9c0.6,0.6,0.9,1.3,0.9,2.1c0,0.7-0.3,1.5-0.9,2.3L151.8,11.1z
		 M151.1,4.4c0,0.5,0.2,0.9,0.5,1.3c0.3,0.3,0.8,0.5,1.2,0.5s0.9-0.2,1.2-0.5c0.3-0.3,0.5-0.8,0.5-1.2s-0.2-0.9-0.5-1.2
		c-0.3-0.3-0.8-0.5-1.2-0.5c-0.5,0-0.9,0.2-1.2,0.5C151.3,3.5,151.1,3.9,151.1,4.4z"/>
	<path d="M159.4,11.1l-1-0.8l2.2-3c-0.1,0-0.2,0-0.3,0c-0.1,0-0.2,0-0.2,0c-0.7,0-1.4-0.3-1.9-0.9c-0.5-0.6-0.8-1.3-0.8-2.1
		c0-0.9,0.3-1.6,0.9-2.2c0.6-0.6,1.3-0.9,2.2-0.9c0.8,0,1.6,0.3,2.2,0.9c0.6,0.6,0.9,1.3,0.9,2.1c0,0.7-0.3,1.5-0.9,2.3L159.4,11.1z
		 M158.7,4.4c0,0.5,0.2,0.9,0.5,1.3c0.3,0.3,0.8,0.5,1.2,0.5s0.9-0.2,1.2-0.5c0.3-0.3,0.5-0.8,0.5-1.2s-0.2-0.9-0.5-1.2
		c-0.3-0.3-0.8-0.5-1.2-0.5c-0.5,0-0.9,0.2-1.2,0.5C158.9,3.5,158.7,3.9,158.7,4.4z"/>
	<path d="M167.4,6.5V5.3c0.6,0,1-0.1,1.2-0.2c0.4-0.2,0.5-0.6,0.5-1.1c0-0.4-0.1-0.7-0.4-1c-0.3-0.3-0.6-0.4-1-0.4
		c-0.4,0-0.7,0.1-0.9,0.3c-0.2,0.2-0.4,0.5-0.5,1H165c0.1-0.9,0.4-1.5,0.9-1.9c0.4-0.4,1.1-0.6,1.9-0.6c0.8,0,1.5,0.2,2,0.7
		c0.5,0.5,0.8,1.1,0.8,1.8c0,0.8-0.3,1.5-1,2c0.8,0.5,1.2,1.2,1.2,2.2c0,0.8-0.3,1.5-0.8,2c-0.6,0.5-1.3,0.8-2.2,0.8
		c-1.1,0-1.9-0.4-2.5-1.2c-0.2-0.3-0.4-0.8-0.4-1.4h1.3c0.1,0.4,0.2,0.8,0.5,1s0.6,0.4,1.1,0.4c0.5,0,0.8-0.1,1.1-0.4
		c0.3-0.3,0.4-0.7,0.4-1.2c0-0.6-0.2-1.1-0.7-1.3C168.3,6.6,167.9,6.5,167.4,6.5z"/>
</g>
</svg>
