<svg id="Layer_1" data-name="Layer 1" xmlns="http://www.w3.org/2000/svg" viewBox="0 0 102.11 102.89"><title>paul rand</title><path d="M51.83,45.63h50.28a140,140,0,0,1-.65,14.09,50,50,0,0,1-2.58,11.76A46.91,46.91,0,0,1,91.51,85a43.07,43.07,0,0,1-10.92,9.82,51.29,51.29,0,0,1-13.76,6,59.13,59.13,0,0,1-15.77,2.07,55.39,55.39,0,0,1-20.75-3.75A46.77,46.77,0,0,1,14.22,88.6,47.68,47.68,0,0,1,3.75,72.32,56.74,56.74,0,0,1,0,51.31,57.27,57.27,0,0,1,3.68,30.44,45.81,45.81,0,0,1,14.15,14.22,47.61,47.61,0,0,1,30.5,3.75,58,58,0,0,1,51.83,0Q67.08,0,78.59,6.59T96.81,27l-24,10Q69.41,29,64,25.46A21.91,21.91,0,0,0,51.83,22a24.52,24.52,0,0,0-10.34,2.13,22.41,22.41,0,0,0-7.95,6.08,29.16,29.16,0,0,0-5.17,9.5A38.67,38.67,0,0,0,26.5,52.09a39.24,39.24,0,0,0,1.62,11.5A25.94,25.94,0,0,0,33,72.77a21.82,21.82,0,0,0,8,6,27.06,27.06,0,0,0,11.12,2.13,30.75,30.75,0,0,0,7.24-.84,19.08,19.08,0,0,0,6.27-2.71,15.44,15.44,0,0,0,4.59-4.85,19.43,19.43,0,0,0,2.46-7.24H51.83Z"/></svg>