<svg id="Layer_1" data-name="Layer 1" xmlns="http://www.w3.org/2000/svg" viewBox="0 0 74.58 102.89"><defs><style>.cls-1{fill:#e3399f;}</style></defs><title>paul rand</title><path class="cls-1" d="M74.58,35.29Q65.79,24.56,52.86,24.56a26.59,26.59,0,0,0-10.53,2.07A25.24,25.24,0,0,0,28.5,40.71a27.77,27.77,0,0,0-2,10.6A28.11,28.11,0,0,0,28.5,62,25.86,25.86,0,0,0,42.4,76.26a25.76,25.76,0,0,0,10.34,2.07q12.15,0,21.84-10.34V98L72,98.88a75.06,75.06,0,0,1-10.86,3,52.6,52.6,0,0,1-10,1A50.88,50.88,0,0,1,15.58,88.34,53.33,53.33,0,0,1,4.27,71.93,50.06,50.06,0,0,1,0,51.18,49.81,49.81,0,0,1,4.2,30.57,51.48,51.48,0,0,1,51.31,0,53.53,53.53,0,0,1,62.75,1.23,69.61,69.61,0,0,1,74.58,5Z"/></svg>