<svg id="Layer_1" data-name="Layer 1" xmlns="http://www.w3.org/2000/svg" viewBox="0 0 74.32 97.46"><title>paul rand</title><path d="M0,0H37.74Q51.18,0,58.16,6.46t7,18.61a25.28,25.28,0,0,1-2.65,12.21,22.29,22.29,0,0,1-8.08,8.21,30.66,30.66,0,0,1,9.24,3.17,20.09,20.09,0,0,1,6.2,5.24,19.59,19.59,0,0,1,3.42,7,32,32,0,0,1,1,8.27A29.27,29.27,0,0,1,71.93,81.3a24.68,24.68,0,0,1-6.72,8.92,28.7,28.7,0,0,1-10.53,5.43,49.77,49.77,0,0,1-14,1.81H0ZM25.33,38.26H30q11.89,0,11.89-9.44T30,19.39H25.33Zm0,39.55h5.56q9.56,0,13.7-2.46t4.14-7.88q0-5.43-4.14-7.88t-13.7-2.46H25.33Z"/></svg>