<svg id="Layer_1" data-name="Layer 1" xmlns="http://www.w3.org/2000/svg" viewBox="0 0 85.44 97.46"><title>paul rand</title><path d="M0,0H37.48A44.23,44.23,0,0,1,56.16,4,50.92,50.92,0,0,1,71.41,14.67,49.53,49.53,0,0,1,81.69,30.18a47.1,47.1,0,0,1,3.75,18.55,47.5,47.5,0,0,1-3.68,18.42A49.34,49.34,0,0,1,71.54,82.72,50.31,50.31,0,0,1,56.29,93.45a44.51,44.51,0,0,1-18.81,4H0ZM25.33,76h5.82a31.46,31.46,0,0,0,11.76-2.07,25.13,25.13,0,0,0,8.72-5.69,24.35,24.35,0,0,0,5.43-8.6,30.78,30.78,0,0,0,1.87-10.92A30,30,0,0,0,57,37.87,24.34,24.34,0,0,0,42.78,23.52a31.13,31.13,0,0,0-11.63-2.07H25.33Z"/></svg>