<svg id="Layer_1" data-name="Layer 1" xmlns="http://www.w3.org/2000/svg" viewBox="0 0 107.93 102.89"><defs><style>.cls-1{fill:#ffb100;}</style></defs><title>paul rand</title><path class="cls-1" d="M0,51.44A50.22,50.22,0,0,1,32.12,3.94,58.31,58.31,0,0,1,53.9,0,58.46,58.46,0,0,1,75.61,3.94,51.4,51.4,0,0,1,92.74,14.86a50,50,0,0,1,11.18,16.35,50.93,50.93,0,0,1,4,20.23,50.93,50.93,0,0,1-4,20.23A50,50,0,0,1,92.74,88,51.37,51.37,0,0,1,75.61,98.94a58.48,58.48,0,0,1-21.71,3.94,58.32,58.32,0,0,1-21.78-3.94A50.41,50.41,0,0,1,0,51.44Z"/></svg>