<svg id="Layer_1" data-name="Layer 1" xmlns="http://www.w3.org/2000/svg" viewBox="0 0 77.29 102.88"><defs><style>.cls-1{fill:#4e5a8a;}</style></defs><title>paul rand</title><path class="cls-1" d="M34.38,40.71a14.3,14.3,0,0,0,1.75.13h1.23A10.76,10.76,0,0,0,45.11,38a9.74,9.74,0,0,0,3-7.37,9.5,9.5,0,0,0-2.78-7.11,9.84,9.84,0,0,0-7.17-2.71,9.69,9.69,0,0,0-7.5,3.1,11.39,11.39,0,0,0-2.84,8H4.39A41.91,41.91,0,0,1,8.21,18.35a32.51,32.51,0,0,1,7.43-10,31,31,0,0,1,10.6-6.2A40.37,40.37,0,0,1,39.68,0,40.54,40.54,0,0,1,52.8,2,29.57,29.57,0,0,1,62.88,7.69a24.79,24.79,0,0,1,6.46,8.92,29.22,29.22,0,0,1,2.26,11.7q0,7-2.65,11.44a23.79,23.79,0,0,1-7.56,7.69,21.61,21.61,0,0,1,11.7,8.34q4.2,6,4.2,14.8A29.68,29.68,0,0,1,66.5,94a36.65,36.65,0,0,1-12.15,6.59,49,49,0,0,1-15.45,2.33,45.86,45.86,0,0,1-20.29-4.39,33.19,33.19,0,0,1-14.48-14A27.88,27.88,0,0,1,.84,76,44.59,44.59,0,0,1,0,67.34H25.08q.26,6.85,4,10.41T39.16,81.3q6.72,0,9.82-3.62a13.22,13.22,0,0,0,3.1-8.92q0-6.33-3.75-9.56A13.22,13.22,0,0,0,39.42,56a15,15,0,0,0-2.46.19l-2.58.45Z"/></svg>