<svg id="Layer_1" data-name="Layer 1" xmlns="http://www.w3.org/2000/svg" viewBox="0 0 111.67 106.5"><title>paul rand</title><path d="M0,51.44A50.22,50.22,0,0,1,32.12,3.94,58.31,58.31,0,0,1,53.9,0,58.46,58.46,0,0,1,75.61,3.94,51.4,51.4,0,0,1,92.74,14.86a50,50,0,0,1,11.18,16.35,50.93,50.93,0,0,1,4,20.23,52.25,52.25,0,0,1-3.3,18.74,47.19,47.19,0,0,1-9.5,15.38l16.54,17.32L88.41,106.5l-8.92-9.18a64.21,64.21,0,0,1-12.08,4.07,59.64,59.64,0,0,1-13.51,1.49,58.32,58.32,0,0,1-21.78-3.94A50.41,50.41,0,0,1,0,51.44Zm26.5,0a25.94,25.94,0,0,0,2.2,10.73A26.83,26.83,0,0,0,43.36,76.32a27.91,27.91,0,0,0,10.53,2,29.78,29.78,0,0,0,6.72-.78L46.14,62.3l23.91-3,6.72,7.11a25,25,0,0,0,4.65-15,26,26,0,0,0-2.2-10.73,26.7,26.7,0,0,0-6-8.53,28.43,28.43,0,0,0-29.86-5.62A26.83,26.83,0,0,0,28.69,40.71,25.94,25.94,0,0,0,26.5,51.44Z"/></svg>