<svg id="Layer_1" data-name="Layer 1" xmlns="http://www.w3.org/2000/svg" viewBox="0 0 71.99 102.89"><title>paul rand</title><path d="M57.91,27.66a31.4,31.4,0,0,0-8.27-5,22,22,0,0,0-8-1.62,13,13,0,0,0-8,2.33,7.25,7.25,0,0,0-3.1,6.08,6,6,0,0,0,1.55,4.27,13.51,13.51,0,0,0,4.07,2.91,34.7,34.7,0,0,0,5.69,2.13q3.17.91,6.27,1.94,12.41,4.14,18.16,11.05T72,69.8a35.11,35.11,0,0,1-2.52,13.57,28.32,28.32,0,0,1-7.37,10.4,34,34,0,0,1-11.89,6.72,49.57,49.57,0,0,1-16,2.39A58.7,58.7,0,0,1,0,91.9L10.86,71.48A44,44,0,0,0,22.1,79a27,27,0,0,0,11,2.46q6.2,0,9.24-2.84a8.81,8.81,0,0,0,2.26-10.28,8.27,8.27,0,0,0-2.58-3,20.73,20.73,0,0,0-4.72-2.52q-2.91-1.16-7-2.59-4.91-1.55-9.63-3.42a30.23,30.23,0,0,1-8.4-5A23.09,23.09,0,0,1,6.27,44,27.64,27.64,0,0,1,4,32.05,34.51,34.51,0,0,1,6.4,18.94,29.14,29.14,0,0,1,13.12,8.85a30,30,0,0,1,10.6-6.53A40.07,40.07,0,0,1,37.74,0,61.47,61.47,0,0,1,52.86,2,66.92,66.92,0,0,1,68,7.88Z"/></svg>