<svg id="Layer_1" data-name="Layer 1" xmlns="http://www.w3.org/2000/svg" viewBox="0 0 82.59 100.17"><defs><style>.cls-1{fill:#00ae54;}</style></defs><title>paul rand</title><path class="cls-1" d="M15.64,100.17,43.3,68.37h-.52A19.51,19.51,0,0,1,36.84,71a21.85,21.85,0,0,1-4.14.45A31.4,31.4,0,0,1,9.24,61.33,34.67,34.67,0,0,1,2.46,50.28,37.19,37.19,0,0,1,0,36.71,36.29,36.29,0,0,1,2.84,22.3a33.84,33.84,0,0,1,8.21-11.63A38.76,38.76,0,0,1,24,2.84,49,49,0,0,1,41.23,0,49.39,49.39,0,0,1,58.55,2.84a39.38,39.38,0,0,1,13,7.76A33.57,33.57,0,0,1,79.75,22a34.43,34.43,0,0,1,2.84,13.89,50.32,50.32,0,0,1-3.68,17.9A68.85,68.85,0,0,1,67.6,72.77L45,100.17Zm41.88-64a15.28,15.28,0,0,0-1.29-6.27,16.74,16.74,0,0,0-8.6-8.59,15.84,15.84,0,0,0-12.54,0,16.73,16.73,0,0,0-8.59,8.59,15.84,15.84,0,0,0,0,12.54,16.73,16.73,0,0,0,8.59,8.59,15.86,15.86,0,0,0,12.54,0,16.74,16.74,0,0,0,8.6-8.59A15.28,15.28,0,0,0,57.52,36.19Z"/></svg>