<?xml version="1.0" encoding="utf-8"?>
<!-- Generator: Adobe Illustrator 21.0.0, SVG Export Plug-In . SVG Version: 6.00 Build 0)  -->
<svg version="1.1" id="Layer_1" xmlns="http://www.w3.org/2000/svg" xmlns:xlink="http://www.w3.org/1999/xlink" x="0px" y="0px"
	 viewBox="0 0 292.3 14.4" style="enable-background:new 0 0 292.3 14.4;" xml:space="preserve">
<style type="text/css">
	.st0{enable-background:new    ;}
</style>
<title>paul rand</title>
<g class="st0">
	<path d="M2.5,1.6v5.6c0,0.8,0.1,1.4,0.4,1.7c0.4,0.5,0.9,0.8,1.6,0.8c0.7,0,1.3-0.3,1.6-0.8c0.3-0.4,0.4-0.9,0.4-1.7V1.6H8v6
		c0,1-0.3,1.8-0.9,2.4C6.4,10.6,5.5,11,4.5,11S2.7,10.6,2,9.9C1.4,9.3,1.1,8.5,1.1,7.5v-6H2.5z"/>
</g>
<g class="st0">
	<path d="M10,5h1.4v0.5c0.5-0.5,1-0.7,1.6-0.7c0.7,0,1.2,0.2,1.6,0.6c0.3,0.4,0.5,1,0.5,1.8v3.6h-1.4V7.6c0-0.6-0.1-1-0.2-1.2
		C13.3,6.1,13,6,12.6,6c-0.4,0-0.8,0.1-1,0.4c-0.2,0.3-0.3,0.8-0.3,1.5v2.8H10V5z"/>
	<path d="M16.5,2.5c0-0.2,0.1-0.4,0.3-0.6c0.2-0.2,0.4-0.3,0.6-0.3c0.2,0,0.5,0.1,0.6,0.3c0.2,0.2,0.3,0.4,0.3,0.6S18.2,3,18,3.2
		c-0.2,0.2-0.4,0.3-0.6,0.3S17,3.3,16.8,3.2C16.6,3,16.5,2.8,16.5,2.5z M18.1,5v5.8h-1.4V5H18.1z"/>
</g>
<g class="st0">
	<path d="M20.5,5l1.5,3.3L23.6,5h1.5l-3,6.2L19,5H20.5z"/>
</g>
<g class="st0">
	<path d="M31.1,8.2h-4.2c0,0.5,0.2,0.9,0.5,1.1c0.3,0.3,0.6,0.4,1.1,0.4c0.3,0,0.6-0.1,0.8-0.2c0.2-0.2,0.5-0.5,0.7-0.9l1.1,0.6
		c-0.2,0.3-0.4,0.6-0.6,0.8s-0.4,0.4-0.6,0.5c-0.2,0.1-0.5,0.2-0.7,0.3C29,11,28.7,11,28.4,11c-0.9,0-1.6-0.3-2.1-0.8
		c-0.5-0.6-0.8-1.3-0.8-2.2c0-0.9,0.3-1.7,0.8-2.2c0.5-0.6,1.2-0.8,2.1-0.8c0.9,0,1.5,0.3,2,0.8c0.5,0.5,0.7,1.3,0.7,2.3L31.1,8.2z
		 M29.7,7.1C29.5,6.4,29.1,6,28.3,6c-0.2,0-0.3,0-0.5,0.1s-0.3,0.1-0.4,0.2c-0.1,0.1-0.2,0.2-0.3,0.3C27.1,6.8,27,6.9,27,7.1H29.7z"
		/>
	<path d="M32.6,5h1.4v0.5c0.2-0.3,0.5-0.4,0.7-0.5c0.2-0.1,0.4-0.1,0.7-0.1c0.4,0,0.7,0.1,1.1,0.3l-0.6,1.2
		c-0.3-0.2-0.5-0.3-0.8-0.3c-0.7,0-1.1,0.6-1.1,1.7v3h-1.4V5z"/>
	<path d="M40.6,6l-1.1,0.6C39.3,6.2,39.1,6,38.8,6c-0.1,0-0.2,0-0.3,0.1c-0.1,0.1-0.1,0.2-0.1,0.3c0,0.2,0.3,0.4,0.8,0.7
		c0.7,0.3,1.2,0.6,1.4,0.9c0.2,0.3,0.4,0.6,0.4,1.1c0,0.6-0.2,1-0.6,1.4c-0.4,0.4-0.9,0.5-1.5,0.5c-1,0-1.7-0.5-2.1-1.4L37.9,9
		c0.2,0.3,0.3,0.5,0.4,0.5c0.2,0.2,0.4,0.2,0.6,0.2c0.5,0,0.7-0.2,0.7-0.6c0-0.2-0.2-0.5-0.5-0.7c-0.1-0.1-0.3-0.1-0.4-0.2
		c-0.1-0.1-0.3-0.1-0.4-0.2c-0.4-0.2-0.7-0.4-0.8-0.6c-0.2-0.2-0.3-0.6-0.3-0.9c0-0.5,0.2-0.9,0.5-1.3C38,5,38.4,4.8,38.9,4.8
		C39.6,4.8,40.2,5.2,40.6,6z"/>
	<path d="M42,2.5c0-0.2,0.1-0.4,0.3-0.6c0.2-0.2,0.4-0.3,0.6-0.3c0.2,0,0.5,0.1,0.6,0.3c0.2,0.2,0.3,0.4,0.3,0.6S43.6,3,43.5,3.2
		c-0.2,0.2-0.4,0.3-0.6,0.3s-0.5-0.1-0.6-0.3C42,3,42,2.8,42,2.5z M43.5,5v5.8h-1.4V5H43.5z"/>
	<path d="M46.6,6.2v4.6h-1.4V6.2h-0.6V5h0.6V2.8h1.4V5h1.1v1.3H46.6z"/>
	<path d="M50.4,9.7L47.8,5h1.6l1.8,3.4L52.8,5h1.5l-4.7,9h-1.5L50.4,9.7z"/>
</g>
<g class="st0">
	<path d="M58.3,7.9c0-0.8,0.3-1.6,0.9-2.2c0.6-0.6,1.3-0.9,2.2-0.9c0.9,0,1.6,0.3,2.2,0.9c0.6,0.6,0.9,1.3,0.9,2.2
		c0,0.9-0.3,1.6-0.9,2.2C63,10.7,62.2,11,61.4,11c-0.9,0-1.6-0.3-2.2-0.9C58.6,9.5,58.3,8.8,58.3,7.9z M59.6,7.9
		c0,0.6,0.2,1,0.5,1.4c0.3,0.3,0.7,0.5,1.3,0.5c0.5,0,1-0.2,1.3-0.5c0.3-0.3,0.5-0.8,0.5-1.4c0-0.6-0.2-1-0.5-1.4
		C62.3,6.2,61.9,6,61.4,6c-0.5,0-0.9,0.2-1.3,0.5C59.8,6.9,59.6,7.3,59.6,7.9z"/>
	<path d="M66.8,6.2v4.6h-1.4V6.2H65V5h0.5V2.7c0-0.7,0.1-1.3,0.4-1.6c0.4-0.4,0.9-0.6,1.5-0.6c0.2,0,0.5,0.1,0.9,0.2v1.4L68.2,2
		c-0.3-0.1-0.5-0.2-0.7-0.2c-0.2,0-0.4,0.1-0.5,0.3c-0.1,0.2-0.1,0.5-0.1,1V5h1.5v1.3H66.8z"/>
	<path d="M79,2.1v1.7c-0.8-0.7-1.6-1-2.5-1c-1,0-1.8,0.3-2.4,1c-0.7,0.7-1,1.5-1,2.5c0,1,0.3,1.8,1,2.5s1.5,1,2.4,1
		c0.5,0,0.9-0.1,1.3-0.2c0.2-0.1,0.4-0.2,0.6-0.3s0.4-0.3,0.7-0.5v1.7c-0.8,0.5-1.6,0.7-2.5,0.7c-1.3,0-2.5-0.5-3.4-1.4
		c-0.9-0.9-1.4-2.1-1.4-3.4c0-1.2,0.4-2.2,1.2-3.2c1-1.1,2.2-1.7,3.7-1.7C77.4,1.4,78.2,1.6,79,2.1z"/>
</g>
<g class="st0">
	<path d="M84.3,5h1.4v5.8h-1.4v-0.6c-0.6,0.5-1.2,0.8-1.8,0.8c-0.8,0-1.5-0.3-2-0.9c-0.5-0.6-0.8-1.3-0.8-2.2c0-0.9,0.3-1.6,0.8-2.2
		c0.5-0.6,1.2-0.9,2-0.9c0.7,0,1.3,0.3,1.8,0.8V5z M81.1,7.9c0,0.6,0.1,1,0.4,1.4c0.3,0.4,0.7,0.5,1.2,0.5c0.5,0,0.9-0.2,1.2-0.5
		c0.3-0.4,0.5-0.8,0.5-1.4c0-0.5-0.2-1-0.5-1.4C83.6,6.2,83.2,6,82.7,6c-0.5,0-0.9,0.2-1.2,0.5C81.3,6.9,81.1,7.4,81.1,7.9z"/>
	<path d="M88.4,0.7v10.1H87V0.7H88.4z"/>
	<path d="M89.5,2.5c0-0.2,0.1-0.4,0.3-0.6c0.2-0.2,0.4-0.3,0.6-0.3c0.2,0,0.5,0.1,0.6,0.3c0.2,0.2,0.3,0.4,0.3,0.6S91.2,3,91,3.2
		c-0.2,0.2-0.4,0.3-0.6,0.3s-0.5-0.1-0.6-0.3C89.6,3,89.5,2.8,89.5,2.5z M91,5v5.8h-1.4V5H91z"/>
</g>
<g class="st0">
	<path d="M93.8,6.2v4.6h-1.4V6.2h-0.5V5h0.5V2.7c0-0.7,0.1-1.3,0.4-1.6c0.4-0.4,0.9-0.6,1.5-0.6c0.2,0,0.5,0.1,0.9,0.2v1.4L95.1,2
		c-0.3-0.1-0.5-0.2-0.7-0.2c-0.2,0-0.4,0.1-0.5,0.3c-0.1,0.2-0.1,0.5-0.1,1V5h1.5v1.3H93.8z"/>
</g>
<g class="st0">
	<path d="M95.5,7.9c0-0.8,0.3-1.6,0.9-2.2c0.6-0.6,1.3-0.9,2.2-0.9c0.9,0,1.6,0.3,2.2,0.9c0.6,0.6,0.9,1.3,0.9,2.2
		c0,0.9-0.3,1.6-0.9,2.2c-0.6,0.6-1.4,0.9-2.2,0.9c-0.9,0-1.6-0.3-2.2-0.9C95.8,9.5,95.5,8.8,95.5,7.9z M96.9,7.9
		c0,0.6,0.2,1,0.5,1.4c0.3,0.3,0.7,0.5,1.3,0.5c0.5,0,1-0.2,1.3-0.5c0.3-0.3,0.5-0.8,0.5-1.4c0-0.6-0.2-1-0.5-1.4
		C99.5,6.2,99.1,6,98.6,6c-0.5,0-0.9,0.2-1.3,0.5C97,6.9,96.9,7.3,96.9,7.9z"/>
</g>
<g class="st0">
	<path d="M102.8,5h1.4v0.5c0.2-0.3,0.5-0.4,0.7-0.5c0.2-0.1,0.4-0.1,0.7-0.1c0.4,0,0.7,0.1,1.1,0.3L106,6.4
		c-0.3-0.2-0.5-0.3-0.8-0.3c-0.7,0-1.1,0.6-1.1,1.7v3h-1.4V5z"/>
</g>
<g class="st0">
	<path d="M107.2,5h1.4v0.5c0.5-0.5,1-0.7,1.6-0.7c0.7,0,1.2,0.2,1.6,0.6c0.3,0.4,0.5,1,0.5,1.8v3.6h-1.4V7.6c0-0.6-0.1-1-0.2-1.2
		c-0.2-0.2-0.4-0.3-0.9-0.3c-0.4,0-0.8,0.1-1,0.4c-0.2,0.3-0.3,0.8-0.3,1.5v2.8h-1.4V5z"/>
	<path d="M113.3,2.5c0-0.2,0.1-0.4,0.3-0.6c0.2-0.2,0.4-0.3,0.6-0.3c0.2,0,0.5,0.1,0.6,0.3c0.2,0.2,0.3,0.4,0.3,0.6S115,3,114.8,3.2
		c-0.2,0.2-0.4,0.3-0.6,0.3s-0.5-0.1-0.6-0.3C113.4,3,113.3,2.8,113.3,2.5z M114.9,5v5.8h-1.4V5H114.9z"/>
	<path d="M120.5,5h1.4v5.8h-1.4v-0.6c-0.6,0.5-1.2,0.8-1.8,0.8c-0.8,0-1.5-0.3-2-0.9c-0.5-0.6-0.8-1.3-0.8-2.2
		c0-0.9,0.3-1.6,0.8-2.2c0.5-0.6,1.2-0.9,2-0.9c0.7,0,1.3,0.3,1.8,0.8V5z M117.3,7.9c0,0.6,0.1,1,0.4,1.4c0.3,0.4,0.7,0.5,1.2,0.5
		c0.5,0,0.9-0.2,1.2-0.5c0.3-0.4,0.5-0.8,0.5-1.4c0-0.5-0.2-1-0.5-1.4C119.8,6.2,119.4,6,119,6c-0.5,0-0.9,0.2-1.2,0.5
		C117.5,6.9,117.3,7.4,117.3,7.9z"/>
	<path d="M124.1,9.1l1.2,0.5l-1.7,3.4l-0.9-0.4L124.1,9.1z"/>
	<path d="M131.7,1.6v8h2.7v1.3h-4.1V1.6H131.7z"/>
	<path d="M134.9,7.9c0-0.8,0.3-1.6,0.9-2.2c0.6-0.6,1.3-0.9,2.2-0.9c0.9,0,1.6,0.3,2.2,0.9c0.6,0.6,0.9,1.3,0.9,2.2
		c0,0.9-0.3,1.6-0.9,2.2c-0.6,0.6-1.4,0.9-2.2,0.9c-0.9,0-1.6-0.3-2.2-0.9C135.2,9.5,134.9,8.8,134.9,7.9z M136.3,7.9
		c0,0.6,0.2,1,0.5,1.4c0.3,0.3,0.7,0.5,1.3,0.5c0.5,0,1-0.2,1.3-0.5c0.3-0.3,0.5-0.8,0.5-1.4c0-0.6-0.2-1-0.5-1.4
		C138.9,6.2,138.5,6,138,6c-0.5,0-0.9,0.2-1.3,0.5C136.4,6.9,136.3,7.3,136.3,7.9z"/>
	<path d="M145.6,6l-1.1,0.6c-0.2-0.4-0.4-0.5-0.7-0.5c-0.1,0-0.2,0-0.3,0.1c-0.1,0.1-0.1,0.2-0.1,0.3c0,0.2,0.3,0.4,0.8,0.7
		c0.7,0.3,1.2,0.6,1.4,0.9c0.2,0.3,0.4,0.6,0.4,1.1c0,0.6-0.2,1-0.6,1.4c-0.4,0.4-0.9,0.5-1.5,0.5c-1,0-1.7-0.5-2.1-1.4l1.2-0.5
		c0.2,0.3,0.3,0.5,0.4,0.5c0.2,0.2,0.4,0.2,0.6,0.2c0.5,0,0.7-0.2,0.7-0.6c0-0.2-0.2-0.5-0.5-0.7c-0.1-0.1-0.3-0.1-0.4-0.2
		c-0.1-0.1-0.3-0.1-0.4-0.2c-0.4-0.2-0.7-0.4-0.8-0.6c-0.2-0.2-0.3-0.6-0.3-0.9c0-0.5,0.2-0.9,0.5-1.3c0.4-0.3,0.8-0.5,1.3-0.5
		C144.6,4.8,145.2,5.2,145.6,6z"/>
	<path d="M155.9,8.6h-4l-1,2.2h-1.5L154,1l4.4,9.8h-1.5L155.9,8.6z M155.3,7.3L154,4.1l-1.4,3.2H155.3z"/>
	<path d="M158.9,5h1.4v0.5c0.5-0.5,1-0.7,1.6-0.7c0.7,0,1.2,0.2,1.6,0.6c0.3,0.4,0.5,1,0.5,1.8v3.6h-1.4V7.6c0-0.6-0.1-1-0.2-1.2
		c-0.2-0.2-0.4-0.3-0.9-0.3c-0.4,0-0.8,0.1-1,0.4c-0.2,0.3-0.3,0.8-0.3,1.5v2.8h-1.4V5z"/>
	<path d="M171,10.7c0,0.3,0,0.5,0,0.7c0,0.2,0,0.4-0.1,0.6c-0.1,0.4-0.3,0.8-0.6,1.1c-0.5,0.6-1.3,0.9-2.2,0.9
		c-0.8,0-1.4-0.2-1.9-0.6c-0.5-0.4-0.8-1-0.9-1.8h1.4c0.1,0.3,0.1,0.5,0.3,0.7c0.3,0.4,0.7,0.5,1.2,0.5c1,0,1.5-0.6,1.5-1.8v-0.8
		c-0.5,0.5-1.2,0.8-1.9,0.8c-0.8,0-1.4-0.3-2-0.9c-0.5-0.6-0.8-1.3-0.8-2.2c0-0.9,0.2-1.6,0.7-2.2c0.5-0.6,1.2-0.9,2-0.9
		c0.7,0,1.3,0.3,1.8,0.8V5h1.3V10.7z M169.7,7.9c0-0.6-0.2-1-0.5-1.4C168.9,6.2,168.5,6,168,6c-0.5,0-0.9,0.2-1.2,0.6
		c-0.3,0.3-0.4,0.8-0.4,1.3c0,0.5,0.1,1,0.4,1.3c0.3,0.4,0.7,0.6,1.2,0.6c0.5,0,0.9-0.2,1.2-0.6C169.5,8.9,169.7,8.4,169.7,7.9z"/>
	<path d="M177.6,8.2h-4.2c0,0.5,0.2,0.9,0.5,1.1c0.3,0.3,0.6,0.4,1.1,0.4c0.3,0,0.6-0.1,0.8-0.2c0.2-0.2,0.5-0.5,0.7-0.9l1.1,0.6
		c-0.2,0.3-0.4,0.6-0.6,0.8c-0.2,0.2-0.4,0.4-0.6,0.5c-0.2,0.1-0.5,0.2-0.7,0.3c-0.3,0.1-0.5,0.1-0.8,0.1c-0.9,0-1.6-0.3-2.1-0.8
		c-0.5-0.6-0.8-1.3-0.8-2.2c0-0.9,0.3-1.7,0.8-2.2c0.5-0.6,1.2-0.8,2.1-0.8c0.9,0,1.5,0.3,2,0.8c0.5,0.5,0.7,1.3,0.7,2.3L177.6,8.2z
		 M176.2,7.1c-0.2-0.7-0.6-1.1-1.4-1.1c-0.2,0-0.3,0-0.5,0.1c-0.1,0-0.3,0.1-0.4,0.2c-0.1,0.1-0.2,0.2-0.3,0.3
		c-0.1,0.1-0.1,0.3-0.2,0.4H176.2z"/>
	<path d="M180.1,0.7v10.1h-1.3V0.7H180.1z"/>
	<path d="M186.8,8.2h-4.2c0,0.5,0.2,0.9,0.5,1.1c0.3,0.3,0.6,0.4,1.1,0.4c0.3,0,0.6-0.1,0.8-0.2c0.2-0.2,0.5-0.5,0.7-0.9l1.1,0.6
		c-0.2,0.3-0.4,0.6-0.6,0.8c-0.2,0.2-0.4,0.4-0.6,0.5c-0.2,0.1-0.5,0.2-0.7,0.3c-0.3,0.1-0.5,0.1-0.8,0.1c-0.9,0-1.6-0.3-2.1-0.8
		c-0.5-0.6-0.8-1.3-0.8-2.2c0-0.9,0.3-1.7,0.8-2.2c0.5-0.6,1.2-0.8,2.1-0.8c0.9,0,1.5,0.3,2,0.8c0.5,0.5,0.7,1.3,0.7,2.3L186.8,8.2z
		 M185.4,7.1C185.2,6.4,184.7,6,184,6c-0.2,0-0.3,0-0.5,0.1c-0.1,0-0.3,0.1-0.4,0.2c-0.1,0.1-0.2,0.2-0.3,0.3
		c-0.1,0.1-0.1,0.3-0.2,0.4H185.4z"/>
	<path d="M191.3,6l-1.1,0.6C190,6.2,189.7,6,189.5,6c-0.1,0-0.2,0-0.3,0.1c-0.1,0.1-0.1,0.2-0.1,0.3c0,0.2,0.3,0.4,0.8,0.7
		c0.7,0.3,1.2,0.6,1.4,0.9c0.2,0.3,0.4,0.6,0.4,1.1c0,0.6-0.2,1-0.6,1.4c-0.4,0.4-0.9,0.5-1.5,0.5c-1,0-1.7-0.5-2.1-1.4l1.2-0.5
		c0.2,0.3,0.3,0.5,0.4,0.5c0.2,0.2,0.4,0.2,0.6,0.2c0.5,0,0.7-0.2,0.7-0.6c0-0.2-0.2-0.5-0.5-0.7c-0.1-0.1-0.3-0.1-0.4-0.2
		c-0.1-0.1-0.3-0.1-0.4-0.2c-0.4-0.2-0.7-0.4-0.8-0.6c-0.2-0.2-0.3-0.6-0.3-0.9c0-0.5,0.2-0.9,0.5-1.3c0.4-0.3,0.8-0.5,1.3-0.5
		C190.3,4.8,190.9,5.2,191.3,6z"/>
</g>
<g class="st0">
	<path d="M212.2,6.5V5.3c0.6,0,1-0.1,1.2-0.2c0.4-0.2,0.5-0.6,0.5-1.1c0-0.4-0.1-0.7-0.4-1c-0.3-0.3-0.6-0.4-1-0.4
		c-0.4,0-0.7,0.1-0.9,0.3c-0.2,0.2-0.4,0.5-0.5,1h-1.4c0.1-0.9,0.4-1.5,0.9-1.9c0.4-0.4,1.1-0.6,1.9-0.6c0.8,0,1.5,0.2,2,0.7
		c0.5,0.5,0.8,1.1,0.8,1.8c0,0.8-0.3,1.5-1,2c0.8,0.5,1.2,1.2,1.2,2.2c0,0.8-0.3,1.5-0.8,2c-0.6,0.5-1.3,0.8-2.2,0.8
		c-1.1,0-1.9-0.4-2.5-1.2c-0.2-0.3-0.4-0.8-0.4-1.4h1.4c0.1,0.4,0.2,0.8,0.5,1c0.3,0.2,0.6,0.4,1.1,0.4c0.5,0,0.8-0.2,1.1-0.5
		c0.3-0.3,0.4-0.7,0.4-1.2c0-0.6-0.2-1.1-0.7-1.3C213.1,6.6,212.7,6.5,212.2,6.5z"/>
</g>
<g class="st0">
	<path d="M219.1,2.9h-1.6l0.8-1.3h2.2v9.3h-1.4V2.9z"/>
</g>
<g class="st0">
	<path d="M222.8,6.1c0-1.5,0.3-2.7,1-3.5c0.6-0.8,1.4-1.2,2.2-1.2c0.9,0,1.6,0.4,2.2,1.2c0.7,0.9,1,2.1,1,3.6c0,1.5-0.3,2.7-1,3.6
		c-0.6,0.8-1.4,1.2-2.2,1.2c-0.9,0-1.6-0.4-2.2-1.2C223.2,8.9,222.8,7.7,222.8,6.1z M224.2,6.1c0,1,0.2,1.9,0.5,2.6
		c0.4,0.7,0.8,1,1.4,1c0.5,0,1-0.3,1.4-1c0.4-0.7,0.5-1.5,0.5-2.5s-0.2-1.9-0.5-2.5c-0.4-0.7-0.8-1-1.4-1c-0.5,0-1,0.3-1.4,1
		C224.4,4.3,224.2,5.1,224.2,6.1z"/>
</g>
<g class="st0">
	<path d="M235.8,6c-0.7-0.5-1-1.1-1-2c0-0.8,0.3-1.4,0.8-1.9c0.5-0.5,1.2-0.8,1.9-0.8c0.8,0,1.4,0.3,1.9,0.8
		c0.5,0.5,0.8,1.1,0.8,1.9c0,0.8-0.3,1.4-1,2c0.4,0.2,0.7,0.5,0.9,0.9c0.2,0.4,0.3,0.8,0.3,1.3c0,0.8-0.3,1.5-0.8,2
		c-0.5,0.5-1.2,0.8-2.1,0.8c-0.9,0-1.6-0.3-2.1-0.8c-0.6-0.5-0.8-1.2-0.8-2C234.6,7.1,235,6.4,235.8,6z M236,8.1
		c0,0.4,0.1,0.8,0.4,1.1c0.3,0.3,0.7,0.5,1.1,0.5c0.4,0,0.8-0.2,1.1-0.5c0.3-0.3,0.5-0.7,0.5-1.1c0-0.4-0.2-0.8-0.5-1.1
		s-0.7-0.5-1.1-0.5c-0.4,0-0.8,0.2-1.1,0.5C236.1,7.4,236,7.7,236,8.1z M236.1,4c0,0.4,0.1,0.7,0.4,1c0.3,0.3,0.6,0.4,1,0.4
		c0.4,0,0.7-0.1,1-0.4c0.3-0.3,0.4-0.6,0.4-1c0-0.4-0.1-0.7-0.4-1c-0.3-0.3-0.6-0.4-1-0.4c-0.4,0-0.7,0.1-1,0.4
		C236.3,3.3,236.1,3.7,236.1,4z"/>
	<path d="M244.6,9.5h3.5v1.3h-6.2l3.2-3.9c0.3-0.4,0.6-0.7,0.8-1c0.2-0.3,0.4-0.5,0.5-0.7c0.2-0.4,0.3-0.7,0.3-1
		c0-0.4-0.2-0.8-0.5-1.1c-0.3-0.3-0.7-0.4-1.1-0.4c-0.9,0-1.5,0.6-1.6,1.7h-1.4c0.2-2,1.2-2.9,3-2.9c0.8,0,1.6,0.3,2.1,0.8
		c0.6,0.5,0.9,1.2,0.9,2c0,0.5-0.1,1-0.4,1.5c-0.1,0.3-0.3,0.6-0.6,0.9c-0.3,0.3-0.6,0.8-1,1.2L244.6,9.5z"/>
	<path d="M255.8,2.9H253l-0.5,1.5c0.1,0,0.1,0,0.2,0c0.1,0,0.1,0,0.2,0c0.9,0,1.6,0.3,2.2,0.9c0.6,0.6,0.9,1.4,0.9,2.3
		c0,1-0.3,1.8-1,2.4c-0.7,0.6-1.5,0.9-2.5,0.9c-1.2,0-2.2-0.6-2.9-1.7l1.1-0.9c0.3,0.5,0.6,0.8,0.9,1.1c0.3,0.2,0.7,0.3,1.1,0.3
		c0.6,0,1-0.2,1.4-0.6c0.4-0.4,0.6-0.9,0.6-1.5c0-0.6-0.2-1.1-0.6-1.5c-0.4-0.4-0.8-0.6-1.4-0.6c-0.6,0-1.2,0.3-1.6,0.8h-0.5
		l1.5-4.9h3.8V2.9z"/>
	<path d="M263.4,6c-0.7-0.5-1-1.1-1-2c0-0.8,0.3-1.4,0.8-1.9c0.5-0.5,1.2-0.8,1.9-0.8c0.8,0,1.4,0.3,1.9,0.8
		c0.5,0.5,0.8,1.1,0.8,1.9c0,0.8-0.3,1.4-1,2c0.4,0.2,0.7,0.5,0.9,0.9c0.2,0.4,0.3,0.8,0.3,1.3c0,0.8-0.3,1.5-0.8,2
		c-0.5,0.5-1.2,0.8-2.1,0.8c-0.9,0-1.6-0.3-2.1-0.8c-0.6-0.5-0.8-1.2-0.8-2C262.1,7.1,262.5,6.4,263.4,6z M263.5,8.1
		c0,0.4,0.1,0.8,0.4,1.1c0.3,0.3,0.7,0.5,1.1,0.5c0.4,0,0.8-0.2,1.1-0.5c0.3-0.3,0.5-0.7,0.5-1.1c0-0.4-0.2-0.8-0.5-1.1
		s-0.7-0.5-1.1-0.5c-0.4,0-0.8,0.2-1.1,0.5C263.6,7.4,263.5,7.7,263.5,8.1z M263.7,4c0,0.4,0.1,0.7,0.4,1c0.3,0.3,0.6,0.4,1,0.4
		c0.4,0,0.7-0.1,1-0.4c0.3-0.3,0.4-0.6,0.4-1c0-0.4-0.1-0.7-0.4-1c-0.3-0.3-0.6-0.4-1-0.4c-0.4,0-0.7,0.1-1,0.4
		C263.8,3.3,263.7,3.7,263.7,4z"/>
	<path d="M272.2,6.5V5.3c0.6,0,1-0.1,1.2-0.2c0.4-0.2,0.5-0.6,0.5-1.1c0-0.4-0.1-0.7-0.4-1c-0.3-0.3-0.6-0.4-1-0.4
		c-0.4,0-0.7,0.1-0.9,0.3c-0.2,0.2-0.4,0.5-0.5,1h-1.4c0.1-0.9,0.4-1.5,0.9-1.9s1.1-0.6,1.9-0.6c0.8,0,1.5,0.2,2,0.7
		c0.5,0.5,0.8,1.1,0.8,1.8c0,0.8-0.3,1.5-1,2c0.8,0.5,1.2,1.2,1.2,2.2c0,0.8-0.3,1.5-0.8,2c-0.6,0.5-1.3,0.8-2.2,0.8
		c-1.1,0-1.9-0.4-2.5-1.2c-0.2-0.3-0.4-0.8-0.4-1.4h1.3c0.1,0.4,0.2,0.8,0.5,1c0.3,0.2,0.6,0.4,1.1,0.4c0.5,0,0.8-0.2,1.1-0.5
		c0.3-0.3,0.4-0.7,0.4-1.2c0-0.6-0.2-1.1-0.7-1.3C273.2,6.6,272.8,6.5,272.2,6.5z"/>
	<path d="M283.4,2.9h-2.9L280,4.4c0.1,0,0.1,0,0.2,0c0.1,0,0.1,0,0.2,0c0.9,0,1.6,0.3,2.2,0.9c0.6,0.6,0.9,1.4,0.9,2.3
		c0,1-0.3,1.8-1,2.4c-0.7,0.6-1.5,0.9-2.5,0.9c-1.2,0-2.2-0.6-2.9-1.7l1.1-0.9c0.3,0.5,0.6,0.8,0.9,1.1c0.3,0.2,0.7,0.3,1.1,0.3
		c0.6,0,1-0.2,1.4-0.6c0.4-0.4,0.6-0.9,0.6-1.5c0-0.6-0.2-1.1-0.6-1.5c-0.4-0.4-0.8-0.6-1.4-0.6c-0.6,0-1.2,0.3-1.6,0.8h-0.5
		l1.5-4.9h3.8V2.9z"/>
	<path d="M291.2,2.9h-2.9l-0.5,1.5c0.1,0,0.1,0,0.2,0c0.1,0,0.1,0,0.2,0c0.9,0,1.6,0.3,2.2,0.9c0.6,0.6,0.9,1.4,0.9,2.3
		c0,1-0.3,1.8-1,2.4c-0.7,0.6-1.5,0.9-2.5,0.9c-1.2,0-2.2-0.6-2.9-1.7l1.1-0.9c0.3,0.5,0.6,0.8,0.9,1.1c0.3,0.2,0.7,0.3,1.1,0.3
		c0.6,0,1-0.2,1.4-0.6c0.4-0.4,0.6-0.9,0.6-1.5c0-0.6-0.2-1.1-0.6-1.5c-0.4-0.4-0.8-0.6-1.4-0.6c-0.6,0-1.2,0.3-1.6,0.8h-0.5
		l1.5-4.9h3.8V2.9z"/>
</g>
</svg>
