<?xml version="1.0" encoding="utf-8"?>
<!-- Generator: Adobe Illustrator 21.0.0, SVG Export Plug-In . SVG Version: 6.00 Build 0)  -->
<svg version="1.1" id="Layer_1" xmlns="http://www.w3.org/2000/svg" xmlns:xlink="http://www.w3.org/1999/xlink" x="0px" y="0px"
	 viewBox="0 0 1333.7 534.8" style="enable-background:new 0 0 1333.7 534.8;" xml:space="preserve">
<style type="text/css">
	.st0{fill:#FFFFFF;}
	.st1{fill:#010101;}
	.st2{font-family:'Helvetica-Bold';}
	.st3{font-size:40.7709px;}
	.st4{font-size:46px;}
	.st5{font-size:22.1253px;}
</style>
<text transform="matrix(1 0 0 1 0.667 144.2236)" class="st1 st2 st3">Die Göppinger Galerie und Olivetti</text>
<text transform="matrix(1 0 0 1 1.525879e-04 197.5569)" class="st1 st2 st3">zeigen in den Olivetti Ausstellungsräumen</text>
<text transform="matrix(1 0 0 1 3.356934e-04 251.5569)"><tspan x="0" y="0" class="st1 st2 st3">Düsseldorf Königsallee </tspan><tspan x="466.3" y="0" class="st1 st2 st4">80</tspan></text>
<text transform="matrix(1 0 0 1 3.356934e-04 306.5569)" class="st1 st2 st3">die Ausstellung</text>
<text transform="matrix(1 0 0 1 1.525879e-04 523.1902)" class="st1 st2 st5">geöffnet  vom 15.   Junl  bis   14. Juli   1963</text>
<text transform="matrix(1 0 0 1 506.001 522.4186)" class="st1 st2 st5">Montag   bis  Freitag   9 - 13   Uhr   und 15 - 18    Uhr</text>
<text transform="matrix(1 0 0 1 1099.001 524.1902)" class="st1 st2 st5">Samstags   9 - 13   uhr</text>
<text transform="matrix(1 0 0 1 3.356934e-04 481.5569)" class="st1 st2 st3">Kinetische Kunst</text>
<path class="st0" d="M54,97.1c-1-1.5-0.7-3.2-0.7-4.7c0-10.9,0-21.7,0-32.6c0-17.7,0.1-35.5,0.1-53.2c0-1.9-0.3-3.8,0.9-5.9
	c0.8-0.1,1.7-0.4,2.6-0.4C70.9,0.1,85,0.1,99,0c0.1,0,0.3,0.1,0.5,0.2c1.3,0.7,1.2,2.1,1.2,3.3c0.1,5,0.1,9.9,0.1,14.9
	c0,5.8,0.1,11.5,0.1,17.3c0,1.9,0.1,3.8-0.6,5.5C97,42,86.1,42,82,41.3c-0.2-0.8-0.5-1.7-0.5-2.6c-0.1-4.8-0.1-9.6-0.1-14.4
	c0-0.9-0.2-1.9-0.3-2.9c-2.4-1.2-4.7-0.7-7.3-0.4c-0.1,1.1-0.4,2.1-0.4,3.2c-0.1,14.1-0.1,28.1-0.1,42.2c0,2.7-0.1,5.4,0,8.1
	c0,0.9,0.1,1.9,0.2,3c2.3,0.8,4.4,0.6,6.8,0.2c1-2.3,0.6-4.7,0.4-7.2c-1-0.5-2-1-3-1.5C77.3,68.8,77,68.4,77,68
	c-0.1-4.8-0.2-9.6-0.2-14.4c0-2.4,0.8-3.2,3.2-3.2c5.9-0.1,11.8-0.1,17.7,0c2.3,0,2.9,0.6,2.9,2.9c0.1,5,0.1,9.9,0,14.9
	c-0.1,8-0.2,16-0.3,24c0,1.6,0.3,3.2-0.9,4.9c-0.9,0.1-2,0.3-3.1,0.4c-13.7,0.1-27.5,0.2-41.2,0.2C54.8,97.5,54.3,97.2,54,97.1z"/>
<path class="st0" d="M3,1.3C18.3,1,33,0.7,47.6,0.4c0.6,0,1.2,0.3,2,0.6C49.8,2.2,50,3.5,50,4.7c0.4,23.1,0.3,32.1-0.7,36.7
	c-3,0.9-6.2,0.3-9.3,0.5c-3.1,0.1-6.3,0.4-9.7-0.2c-0.6-6.9-0.1-13.7-0.6-20.5c-2.9-0.6-5.2-0.5-7.5,0c-0.2,0.6-0.5,1.1-0.5,1.5
	c-0.1,9.7-0.4,19.5-0.2,29.2c0.1,8.6-0.5,17.2,0.2,25.8c2.7,1.2,5.2,0.7,7.8,0.3c0.7-2.3,0.4-4.5,0.2-6.9c-1.3-0.4-2.6-0.8-4.1-1.3
	c-0.2-0.9-0.4-1.9-0.4-2.8c0-4.3-0.1-8.6,0-12.9c0.1-2.2,0.8-3,2.9-3c6.1-0.2,12.1-0.4,18.2-0.5c0.9,0,1.8,0.3,3,0.6
	c0.2,1.3,0.5,2.6,0.5,3.8c0,7.4,0,14.7-0.1,22.1c0,5.1-0.1,10.2-0.2,15.3c0,1,0,1.9-0.2,2.9c-0.2,1.6-0.9,2.3-2.5,2.4
	c-1.9,0.1-3.8,0.1-5.8,0.1c-7.3,0.1-14.7,0.1-22,0.2c-3,0-6.1,0.2-9.1,0.2c-1.9,0-3.8,0-5.7-0.2C2.7,97.7,2,97,1.8,95.5
	c-0.1-0.9-0.1-1.9-0.1-2.9c0.1-15.2,0.3-30.4,0.5-45.5c0.1-6.9,0.5-13.7,0.3-20.6c-0.2-7,0.3-14,0.2-21.1C2.5,4.2,2.8,3,3,1.3z"/>
</svg>
