<?xml version="1.0" encoding="utf-8"?>
<!-- Generator: Adobe Illustrator 21.0.0, SVG Export Plug-In . SVG Version: 6.00 Build 0)  -->
<svg version="1.1" id="testo_arte_prog" xmlns="http://www.w3.org/2000/svg" xmlns:xlink="http://www.w3.org/1999/xlink" x="0px" y="0px"
	 viewBox="0 0 1341.9 166.4" style="enable-background:new 0 0 1341.9 166.4;" xml:space="preserve">
<style type="text/css">
	.st0{enable-background:new    ;}
	.testo_prog{fill:#FFFFFF;}
</style>
<g class="st0">
	<path class="testo_prog" d="M35,17.4h21.1l31.6,89.3H67.5l-5.9-18.4H28.7l-6.1,18.4H3.1L35,17.4z M33.8,73h22.9L45.4,37.8L33.8,73z"/>
</g>
<g class="st0">
	<path class="testo_prog" d="M156.3,19.7c3.3,1.4,6.1,3.5,8.4,6.2c1.9,2.3,3.4,4.8,4.5,7.5c1.1,2.7,1.7,5.9,1.7,9.4c0,4.2-1.1,8.4-3.2,12.5
		c-2.1,4.1-5.7,7-10.6,8.7c4.1,1.7,7,4,8.8,7.1c1.7,3.1,2.6,7.7,2.6,14v6c0,4.1,0.2,6.8,0.5,8.3c0.5,2.3,1.6,4,3.4,5.1v2.2h-20.6
		c-0.6-2-1-3.6-1.2-4.8c-0.5-2.5-0.7-5.1-0.8-7.7l-0.1-8.3c-0.1-5.7-1.1-9.5-3-11.4c-1.9-1.9-5.4-2.8-10.6-2.8h-18.2v35H99.5V17.4
		h42.7C148.3,17.5,153,18.3,156.3,19.7z M117.7,32.9v24h20.1c4,0,7-0.5,9-1.5c3.5-1.7,5.3-5,5.3-10.1c0-5.4-1.7-9-5.1-10.9
		c-1.9-1-4.8-1.6-8.6-1.6H117.7z"/>
	<path class="testo_prog" d="M247.6,17.4v15.8h-26.7v73.5h-18.8V33.2h-26.8V17.4H247.6z"/>
</g>
<g class="st0">
	<path class="testo_prog" d="M318.1,33.2h-47.3v19h43.4v15.5h-43.4v23h49.4v16.1h-67.7V17.4h65.5V33.2z"/>
</g>
<g class="st0">
	<path class="testo_prog" d="M466.1,68c-5.2,4.4-12.7,6.5-22.4,6.5h-18.6v32.1h-18.5V17.4h38.3c8.8,0,15.9,2.3,21.1,6.9
		c5.3,4.6,7.9,11.7,7.9,21.4C474,56.2,471.3,63.7,466.1,68z M451.9,35.9c-2.4-2-5.7-3-9.9-3h-16.8v26.3h16.8c4.3,0,7.6-1.1,9.9-3.2
		c2.4-2.1,3.5-5.5,3.5-10.2C455.4,41.2,454.2,37.9,451.9,35.9z"/>
	<path class="testo_prog" d="M542.2,19.7c3.3,1.4,6.1,3.5,8.4,6.2c1.9,2.3,3.4,4.8,4.5,7.5c1.1,2.7,1.7,5.9,1.7,9.4c0,4.2-1.1,8.4-3.2,12.5
		c-2.1,4.1-5.7,7-10.6,8.7c4.1,1.7,7,4,8.8,7.1c1.7,3.1,2.6,7.7,2.6,14v6c0,4.1,0.2,6.8,0.5,8.3c0.5,2.3,1.6,4,3.4,5.1v2.2h-20.6
		c-0.6-2-1-3.6-1.2-4.8c-0.5-2.5-0.7-5.1-0.8-7.7l-0.1-8.3c-0.1-5.7-1.1-9.5-3-11.4c-1.9-1.9-5.4-2.8-10.6-2.8h-18.2v35h-18.2V17.4
		h42.7C534.2,17.5,538.9,18.3,542.2,19.7z M503.6,32.9v24h20.1c4,0,7-0.5,9-1.5c3.5-1.7,5.3-5,5.3-10.1c0-5.4-1.7-9-5.1-10.9
		c-1.9-1-4.8-1.6-8.6-1.6H503.6z"/>
	<path class="testo_prog" d="M639.4,98.8c-6.7,6.9-16.5,10.4-29.3,10.4c-12.8,0-22.5-3.5-29.3-10.4c-9-8.5-13.6-20.8-13.6-36.8
		c0-16.4,4.5-28.6,13.6-36.8c6.7-6.9,16.5-10.4,29.3-10.4c12.8,0,22.5,3.5,29.3,10.4c9,8.2,13.5,20.5,13.5,36.8
		C652.9,78,648.4,90.2,639.4,98.8z M627.7,85.2c4.3-5.5,6.5-13.2,6.5-23.3c0-10-2.2-17.8-6.5-23.2c-4.3-5.5-10.2-8.2-17.6-8.2
		c-7.4,0-13.3,2.7-17.7,8.2c-4.4,5.5-6.6,13.2-6.6,23.3c0,10.1,2.2,17.8,6.6,23.3c4.4,5.5,10.3,8.2,17.7,8.2
		C617.5,93.4,623.4,90.6,627.7,85.2z"/>
	<path class="testo_prog" d="M723.2,45.3c-1.4-6.1-4.9-10.4-10.4-12.8c-3.1-1.3-6.5-2-10.2-2c-7.2,0-13.1,2.7-17.7,8.1s-6.9,13.6-6.9,24.5
		c0,11,2.5,18.7,7.5,23.3c5,4.6,10.7,6.8,17.1,6.8c6.3,0,11.4-1.8,15.4-5.4c4-3.6,6.5-8.3,7.4-14.1h-20.7V58.8h37.2v47.9h-12.4
		l-1.9-11.1c-3.6,4.2-6.8,7.2-9.7,8.9c-4.9,3-11,4.5-18.2,4.5c-11.8,0-21.5-4.1-29.1-12.3c-7.9-8.2-11.8-19.5-11.8-33.8
		c0-14.5,4-26,11.9-34.8c8-8.7,18.5-13.1,31.6-13.1c11.4,0,20.5,2.9,27.4,8.6c6.9,5.8,10.8,12.9,11.8,21.5H723.2z"/>
	<path class="testo_prog" d="M812.9,19.7c3.3,1.4,6.1,3.5,8.4,6.2c1.9,2.3,3.4,4.8,4.5,7.5c1.1,2.7,1.7,5.9,1.7,9.4c0,4.2-1.1,8.4-3.2,12.5
		c-2.1,4.1-5.7,7-10.6,8.7c4.1,1.7,7,4,8.8,7.1c1.7,3.1,2.6,7.7,2.6,14v6c0,4.1,0.2,6.8,0.5,8.3c0.5,2.3,1.6,4,3.4,5.1v2.2h-20.6
		c-0.6-2-1-3.6-1.2-4.8c-0.5-2.5-0.7-5.1-0.8-7.7l-0.1-8.3c-0.1-5.7-1.1-9.5-3-11.4c-1.9-1.9-5.4-2.8-10.6-2.8h-18.2v35h-18.2V17.4
		h42.7C805,17.5,809.6,18.3,812.9,19.7z M774.4,32.9v24h20.1c4,0,7-0.5,9-1.5c3.5-1.7,5.3-5,5.3-10.1c0-5.4-1.7-9-5.1-10.9
		c-1.9-1-4.8-1.6-8.6-1.6H774.4z"/>
	<path class="testo_prog" d="M866.9,17.4H888l31.6,89.3h-20.2l-5.9-18.4h-32.9l-6.1,18.4H835L866.9,17.4z M865.7,73h22.9l-11.3-35.1
		L865.7,73z"/>
	<path class="testo_prog" d="M986.2,17.4h26.9v89.3h-17.4V46.3c0-1.7,0-4.2,0.1-7.3c0-3.1,0.1-5.5,0.1-7.2l-16.9,75h-18.1l-16.8-75
		c0,1.7,0,4.1,0.1,7.2c0,3.1,0.1,5.6,0.1,7.3v60.4h-17.4V17.4h27.2l16.3,70.2L986.2,17.4z"/>
	<path class="testo_prog" d="M1085.6,17.4h26.9v89.3h-17.4V46.3c0-1.7,0-4.2,0.1-7.3c0-3.1,0.1-5.5,0.1-7.2l-16.9,75h-18.1l-16.8-75
		c0,1.7,0,4.1,0.1,7.2c0,3.1,0.1,5.6,0.1,7.3v60.4h-17.4V17.4h27.2l16.3,70.2L1085.6,17.4z"/>
	<path class="testo_prog" d="M1151.3,17.4h21.1l31.6,89.3h-20.2l-5.9-18.4H1145l-6.1,18.4h-19.5L1151.3,17.4z M1150.1,73h22.9l-11.3-35.1
		L1150.1,73z"/>
	<path class="testo_prog" d="M1267.2,17.4v15.8h-26.7v73.5h-18.8V33.2h-26.8V17.4H1267.2z"/>
	<path class="testo_prog" d="M1290.5,17.4h21.1l31.6,89.3H1323l-5.9-18.4h-32.9l-6.1,18.4h-19.5L1290.5,17.4z M1289.3,73h22.9l-11.3-35.1
		L1289.3,73z"/>
</g>
</svg>
