<?xml version="1.0" encoding="utf-8"?>
<!-- Generator: Adobe Illustrator 21.0.0, SVG Export Plug-In . SVG Version: 6.00 Build 0)  -->
<svg version="1.1" id="text_2" xmlns="http://www.w3.org/2000/svg" xmlns:xlink="http://www.w3.org/1999/xlink" x="0px" y="0px"
	 viewBox="0 0 157.1 153.9" style="enable-background:new 0 0 157.1 153.9;" xml:space="preserve">
<style type="text/css">
	.st0{fill:none;stroke:#CC312A;stroke-width:3;stroke-miterlimit:10;}
</style>
<rect x="41.4" y="40.3" transform="matrix(-1.014206e-03 -1 1 -1.014206e-03 -38.6662 193.7854)" class="st0" width="72.2" height="151.8"/>
<g>
	<path d="M18,16.2c-1,1.1-2.4,1.5-5.4,1.4l-5.1,0L7.4,30.1L1.3,30L1.6,0.1l12.2,0.1c0.2,0,1,0,1.6,0.1c1.9,0.4,2.9,1.6,3.2,2.2
		c0.7,1.3,0.7,3.2,0.7,4.5l0,3.9C19.2,13.8,19,15.1,18,16.2z M13.3,7.7c0-0.8,0.2-1.7-0.4-2.4c-0.7-0.8-2-0.7-2.2-0.7l-3,0l-0.1,8.8
		l2.9,0c1.3,0,2-0.1,2.3-0.6c0.4-0.5,0.4-1.5,0.4-2.1L13.3,7.7z"/>
	<path d="M35.6,30.4l0.1-13.7l-5.5-0.1l-0.1,13.7l-6-0.1l0.3-29.9l6,0.1l-0.1,11.7l5.5,0.1l0.1-11.7l6,0.1l-0.3,29.9L35.6,30.4z"/>
	<path d="M63.7,29.3c-2,1.6-4.6,1.9-7.1,1.9c-2.4,0-4.9-0.3-6.8-1.8c-1-0.7-1.4-1.5-1.6-1.9c-0.5-1.1-0.7-2.3-0.7-3.4l0.2-16.8
		c0-0.6-0.1-3.6,2.1-5.4C51,0.9,53.3,0,56.9,0c4.7,0,7.2,1.8,8.2,3.6c0.5,1,0.7,1.9,0.7,4l-0.2,16.7C65.7,26.2,65.3,27.9,63.7,29.3z
		 M59.7,7.9c0-0.2,0.2-1.5-0.3-2.4c-0.3-0.6-1-1.3-2.5-1.3c-0.3,0-1.2,0-2,0.5c-1.4,0.8-1.2,2.1-1.2,3.4l-0.1,15.1
		c0,0.9-0.1,2,0.5,2.8c0.7,0.9,2.2,0.9,2.5,0.9s1.2,0,1.9-0.5c1.1-0.7,1.1-1.9,1.1-3L59.7,7.9z"/>
	<path d="M71.4,30.7l0.3-29.9l15.9,0.2l0,4.5l-9.8-0.1l-0.1,7l9.3,0.1l0,4.5l-9.3-0.1l-0.1,9.2l10.3,0.1l0,4.6L71.4,30.7z"/>
	<path d="M110.2,26c-0.1,0.7-0.3,3.3-2.9,4.4c-1.4,0.6-3.1,0.6-4.7,0.5l-10.4-0.1L92.5,1l10.2,0.1c2,0,3.8,0,5.4,1.2
		c1.8,1.3,1.9,3.1,1.9,5l0,2.7c0,0.1,0,1.3-0.2,2.1c-0.6,2.5-2.7,2.7-3.6,2.9c1.9,0.4,2.6,0.8,3.2,1.5c1,1.2,0.9,2.6,0.9,4l0,4.2
		C110.2,25.1,110.2,25.6,110.2,26z M104.3,20.2c0-0.9,0-1.2-0.2-1.7c-0.5-1.2-1.9-1.3-3.1-1.3l-2.6,0l-0.1,9.5l2.6,0
		c0.5,0,1.1,0,1.5-0.1c1.3-0.2,1.9-0.9,1.9-2.9L104.3,20.2z M104,8.1c0-0.7,0-0.9-0.1-1.3c-0.4-1.4-1.7-1.5-3-1.5l-2.4,0l-0.1,7.5
		l2.2,0c0.8,0,1.3,0,1.6-0.1c1.2-0.2,1.7-0.8,1.7-2.7L104,8.1z"/>
	<path d="M132.1,29.3c-2.3,2.7-6.8,2.5-7.6,2.5c-2.4,0-4.9-0.5-6.7-2.2c-0.3-0.3-1-1-1.4-2c-0.5-1.1-0.6-2.3-0.6-3.3l0.2-23.1l6,0.1
		L122,23.5c0,0.8,0,1.6,0.3,2.3c0.6,1.2,2.1,1.3,2.5,1.3c0.3,0,1.1,0,1.8-0.4c1.2-0.7,1-2.1,1.1-3.2l0.2-22.2l6.1,0.1l-0.2,23.2
		C133.7,26.3,133.5,27.8,132.1,29.3z"/>
	<path d="M156.7,27.6c-0.8,2.4-3,4.5-8.5,4.5c-2.3,0-4.8-0.3-6.7-1.8c-1.1-0.8-1.5-1.6-1.7-2.1c-0.4-0.9-0.6-1.4-0.6-3.1l0-4.4
		l6,0.1l0,3.5c0,1.1-0.1,2.4,1,3.1c0.4,0.2,0.9,0.4,1.9,0.4c1.1,0,1.7-0.2,2.1-0.5c0.9-0.6,0.9-1.9,0.9-4c0-0.4,0.1-1.7-0.6-2.8
		c-0.5-0.6-1.2-1-1.4-1.2l-5.7-3.6c-1.2-0.8-1.9-1.2-2.7-2.5c-0.7-1.1-1.1-2.2-1.1-4.8c0-0.4,0-2.5,0.8-4.1c1.9-3.6,7.5-3.6,8.2-3.6
		c1,0,6.2,0.1,7.9,4c0.3,0.8,0.5,1.1,0.5,2.5l0,3l-6-0.1l0-3.1c0-0.9-0.3-2.2-2.7-2.2c-1.4,0-2.7,0.4-2.7,2.9c0,0.1-0.1,1.9,0.6,2.9
		c0.2,0.3,0.6,0.6,1.2,1l5.8,3.7c0.4,0.3,1.7,1.2,2.7,2.4c1.4,1.8,1.3,3.1,1.2,5.2C157,25.5,157,26.4,156.7,27.6z"/>
	<path d="M17.6,57.2c-1,1.1-2.4,1.5-5.4,1.4l-5.1,0L7,71.1L0.9,71l0.3-29.9l12.2,0.1c0.2,0,1,0,1.6,0.1c1.9,0.4,2.9,1.6,3.2,2.1
		c0.7,1.3,0.7,3.2,0.7,4.5l0,3.9C18.8,54.8,18.6,56.1,17.6,57.2z M12.9,48.7c0-0.8,0.2-1.7-0.4-2.4c-0.7-0.8-2-0.7-2.2-0.7l-3,0
		l-0.1,8.8l2.9,0c1.3,0,2-0.1,2.3-0.6c0.4-0.5,0.4-1.5,0.4-2.1L12.9,48.7z"/>
	<path d="M35.1,71.4l-0.7-4.9l-5.6-0.1l-0.9,4.9l-6-0.1l6.6-29.9l6.9,0.1l5.8,30L35.1,71.4z M31.9,49l-2.3,12.8l4.2,0L31.9,49z"/>
	<path d="M45.4,71.5l0.3-29.9l6,0.1L51.5,67l8.9,0.1l0,4.5L45.4,71.5z"/>
	<path d="M75.7,71.7l-0.7-4.9l-5.6-0.1l-0.9,4.9l-6-0.1L69,41.8l6.9,0.1l5.8,30L75.7,71.7z M72.4,49.4l-2.3,12.8l4.2,0L72.4,49.4z"
		/>
	<path d="M103.1,68.1c-0.8,2.4-3,4.5-8.5,4.5c-2.3,0-4.8-0.3-6.7-1.8c-1.1-0.8-1.5-1.6-1.7-2.1c-0.4-0.9-0.6-1.4-0.6-3.1l0-4.4
		l6,0.1l0,3.5c0,1.1-0.1,2.4,1,3.1c0.4,0.2,0.9,0.4,1.9,0.4c1.1,0,1.7-0.2,2.1-0.5c0.9-0.6,0.9-1.9,0.9-4c0-0.4,0.1-1.7-0.6-2.8
		c-0.5-0.6-1.2-1-1.4-1.2l-5.7-3.6c-1.2-0.8-1.9-1.2-2.7-2.5c-0.7-1.1-1.1-2.2-1.1-4.8c0-0.4,0-2.5,0.8-4.1c1.9-3.6,7.5-3.6,8.2-3.6
		c1,0,6.2,0.1,7.9,4c0.3,0.8,0.5,1.1,0.5,2.5l0,3l-6-0.1l0-3.1c0-0.9-0.4-2.2-2.7-2.2c-1.4,0-2.7,0.4-2.7,2.9c0,0.1-0.1,1.9,0.6,2.9
		c0.2,0.3,0.6,0.6,1.2,1l5.8,3.7c0.4,0.3,1.7,1.2,2.7,2.4c1.4,1.8,1.3,3.1,1.2,5.2C103.4,66,103.4,66.9,103.1,68.1z"/>
	<path d="M118.8,46.6l-0.2,25.6l-6.1-0.1l0.2-25.6l-6-0.1l0-4.3l18.2,0.2l0,4.3L118.8,46.6z"/>
</g>
<g>
	<path d="M11.7,142.5c-0.1-0.1-0.1-0.1-0.1-0.3c0-0.2,0.1-0.3,0.3-0.3c0.1,0,0.2,0,0.2,0.1c0.5,0.5,1.1,0.7,1.8,0.7
		c0.8,0,1.2-0.4,1.2-1l0,0c0-0.5-0.3-0.9-1.5-1.1c-1.3-0.3-1.9-0.7-1.9-1.7l0,0c0-0.9,0.8-1.6,1.8-1.6c0.7,0,1.3,0.2,1.8,0.6
		c0.1,0.1,0.1,0.1,0.1,0.3c0,0.2-0.1,0.3-0.3,0.3c-0.1,0-0.1,0-0.2-0.1c-0.5-0.4-0.9-0.5-1.4-0.5c-0.7,0-1.2,0.4-1.2,0.9l0,0
		c0,0.6,0.3,0.9,1.5,1.1c1.2,0.3,1.8,0.8,1.8,1.7l0,0c0,1-0.8,1.7-1.9,1.7C13,143.3,12.3,143,11.7,142.5z"/>
	<path d="M16.8,140.3L16.8,140.3c0-1.6,1.2-3.1,2.9-3c1.7,0,2.8,1.4,2.8,3l0,0c0,1.6-1.2,3-2.9,3C17.9,143.3,16.8,141.9,16.8,140.3z
		 M21.8,140.3L21.8,140.3c0-1.4-0.9-2.4-2.2-2.4c-1.3,0-2.2,1.1-2.2,2.4l0,0c0,1.3,0.9,2.4,2.2,2.4
		C20.9,142.7,21.8,141.6,21.8,140.3z"/>
	<path d="M23.9,137.6c0-0.2,0.1-0.3,0.3-0.3l0.1,0c0.1,0,0.2,0.1,0.3,0.2L28,142l0-4.4c0-0.2,0.1-0.3,0.3-0.3c0.2,0,0.3,0.2,0.3,0.3
		l0,5.3c0,0.2-0.1,0.3-0.3,0.3l0,0c-0.1,0-0.2-0.1-0.3-0.2l-3.5-4.7l0,4.5c0,0.2-0.1,0.3-0.3,0.3c-0.2,0-0.3-0.2-0.3-0.3L23.9,137.6
		z"/>
	<path d="M30.2,137.6c0-0.2,0.1-0.3,0.3-0.3l0.1,0c0.1,0,0.2,0.1,0.3,0.2l3.4,4.6l0-4.4c0-0.2,0.1-0.3,0.3-0.3
		c0.2,0,0.3,0.2,0.3,0.3l0,5.3c0,0.2-0.1,0.3-0.3,0.3l0,0c-0.1,0-0.2-0.1-0.3-0.2l-3.5-4.7l0,4.5c0,0.2-0.1,0.3-0.3,0.3
		c-0.2,0-0.3-0.2-0.3-0.3L30.2,137.6z"/>
	<path d="M38,137.9l-1.6,0c-0.2,0-0.3-0.1-0.3-0.3c0-0.2,0.1-0.3,0.3-0.3l3.9,0c0.2,0,0.3,0.1,0.3,0.3c0,0.2-0.1,0.3-0.3,0.3l-1.6,0
		l0,5c0,0.2-0.1,0.3-0.3,0.3c-0.2,0-0.3-0.2-0.3-0.3L38,137.9z"/>
	<path d="M40.7,142.8l2.3-5.2c0.1-0.2,0.2-0.3,0.4-0.3l0,0c0.2,0,0.3,0.1,0.4,0.3l2.3,5.2c0,0.1,0,0.1,0,0.2c0,0.2-0.1,0.3-0.3,0.3
		c-0.2,0-0.3-0.1-0.3-0.2l-0.6-1.4l-3.1,0l-0.6,1.4c-0.1,0.1-0.2,0.2-0.3,0.2c-0.2,0-0.3-0.1-0.3-0.3
		C40.7,142.9,40.7,142.8,40.7,142.8z M44.7,141.1l-1.3-3l-1.3,3L44.7,141.1z"/>
	<path d="M46.9,140.3L46.9,140.3c0-1.6,1.1-3.1,2.8-3.1c0.8,0,1.4,0.2,1.9,0.6c0.1,0.1,0.1,0.2,0.1,0.3c0,0.2-0.1,0.3-0.3,0.3
		c-0.1,0-0.1,0-0.2-0.1c-0.4-0.3-0.8-0.5-1.5-0.5c-1.2,0-2.1,1.1-2.1,2.4l0,0c0,1.4,0.8,2.4,2.2,2.4c0.6,0,1.2-0.3,1.6-0.6l0-1.5
		l-1.5,0c-0.2,0-0.3-0.1-0.3-0.3c0-0.2,0.1-0.3,0.3-0.3l1.8,0c0.2,0,0.3,0.2,0.3,0.3l0,1.8c0,0.2-0.1,0.3-0.2,0.4
		c-0.5,0.4-1.2,0.7-2,0.7C47.9,143.3,46.9,142,46.9,140.3z"/>
	<path d="M53.2,142.5c-0.1-0.1-0.1-0.1-0.1-0.3c0-0.2,0.1-0.3,0.3-0.3c0.1,0,0.2,0,0.2,0.1c0.5,0.5,1.1,0.7,1.8,0.7
		c0.8,0,1.2-0.4,1.2-1l0,0c0-0.5-0.3-0.9-1.5-1.1c-1.3-0.3-1.9-0.7-1.9-1.7l0,0c0-0.9,0.8-1.6,1.8-1.6c0.7,0,1.3,0.2,1.8,0.6
		c0.1,0.1,0.1,0.1,0.1,0.3c0,0.2-0.1,0.3-0.3,0.3c-0.1,0-0.1,0-0.2-0.1c-0.5-0.4-0.9-0.5-1.4-0.5c-0.7,0-1.2,0.4-1.2,0.9l0,0
		c0,0.6,0.3,0.9,1.5,1.1c1.2,0.3,1.8,0.8,1.8,1.7l0,0c0,1-0.8,1.7-1.9,1.7C54.5,143.3,53.8,143,53.2,142.5z"/>
	<path d="M64.6,136l-1.1,0.4c-0.1,0-0.1,0-0.2,0c-0.2,0-0.4-0.2-0.4-0.4c0-0.2,0.1-0.3,0.3-0.4l1.3-0.5c0.2-0.1,0.3-0.1,0.5-0.1l0,0
		c0.3,0,0.4,0.2,0.4,0.5l0,7.3c0,0.3-0.2,0.5-0.4,0.5c-0.2,0-0.4-0.2-0.4-0.5L64.6,136z"/>
	<path d="M70.1,141.9l-2.8,0c-0.2,0-0.3-0.1-0.3-0.3c0-0.1,0-0.2,0.1-0.3l2.9-3.7c0.1-0.1,0.2-0.2,0.4-0.2c0.2,0,0.3,0.2,0.3,0.3
		l0,3.7l0.6,0c0.1,0,0.3,0.1,0.3,0.3c0,0.2-0.1,0.3-0.3,0.3l-0.6,0l0,1.1c0,0.2-0.1,0.3-0.3,0.3c-0.2,0-0.3-0.1-0.3-0.3L70.1,141.9z
		 M70.1,141.3l0-3l-2.3,3L70.1,141.3z"/>
	<path d="M72.6,142.6c-0.1-0.1-0.1-0.2-0.1-0.3c0-0.2,0.1-0.3,0.3-0.3c0.1,0,0.2,0,0.2,0.1c0.4,0.4,0.9,0.7,1.4,0.7
		c0.8,0,1.3-0.5,1.3-1.3l0,0c0-0.7-0.6-1.2-1.4-1.2c-0.7,0-1,0.3-1.1,0.3c-0.1,0-0.2-0.1-0.3-0.1c-0.1-0.1-0.1-0.2-0.1-0.4l0.1-2.3
		c0-0.2,0.1-0.3,0.3-0.3l2.7,0c0.2,0,0.3,0.1,0.3,0.3c0,0.2-0.1,0.3-0.3,0.3l-2.4,0l-0.1,1.9c0.3-0.2,0.6-0.3,1.1-0.3
		c1.1,0,1.9,0.7,1.9,1.8l0,0c0,1.1-0.8,1.9-2,1.9C73.7,143.4,73.1,143,72.6,142.6z"/>
	<path d="M86.6,141.4l-3.8,0c-0.3,0-0.4-0.2-0.4-0.4c0-0.2,0.1-0.3,0.2-0.4l4-5.1c0.1-0.2,0.3-0.3,0.5-0.3c0.3,0,0.5,0.2,0.5,0.5
		l0,5.1l0.9,0c0.2,0,0.4,0.2,0.4,0.4c0,0.2-0.2,0.4-0.4,0.4l-0.9,0l0,1.5c0,0.2-0.2,0.4-0.4,0.4c-0.2,0-0.4-0.2-0.4-0.4L86.6,141.4z
		 M86.6,140.6l0-4.2l-3.2,4.2L86.6,140.6z"/>
	<path d="M90.3,140.4L90.3,140.4c0-1.7,0.9-3.1,2.4-3.1c1.4,0,2.3,1.4,2.3,3l0,0c0,1.6-0.9,3-2.4,3C91.2,143.4,90.3,142,90.3,140.4z
		 M94.4,140.4L94.4,140.4c0-1.3-0.7-2.5-1.7-2.5c-1,0-1.7,1.1-1.7,2.4l0,0c0,1.3,0.7,2.4,1.7,2.4C93.7,142.8,94.3,141.7,94.4,140.4z
		"/>
	<path d="M96.4,140.4L96.4,140.4c0-1.7,0.9-3.1,2.4-3.1c1.4,0,2.3,1.4,2.3,3l0,0c0,1.6-0.9,3-2.4,3C97.3,143.4,96.4,142,96.4,140.4z
		 M100.5,140.4L100.5,140.4c0-1.3-0.7-2.5-1.7-2.5c-1,0-1.7,1.1-1.7,2.4l0,0c0,1.3,0.7,2.4,1.7,2.4
		C99.8,142.8,100.5,141.7,100.5,140.4z"/>
	<path d="M106.5,142.6c-0.6-0.6-1-1.5-1-3.1l0,0c0-2.5,1.2-4.4,3.2-4.4c0.8,0,1.4,0.3,2,0.7c0.1,0.1,0.2,0.2,0.2,0.4
		c0,0.2-0.2,0.4-0.4,0.4c-0.1,0-0.2,0-0.2-0.1c-0.5-0.4-1-0.6-1.6-0.6c-1.4,0-2.3,1.5-2.3,3.6c0.4-0.6,1.1-1.2,2.2-1.2
		c1.4,0,2.7,1,2.7,2.5l0,0c0,1.6-1.2,2.7-2.8,2.7C107.7,143.5,107,143.1,106.5,142.6z M110.4,140.8L110.4,140.8c0-1-0.8-1.8-1.9-1.8
		c-1.2,0-1.9,0.9-1.9,1.8l0,0c0,1,0.8,1.8,1.9,1.8C109.7,142.6,110.4,141.8,110.4,140.8z"/>
	<path d="M114,138.1l-0.8,0.3c0,0-0.1,0-0.1,0c-0.1,0-0.3-0.1-0.3-0.3c0-0.1,0.1-0.2,0.2-0.3l0.9-0.3c0.1,0,0.2-0.1,0.3-0.1l0,0
		c0.2,0,0.3,0.2,0.3,0.3l0,5.3c0,0.2-0.1,0.3-0.3,0.3c-0.2,0-0.3-0.2-0.3-0.3L114,138.1z"/>
	<path d="M116.5,142.7c-0.1-0.1-0.1-0.2-0.1-0.3c0-0.2,0.1-0.3,0.3-0.3c0.1,0,0.2,0,0.2,0.1c0.4,0.4,0.9,0.7,1.4,0.7
		c0.8,0,1.3-0.5,1.3-1.3l0,0c0-0.7-0.6-1.2-1.4-1.2c-0.7,0-1,0.3-1.1,0.3c-0.1,0-0.2-0.1-0.3-0.1c-0.1-0.1-0.1-0.2-0.1-0.4l0.1-2.3
		c0-0.2,0.1-0.3,0.3-0.3l2.7,0c0.2,0,0.3,0.1,0.3,0.3c0,0.2-0.1,0.3-0.3,0.3l-2.4,0l-0.1,1.9c0.3-0.2,0.6-0.3,1.1-0.3
		c1.1,0,1.9,0.7,1.9,1.8l0,0c0,1.1-0.8,1.9-2,1.9C117.6,143.4,116.9,143.1,116.5,142.7z"/>
	<path d="M127.4,141.2L127.4,141.2c0-1,0.7-1.7,1.6-2c-0.7-0.3-1.3-0.9-1.3-1.9l0,0c0-1.2,1.2-2.1,2.6-2.1c1.4,0,2.6,0.9,2.6,2.1
		l0,0c0,0.9-0.6,1.5-1.3,1.9c0.9,0.4,1.6,1,1.6,2l0,0c0,1.4-1.3,2.3-2.9,2.3C128.6,143.5,127.4,142.5,127.4,141.2z M132.3,141.2
		L132.3,141.2c0-0.9-0.9-1.6-2-1.6c-1.1,0-2,0.6-2,1.5l0,0c0,0.8,0.7,1.5,2,1.5C131.5,142.7,132.3,142,132.3,141.2z M132,137.4
		L132,137.4c0-0.8-0.8-1.4-1.8-1.4c-1,0-1.8,0.6-1.8,1.4l0,0c0,0.9,0.8,1.5,1.8,1.5C131.3,138.8,132,138.2,132,137.4z"/>
	<path d="M134.9,142.6c0-0.1-0.1-0.1-0.1-0.2c0-0.2,0.1-0.3,0.3-0.3c0.1,0,0.2,0.1,0.2,0.1c0.4,0.5,0.9,0.7,1.5,0.7
		c0.7,0,1.2-0.5,1.2-1.1l0,0c0-0.7-0.6-1.1-1.6-1.1l-0.2,0c-0.2,0-0.3-0.1-0.3-0.3c0-0.1,0-0.2,0.1-0.3l1.6-1.9l-2.5,0
		c-0.2,0-0.3-0.1-0.3-0.3c0-0.2,0.1-0.3,0.3-0.3l3,0c0.2,0,0.3,0.1,0.3,0.3c0,0.1-0.1,0.2-0.2,0.3l-1.6,1.9c1,0.1,1.8,0.6,1.8,1.7
		l0,0c0,1-0.8,1.8-1.9,1.8C136,143.5,135.3,143.1,134.9,142.6z"/>
	<path d="M140.1,140.4L140.1,140.4c0-1.7,0.9-3.1,2.4-3.1c1.4,0,2.3,1.4,2.3,3l0,0c0,1.6-0.9,3-2.4,3
		C141,143.5,140.1,142.1,140.1,140.4z M144.2,140.5L144.2,140.5c0-1.3-0.7-2.5-1.7-2.5c-1,0-1.7,1.1-1.7,2.4l0,0
		c0,1.3,0.7,2.4,1.7,2.4C143.5,142.9,144.2,141.7,144.2,140.5z"/>
</g>
<g>
	<path d="M87.3,96.2l-4.1,0c-0.3,0-0.5-0.2-0.5-0.5c0-0.2,0.1-0.3,0.2-0.5l4.4-5.6c0.1-0.2,0.3-0.3,0.5-0.3c0.3,0,0.5,0.2,0.5,0.5
		l-0.1,5.5l0.9,0c0.2,0,0.4,0.2,0.4,0.4c0,0.2-0.2,0.4-0.4,0.4l-0.9,0l0,1.7c0,0.3-0.2,0.5-0.5,0.5c-0.2,0-0.4-0.2-0.4-0.5
		L87.3,96.2z M87.4,95.4l0-4.6l-3.5,4.5L87.4,95.4z"/>
	<path d="M90.8,95L90.8,95c0-1.9,1.1-3.5,2.7-3.5c1.6,0,2.6,1.6,2.6,3.5l0,0c0,1.9-1.1,3.5-2.7,3.5C91.8,98.5,90.8,96.9,90.8,95z
		 M95.4,95.1L95.4,95.1c0-1.5-0.7-2.8-1.9-2.8c-1.2,0-1.9,1.3-1.9,2.8l0,0c0,1.5,0.7,2.8,1.9,2.8C94.6,97.8,95.4,96.6,95.4,95.1z"/>
	<path d="M97.3,95.1L97.3,95.1c0-1.9,1.1-3.5,2.7-3.5c1.6,0,2.6,1.6,2.6,3.5l0,0c0,1.9-1.1,3.5-2.7,3.5C98.3,98.6,97.3,97,97.3,95.1
		z M101.9,95.1L101.9,95.1c0-1.5-0.7-2.8-1.9-2.8c-1.2,0-1.9,1.3-1.9,2.8l0,0c0,1.5,0.7,2.8,1.9,2.8
		C101.1,97.9,101.9,96.6,101.9,95.1z"/>
	<path d="M107.6,97.9c-0.6-0.7-1-1.5-0.9-3.2l0,0c0-2.5,1.2-4.5,3.3-4.5c0.8,0,1.4,0.3,2,0.8c0.1,0.1,0.2,0.2,0.2,0.4
		c0,0.2-0.2,0.4-0.4,0.4c-0.1,0-0.2,0-0.2-0.1c-0.5-0.4-1-0.7-1.6-0.7c-1.4,0-2.3,1.5-2.3,3.6c0.4-0.7,1.1-1.3,2.2-1.2
		c1.4,0,2.7,1,2.6,2.6l0,0c0,1.6-1.2,2.7-2.8,2.7C108.7,98.7,108.1,98.4,107.6,97.9z M111.5,96L111.5,96c0-1-0.8-1.8-1.9-1.8
		c-1.2,0-1.9,0.9-1.9,1.8l0,0c0,1.1,0.8,1.9,1.9,1.9C110.7,97.9,111.5,97.1,111.5,96z"/>
	<path d="M114.8,92.6l-0.9,0.3c-0.1,0-0.1,0-0.2,0c-0.2,0-0.3-0.1-0.3-0.3c0-0.2,0.1-0.3,0.3-0.3l1-0.4c0.1,0,0.3-0.1,0.4-0.1l0,0
		c0.2,0,0.3,0.2,0.3,0.4l-0.1,6.1c0,0.2-0.2,0.4-0.4,0.4c-0.2,0-0.4-0.2-0.3-0.4L114.8,92.6z"/>
	<path d="M117.1,97.9c-0.1-0.1-0.1-0.2-0.1-0.3c0-0.2,0.2-0.4,0.3-0.4c0.1,0,0.2,0,0.2,0.1c0.5,0.5,1,0.8,1.6,0.8
		c0.9,0,1.5-0.6,1.5-1.5l0,0c0-0.8-0.6-1.4-1.6-1.4c-0.7,0-1.1,0.3-1.3,0.3c-0.1,0-0.2-0.1-0.4-0.1c-0.1-0.1-0.2-0.2-0.1-0.4
		l0.2-2.6c0-0.2,0.2-0.4,0.3-0.4l3,0c0.2,0,0.3,0.2,0.3,0.4c0,0.2-0.1,0.3-0.3,0.3l-2.7,0l-0.2,2.2c0.4-0.2,0.7-0.3,1.2-0.3
		c1.2,0,2.2,0.8,2.2,2.1l0,0c0,1.3-1,2.2-2.3,2.2C118.3,98.8,117.6,98.4,117.1,97.9z"/>
	<path d="M125.3,96.5L125.3,96.5c0-1,0.7-1.7,1.6-2c-0.7-0.4-1.3-1-1.3-1.9l0,0c0-1.3,1.2-2.2,2.7-2.2c1.4,0,2.6,0.9,2.6,2.2l0,0
		c0,1-0.6,1.5-1.3,1.9c0.9,0.4,1.6,1.1,1.6,2l0,0c0,1.4-1.3,2.3-2.9,2.3C126.5,98.9,125.3,97.9,125.3,96.5z M130.2,96.6L130.2,96.6
		c0-0.9-0.9-1.6-2-1.6c-1.1,0-2,0.6-2,1.6l0,0c0,0.8,0.7,1.6,2,1.6C129.4,98.1,130.2,97.4,130.2,96.6z M130,92.7L130,92.7
		c0-0.8-0.7-1.5-1.7-1.5c-1,0-1.8,0.6-1.8,1.4l0,0c0,0.9,0.8,1.5,1.8,1.5C129.2,94.2,130,93.6,130,92.7z"/>
	<path d="M132.3,97.9c-0.1-0.1-0.1-0.2-0.1-0.3c0-0.2,0.2-0.4,0.4-0.4c0.1,0,0.2,0.1,0.3,0.1c0.5,0.6,1,0.9,1.7,0.9
		c0.8,0,1.4-0.5,1.4-1.3l0,0c0-0.8-0.7-1.3-1.8-1.3l-0.2,0c-0.2,0-0.3-0.1-0.3-0.3c0-0.1,0-0.2,0.1-0.3l1.9-2.2l-2.8,0
		c-0.2,0-0.3-0.1-0.3-0.3c0-0.2,0.2-0.3,0.3-0.3l3.4,0c0.2,0,0.3,0.1,0.3,0.3c0,0.2-0.1,0.3-0.2,0.4l-1.9,2.2
		c1.1,0.1,2.1,0.7,2.1,1.9l0,0c0,1.2-1,2-2.1,2C133.5,99,132.8,98.5,132.3,97.9z"/>
	<path d="M137.9,95.5L137.9,95.5c0-1.9,1.1-3.5,2.7-3.5c1.6,0,2.6,1.6,2.6,3.5l0,0c0,1.9-1.1,3.5-2.7,3.5
		C138.8,99,137.8,97.4,137.9,95.5z M142.4,95.6L142.4,95.6c0-1.5-0.7-2.8-1.9-2.8c-1.2,0-1.9,1.3-1.9,2.8l0,0c0,1.5,0.7,2.8,1.9,2.8
		C141.7,98.4,142.4,97.1,142.4,95.6z"/>
</g>
</svg>
