<?xml version="1.0" encoding="utf-8"?>
<!-- Generator: Adobe Illustrator 21.0.0, SVG Export Plug-In . SVG Version: 6.00 Build 0)  -->
<svg version="1.1" id="Layer_1" xmlns="http://www.w3.org/2000/svg" xmlns:xlink="http://www.w3.org/1999/xlink" x="0px" y="0px"
	 viewBox="0 0 716.2 196.5" style="enable-background:new 0 0 716.2 196.5;" xml:space="preserve">
<style type="text/css">
	.st0{fill:#FFFFFF;}
</style>
<path d="M670.7,193.6c0-4.6,0-8.8,0-13.6c8.8-0.1,17.1-0.3,25.4-0.3c3.1,0,6.3-0.2,6.1-4.3c-0.2-3.9-3.4-4.1-6.4-4.1
	c-4.3,0-8.5,0.1-12.8-0.2c-12.1-0.7-19.2-12.5-14.1-23.6c3.3-7.2,8.1-11.9,16.9-11.3c8.1,0.5,16.8,0.1,24.6,0.1
	c0.4,12.3,0.4,12.3,0.4,12.3s-4.6,0.8-10.3,0.8c-4.8,0-9.6-0.1-14.3,0c-3,0.1-5.6,1.1-5.5,4.6c0,3.5,2.5,4.5,5.6,4.6
	c4.6,0.1,9.2,0.1,13.8,0.3c11.1,0.5,16.2,5.7,16.2,16.2c-0.1,9.9-7.5,18.2-16.9,18.4C690,193.8,680.8,193.6,670.7,193.6z"/>
<path d="M619.3,194.5c0-4.6,0-8.8,0-13.6c8.8-0.1,17.1-0.3,25.4-0.3c3.1,0,6.3-0.2,6.1-4.3c-0.2-3.9-3.4-4.1-6.4-4.1
	c-4.3,0-8.5,0.1-12.8-0.2c-12.1-0.7-19.2-12.5-14.1-23.6c3.3-7.2,8.1-11.9,16.9-11.3c8.1,0.5,16.8,0.1,24.6,0.1
	c0.4,12.3,0.4,12.3,0.4,12.3s-4.6,0.8-10.3,0.8c-4.8,0-9.6-0.1-14.3,0c-3,0.1-5.6,1.1-5.5,4.6c0,3.5,2.5,4.5,5.6,4.6
	c4.6,0.1,9.2,0.1,13.8,0.3c11.1,0.5,16.2,5.7,16.2,16.2c-0.1,9.9-7.5,18.2-16.9,18.4C638.6,194.7,629.4,194.6,619.3,194.5z"/>
<path d="M547.3,196.3l-9.8-21l-4.7,0l0,21l-16,0l0-59.7l27.3,0c1.4,0,2.9,0.1,4.4,0.3c2.2,0.3,8.7,0.9,12.3,8.1
	c0.9,1.8,2.4,5.5,2.4,10.7c0,5.7-1.9,10.8-6,14c-1.1,0.8-2,1.4-4.4,2.4l12.4,24.1L547.3,196.3z M546.3,151.8
	c-0.5-0.8-1.2-1.4-1.5-1.5c-1.6-1.1-3.5-1.2-5.4-1.2l-6.5,0l0,13.9l6.7,0c2.9,0,6.2-0.4,7.4-4.3c0.1-0.3,0.4-1.4,0.4-2.6
	C547.3,154.6,546.9,153,546.3,151.8z"/>
<path d="M137,195.6l-9.8-21l-4.7,0l0,21l-16,0l0-59.7l27.3,0c1.4,0,2.9,0.1,4.4,0.3c2.2,0.3,8.7,0.9,12.3,8.1
	c0.9,1.8,2.4,5.5,2.4,10.7c0,5.7-1.9,10.8-6,14c-1.1,0.8-2,1.4-4.4,2.4l12.4,24.1L137,195.6z M136,151.2c-0.5-0.8-1.2-1.4-1.5-1.5
	c-1.6-1.1-3.5-1.2-5.4-1.2l-6.5,0l0,13.9l6.7,0c2.9,0,6.2-0.4,7.4-4.3c0.1-0.3,0.4-1.4,0.4-2.6C137,154,136.6,152.4,136,151.2z"/>
<path d="M160.5,195.8l0-59.7l16,0l0,59.7L160.5,195.8z"/>
<path d="M184.3,195.8l0-59.7l40,0l0,13.1l-24,0l0,8.9l22.4,0l0,12.9l-22.5,0l0,11.8l26.2,0l0,12.9L184.3,195.8z"/>
<path d="M263.5,195.9l-16.8-34.7l0.1,34.6l-14.9,0l0-59.7l17,0l17.1,34.7l-0.2-34.7l15,0l0,59.7L263.5,195.9z"/>
<path d="M314.2,150.9l0,45l-16,0l0-45l-12.9,0l0-14.7l41.6,0l0,14.7L314.2,150.9z"/>
<path d="M357,195.9l0-59.7l40,0l0,13.1l-24,0l0,8.9l22.4,0l0,12.9l-22.5,0l0,11.8l26.2,0l0,12.9L357,195.9z"/>
<path d="M569.1,195.6l0-59.7l40,0l0,13.1l-24,0l0,8.9l22.4,0l0,12.9l-22.5,0l0,11.8l26.2,0l0,12.9L569.1,195.6z"/>
<path d="M442.3,196l-11-21.5L420.1,196l-18.7,0l19.6-32l-16.4-27.6l18.7,0l8,16.4l8.2-16.4l18.2,0l-16,27.5l19.4,32.1L442.3,196z"/>
<path d="M512,164.4c-0.6,2-3.2,8.3-8.8,10.7c-3,1.4-6,1.5-9.2,1.5l-12.3,0l0,19.4l-16,0l0-59.7l28.8,0c4.9,0,9.5,0.4,13.4,4.5
	c5.1,5.2,5.2,12.3,5.2,15C513.2,157,513.2,160.8,512,164.4z M496.6,152.3c-1.6-3.4-4.9-3.4-5.8-3.4l-9,0l0,15.2l9.1,0
	c0.2,0,1.8-0.1,2.9-0.5c1.4-0.6,3.7-2.4,3.7-7.2C497.4,155.7,497.4,154,496.6,152.3z"/>
<g>
	<path d="M95,171.7c-1.5,2.8-3.8,6.8-8.6,11.4c-13.6,13-30.8,13.4-35.8,13.4c-12.4,0-22.6-4.1-26.7-6.3c-1.8-0.9-5.1-2.8-8.8-6.3
		c-4.1-3.9-6.4-7.4-7.7-9.4c-2.6-4.2-7.4-14-7.4-28.7c0-4,0.5-14.7,5.6-24.8c5.8-11.4,20-25.9,46-25.7c15.9,0,33.7,6.1,43.4,23.6
		c5.8,10.8,6.3,20.8,6.3,25.7C101.2,148.9,100.7,160.9,95,171.7z M73.2,130.5c-3.1-6.1-10.2-14-23.8-13.1c-9.3,0.5-15,4.9-17.8,8.3
		c-2.5,2.9-6.7,9.5-6.7,20.8c0,11.6,5.7,21.5,14.4,25.6c2.2,0.9,5.8,2,11.5,2c5.3,0,8.9-1.3,11.1-2.2c13.1-5.7,14.5-21.1,14.5-26.6
		C76.4,142.6,76.1,136.4,73.2,130.5z"/>
</g>
<g>
	<path d="M62.2,21L62.1,3.8l3.2,0l0.1,13.7l7.3-0.1l0,3.4L62.2,21z"/>
	<path d="M75.3,20.9L75.2,3.7l3.2,0l0.1,17.2L75.3,20.9z"/>
	<path d="M82.3,20.8L82.1,3.6l3.2,0l0.1,13.7l7.3-0.1l0,3.4L82.3,20.8z"/>
	<path d="M107.3,20.6l-5.7,0l-0.1-17.2l5.7,0c4.6,0,7.8,3.6,7.8,8.5l0,0C115,16.8,111.8,20.6,107.3,20.6z M111.6,12
		c0-3-1.8-5.2-4.4-5.1l-2.5,0l0.1,10.4l2.5,0C109.9,17.2,111.6,15.1,111.6,12L111.6,12z"/>
	<path d="M127.7,20.4l-1.4-3.8l-6.2,0l-1.3,3.9l-3.3,0l6.1-17.4l3,0l6.4,17.3L127.7,20.4z M123.2,7.7l-1.9,5.6l3.9,0L123.2,7.7z"/>
	<path d="M139.5,20.6c-4.5,0-7.7-3.7-7.7-8.8l0,0c0-4.9,3.2-8.9,7.6-8.9c2.6,0,4.2,0.8,5.7,2.3l-2,2.9c-1.1-1.1-2.1-1.7-3.8-1.7
		c-2.3,0-4.2,2.5-4.1,5.4l0,0c0,3.1,1.9,5.4,4.5,5.4c1.2,0,2.2-0.4,3-1.1l0-2.5l-3.2,0l0-3.3l6.3-0.1l0.1,7.5
		C144.2,19.4,142.2,20.6,139.5,20.6z"/>
	<path d="M156,20.5c-4.5,0-7.7-3.9-7.8-8.8l0,0c0-4.9,3.2-8.9,7.7-8.9c4.5,0,7.7,3.9,7.8,8.8l0,0C163.7,16.4,160.4,20.5,156,20.5z
		 M160.3,11.6c0-2.9-1.9-5.4-4.4-5.4c-2.6,0-4.3,2.4-4.3,5.4l0,0c0,2.9,1.9,5.4,4.4,5.4C158.5,17,160.3,14.6,160.3,11.6L160.3,11.6z
		"/>
	<path d="M173.2,20.2l-2.8,0l-6-17.3l3.5,0l3.9,12.1l3.7-12.1l3.4,0L173.2,20.2z"/>
	<path d="M181.4,20l-0.1-17.2l11-0.1l0,3.4l-7.8,0.1l0,3.5l6.9-0.1l0,3.4l-6.9,0.1l0,3.6l7.9-0.1l0,3.4L181.4,20z"/>
	<path d="M204.3,19.8l-3.2-5.5l-2.5,0l0,5.5l-3.2,0l-0.1-17.2l6.7-0.1c3.4,0,5.5,2.1,5.5,5.6l0,0c0,2.8-1.2,4.5-3.1,5.4l3.6,6.1
		L204.3,19.8z M204.3,8.5c0-1.6-1-2.4-2.5-2.4l-3.2,0l0,4.9l3.2,0C203.4,11,204.3,10,204.3,8.5L204.3,8.5z"/>
	<path d="M220,12.6l-0.1-10l1.1,0l0.1,9.9c0,4.1,1.9,6.4,5,6.3c3,0,4.8-2.1,4.8-6.3l-0.1-10l1.1,0l0.1,9.9c0,4.9-2.4,7.6-5.9,7.6
		C222.5,20,220.1,17.4,220,12.6z"/>
	<path d="M239,2.4l1,0l10.2,14.9l-0.1-15l1,0l0.1,17.2l-0.8,0L240.1,4.3l0.1,15.3l-1,0L239,2.4z"/>
	<path d="M258.5,2.2l4.8,0c4.6,0,7.8,3.6,7.8,8.5l0,0c0,4.8-3.1,8.6-7.7,8.7l-4.8,0L258.5,2.2z M263.5,18.2c4.1,0,6.6-3.3,6.5-7.4
		l0,0c0-4.1-2.6-7.4-6.7-7.4l-3.8,0l0.1,14.8L263.5,18.2z"/>
	<path d="M294.2,19.1l-0.1-6.9l-5.9,0l0.1,6.9l-3.2,0L284.9,2l3.2,0l0.1,6.8l5.9,0L294,1.9l3.2,0l0.1,17.2L294.2,19.1z"/>
	<path d="M302.1,19.1L302,1.9l11-0.1l0,3.4l-7.8,0.1l0,3.5l6.9-0.1l0,3.4l-6.9,0.1l0,3.6l7.9-0.1l0,3.4L302.1,19.1z"/>
	<path d="M317.4,18.9l-0.1-17.2l3.2,0l0.1,17.2L317.4,18.9z"/>
	<path d="M335.7,18.8l-7.1-10.9l0.1,10.9l-3.2,0l-0.1-17.2l3,0l6.9,10.5l-0.1-10.6l3.2,0l0.1,17.2L335.7,18.8z"/>
	<path d="M352,18.7l-3.2-5.5l-2.5,0l0,5.5l-3.2,0L343,1.5l6.7-0.1c3.4,0,5.5,2.1,5.5,5.6l0,0c0,2.8-1.2,4.5-3.1,5.4l3.6,6.1
		L352,18.7z M352,7.3c0-1.6-1-2.4-2.5-2.4l-3.2,0l0,4.9l3.2,0C351.1,9.8,352,8.8,352,7.3L352,7.3z"/>
	<path d="M359.6,18.6l-0.1-17.2l3.2,0l0.1,17.2L359.6,18.6z"/>
	<path d="M374.5,18.8c-4.3,0-7.5-3.8-7.5-8.8l0,0c0-4.9,3-8.9,7.5-8.9c2.7,0,4.4,1,5.8,2.6l-2,2.8c-1.1-1.2-2.3-1.9-3.7-1.9
		c-2.5,0-4.2,2.4-4.2,5.4l0,0c0,2.9,1.8,5.4,4.3,5.4c1.7,0,2.7-0.8,3.8-2l2.1,2.4C379,17.6,377.3,18.8,374.5,18.8z"/>
	<path d="M393.4,18.3l-0.1-6.9l-5.9,0l0.1,6.9l-3.2,0l-0.1-17.2l3.2,0l0.1,6.8l5.9,0l-0.1-6.8l3.2,0l0.1,17.2L393.4,18.3z"/>
	<path d="M415.8,18.4c-4.5,0-7.7-3.7-7.7-8.8l0,0c0-4.9,3.2-8.9,7.6-8.9c2.6,0,4.2,0.8,5.7,2.3l-2,2.9c-1.1-1.1-2.1-1.7-3.8-1.7
		c-2.3,0-4.2,2.5-4.1,5.4l0,0c0,3.1,1.9,5.4,4.4,5.4c1.2,0,2.2-0.4,3-1.1l0-2.5l-3.2,0l0-3.3l6.3,0l0.1,7.5
		C420.5,17.2,418.5,18.4,415.8,18.4z"/>
	<path d="M426.7,18.1l-0.1-17.2l11-0.1l0,3.4l-7.8,0.1l0,3.5l6.9-0.1l0,3.4l-6.9,0.1l0,3.6l7.9-0.1l0,3.4L426.7,18.1z"/>
	<path d="M449.4,18.2c-4.5,0-7.7-3.9-7.8-8.8l0,0c0-4.9,3.2-8.9,7.7-8.9c4.5,0,7.7,3.9,7.8,8.8l0,0
		C457.1,14.1,453.9,18.1,449.4,18.2z M453.7,9.3c0-2.9-1.9-5.4-4.4-5.4c-2.6,0-4.3,2.4-4.3,5.4l0,0c0,2.9,1.9,5.4,4.4,5.4
		C452,14.7,453.8,12.3,453.7,9.3L453.7,9.3z"/>
	<path d="M470.5,17.7l-3.2-5.5l-2.5,0l0,5.5l-3.2,0l-0.1-17.2l6.7-0.1c3.4,0,5.5,2.1,5.5,5.6l0,0c0,2.8-1.2,4.5-3.1,5.4l3.6,6.1
		L470.5,17.7z M470.5,6.4c0-1.6-1-2.4-2.5-2.4l-3.2,0l0,4.9l3.2,0C469.6,8.9,470.5,7.9,470.5,6.4L470.5,6.4z"/>
	<path d="M485.4,17.9c-4.5,0-7.7-3.7-7.7-8.8l0,0c0-4.9,3.2-8.9,7.6-8.9c2.6,0,4.2,0.8,5.7,2.3l-2,2.9c-1.1-1.1-2.1-1.7-3.8-1.7
		c-2.3,0-4.2,2.5-4.1,5.4l0,0c0,3.1,1.9,5.4,4.4,5.4c1.2,0,2.2-0.4,3-1.1l0-2.5l-3.2,0l0-3.3l6.3-0.1l0.1,7.5
		C490.1,16.6,488,17.9,485.4,17.9z"/>
	<path d="M496.3,17.5l-0.1-17.2l11-0.1l0,3.4l-7.8,0.1l0,3.5l6.9-0.1l0,3.4l-6.9,0.1l0,3.6l7.9-0.1l0,3.4L496.3,17.5z"/>
	<path d="M519.3,0.1l1.1,0l0.1,17.2l-1.1,0L519.3,0.1z"/>
	<path d="M525.6,0.1l1,0L536.8,15l-0.1-15l1,0l0.1,17.2l-0.8,0L526.7,2l0.1,15.3l-1,0L525.6,0.1z"/>
	<path d="M551.1,0.4c0.7,0,1.3,0.7,1.3,1.5l0,0.7c0,0.9-0.5,1.5-1.3,1.5c-0.8,0-1.3-0.6-1.3-1.5l0-0.7
		C549.8,1.1,550.3,0.4,551.1,0.4z M551.2,13.6c0.7,0,1.3,0.6,1.3,1.5l0,0.6c0,0.9-0.5,1.5-1.3,1.5c-0.8,0-1.3-0.7-1.3-1.5l0-0.6
		C549.9,14.2,550.4,13.6,551.2,13.6z"/>
</g>
<g>
	<path class="st0" d="M73.1,130.6c-3.1-6.1-10.2-14-23.8-13.1c-9.3,0.5-15,4.9-17.8,8.3c-2.5,2.9-6.7,9.5-6.7,20.8
		c0,11.6,5.7,21.5,14.4,25.6c2.2,0.9,5.8,2,11.5,2c5.3,0,8.9-1.3,11.1-2.2c13.1-5.7,14.5-21.1,14.5-26.6
		C76.3,142.7,76,136.5,73.1,130.6z"/>
</g>
</svg>
