<?xml version="1.0" encoding="utf-8"?>
<!-- Generator: Adobe Illustrator 21.0.0, SVG Export Plug-In . SVG Version: 6.00 Build 0)  -->
<svg version="1.1" xmlns="http://www.w3.org/2000/svg" xmlns:xlink="http://www.w3.org/1999/xlink" x="0px" y="0px"
	 viewBox="0 0 336.5 281.1" style="enable-background:new 0 0 336.5 281.1;" xml:space="preserve">
<style type="text/css">
	.st0{fill:#FFFFFF;}
	.st1{fill:none;}
	.st2{fill:none;stroke:#020000;stroke-miterlimit:10;}
</style>
<g id="Layer_1">
	<path class="st1" d="M661.3-215.7c-232.2,0-420.5,188.3-420.5,420.5c0,116.5,47.4,222,124,298.2l8.8-9.1l-8.8,9.1
		c76,75.6,180.8,122.3,296.5,122.3c232.2,0,420.5-188.3,420.5-420.5c0-114.7-46-218.8-120.5-294.6l-5.3,5.5l5.3-5.5
		C885-167.5,778.8-215.7,661.3-215.7z"/>
</g>
<g id="Layer_2">
	<g>
		<path d="M114.3,100.3c-0.6,0-0.9-0.1-1.1-0.4c-0.2-0.2-0.1-0.5-0.1-1v-4.1h-1v-0.9h1v-2h1.1v2h1.1v0.9h-1.1v3.6
			c0,0.4,0,0.7,0.1,0.9c0.1,0.1,0.2,0.2,0.4,0.2c0.1,0,0.4,0,0.7-0.1v0.9C115.3,100.2,114.7,100.3,114.3,100.3z"/>
		<path d="M121.7,99.3c-0.3,0.4-1,1.1-2.3,1.1c-0.4,0-1.4,0-2.2-0.8c-0.4-0.4-0.9-1.2-0.9-2.5c0-0.8,0.2-1.6,0.7-2.3
			c0.6-0.8,1.4-1.1,2.4-1.1c0.4,0,0.9,0.1,1.3,0.2c0.7,0.3,1.8,1.2,1.8,3.1C122.4,97.4,122.4,98.5,121.7,99.3z M120.9,95.4
			c-0.1-0.2-0.2-0.4-0.4-0.5c-0.5-0.4-1-0.4-1.2-0.4c-2,0-2,2.2-2,2.6c0,0.3,0,0.5,0.1,0.6c0.1,0.5,0.4,1.8,1.9,1.8
			c0.3,0,1-0.1,1.5-0.8c0.4-0.6,0.4-1.6,0.4-1.7C121.3,96.9,121.3,96,120.9,95.4z"/>
		<path d="M127.9,100.2v-4c0-0.2,0.1-0.8-0.5-1.2c-0.2-0.1-0.5-0.3-1-0.3c-0.5,0-0.8,0.1-1.2,0.5c-0.1,0.1-0.3,0.3-0.4,0.6
			c-0.1,0.3-0.1,0.6-0.1,0.9v3.6h-1.1v-6.3h1.1v0.9c0.1-0.2,0.3-0.4,0.3-0.4c0.2-0.2,0.8-0.7,1.6-0.7c0.3,0,1.2,0.1,1.8,0.9
			c0.4,0.6,0.4,1.2,0.4,1.9v3.8H127.9z"/>
		<path d="M134.7,100.2v-3.3c0-0.4,0-1-0.1-1.4c-0.2-0.6-0.7-0.8-1.3-0.8c-0.3,0-1,0.1-1.4,0.8c-0.3,0.5-0.3,1.1-0.3,1.7v3.1h-1.1
			v-9.5h1.1l0,3.8c0.7-0.8,1.5-0.8,1.9-0.8c0.8,0,1.3,0.3,1.6,0.5c0.1,0.1,0.1,0.1,0.3,0.3c0.4,0.6,0.4,1.3,0.4,2v3.7H134.7z"/>
		<path d="M142.4,100.3c-0.1,0-0.4,0-0.7-0.2c-0.1-0.1-0.2-0.2-0.2-0.2c-0.2-0.2-0.2-0.4-0.2-0.5c-0.3,0.3-0.9,1-2.2,1
			c-0.4,0-0.7-0.1-0.9-0.1c-0.8-0.3-1.3-0.9-1.3-1.7c0-0.3,0.1-0.9,0.7-1.4c0.6-0.5,1.8-0.7,2.6-0.7l1-0.1c0-0.2,0-0.3,0-0.5
			c0-0.5-0.1-1.4-1.4-1.4c-0.2,0-1,0-1.3,0.8c-0.1,0.2-0.1,0.3-0.1,0.6l-1.1-0.1c0-0.1,0-0.3,0.1-0.6c0.2-0.6,0.8-1.5,2.3-1.5
			c0.2,0,0.5,0,1,0.1c0.3,0.1,1.1,0.3,1.4,1.2c0.1,0.3,0.1,0.7,0.1,1.4v2.1c0,0.1,0,0.3,0,0.4c0,0.1,0,0.5,0.5,0.5
			c0.1,0,0.2,0,0.3-0.1v0.9C142.8,100.3,142.6,100.3,142.4,100.3z M141.2,97.2v-0.1c-0.5,0.1-1.8,0.2-2.3,0.5
			c-0.2,0.1-0.8,0.3-0.8,1c0,0.5,0.3,0.9,1.2,0.9c0.6,0,1.9-0.2,1.9-1.9C141.2,97.5,141.2,97.4,141.2,97.2z"/>
		<path d="M144,100.2v-9.5h1v9.5H144z"/>
		<path d="M146.7,100.2v-9.5h1v9.5H146.7z"/>
		<path d="M154.5,99.1c-0.3,0.5-1,1.2-2.4,1.2c-0.7,0-1.1-0.1-1.3-0.3c-0.8-0.3-1.8-1.2-1.8-3.2c0-1.2,0.4-1.8,0.7-2.2
			c0.6-0.7,1.4-1.1,2.3-1.1c0.3,0,0.7,0.1,1,0.2c0.4,0.1,1.2,0.5,1.6,1.5c0.2,0.4,0.3,0.9,0.3,1.9h-4.8c0,1.1,0.5,1.8,0.9,2
			c0.3,0.2,0.7,0.3,1.1,0.3c0.6,0,0.9-0.2,1.1-0.4c0.1-0.1,0.2-0.2,0.3-0.4c0.2-0.3,0.2-0.6,0.3-0.7l1.1,0.1
			C154.9,98.4,154.8,98.8,154.5,99.1z M153.7,95.8c-0.2-0.8-0.9-1.3-1.7-1.3c-1.1,0-1.7,0.9-1.8,1.9h3.6
			C153.8,96.1,153.7,96,153.7,95.8z"/>
	</g>
	<g>
		<g>
			<path d="M168.8,101.5c-0.3,1.2-1.3,1.5-1.7,1.6c-0.2,0.1-0.6,0.1-1.1,0.1c-0.2,0-0.6,0-1.1-0.1c-1.5-0.4-1.7-1.6-1.8-2.2h1.2
				c0,0.1,0,0.5,0.3,0.9c0.5,0.6,1.3,0.6,1.5,0.6c0.1,0,1.1,0,1.5-0.6c0.2-0.4,0.3-0.8,0.3-1.7l0-0.7c-0.7,1-1.6,1.1-2.1,1.1
				c-0.6,0-1.1-0.2-1.3-0.3c-0.7-0.4-1.6-1.2-1.6-3c0-0.3,0-1.4,0.7-2.3c0.5-0.7,1.2-1.1,2.3-1.1c0.2,0,0.5,0,0.9,0.2
				c0.3,0.1,0.7,0.3,1.2,0.9v-0.9h1.1v6C168.9,100.7,168.9,101,168.8,101.5z M167.7,96c-0.3-0.9-1-1.4-1.9-1.3
				c-0.3,0-0.6,0.1-0.8,0.2c-0.5,0.3-1.1,0.9-1.1,2.2c0,0.7,0.2,1.5,0.8,2c0.3,0.3,0.8,0.4,1.2,0.4c0.6,0,1-0.2,1.2-0.4
				c0.4-0.3,0.7-0.9,0.7-2.1C167.8,96.8,167.8,96.4,167.7,96z"/>
			<path d="M172.8,95c-0.6,0.1-1.1,0.5-1.3,1.2c-0.1,0.3-0.1,0.5-0.1,1.2v2.9h-1.1v-6.3h1.1V95c0.1-0.3,0.3-0.5,0.6-0.7
				s0.8-0.5,1.6-0.5V95C173.2,94.9,173,94.9,172.8,95z"/>
			<path d="M179.5,99.3c-0.3,0.4-1,1.1-2.3,1.1c-0.4,0-1.4,0-2.2-0.8c-0.4-0.4-0.9-1.2-0.9-2.5c0-0.8,0.2-1.6,0.7-2.3
				c0.6-0.8,1.4-1.1,2.4-1.1c0.4,0,0.9,0.1,1.3,0.2c0.7,0.3,1.8,1.2,1.8,3.1C180.2,97.4,180.2,98.5,179.5,99.3z M178.7,95.4
				c-0.1-0.2-0.2-0.4-0.4-0.5c-0.5-0.4-1-0.4-1.2-0.4c-2,0-2,2.2-2,2.6c0,0.3,0,0.5,0.1,0.6c0.1,0.5,0.4,1.8,1.9,1.8
				c0.3,0,1-0.1,1.5-0.8c0.4-0.6,0.4-1.6,0.4-1.7C179.1,96.9,179.1,96,178.7,95.4z"/>
			<path d="M186.2,99.3c-0.3,0.5-1,1-2.4,1c-0.2,0-1.2,0-1.9-0.5c-0.1-0.1-0.3-0.2-0.5-0.4c-0.5-0.5-0.5-1.1-0.6-1.4l1.2-0.2
				c0,0.4,0,0.8,0.3,1.1c0.4,0.4,0.9,0.5,1.4,0.5c0.1,0,0.8,0,1.2-0.4c0.3-0.3,0.3-0.5,0.3-0.7c0-0.1,0-0.3-0.1-0.5
				c-0.2-0.4-0.8-0.5-1.2-0.5l-0.6-0.1c-0.8-0.2-1.2-0.3-1.5-0.5c-0.5-0.3-0.8-0.7-0.8-1.3c0-0.2,0-0.6,0.3-1
				c0.6-0.8,1.9-0.8,2.1-0.8c1.3,0,2.1,0.7,2.4,1.1c0.3,0.4,0.3,0.8,0.3,1l-1.2,0.1c0-0.3,0-0.4-0.1-0.6c-0.2-0.3-0.7-0.8-1.6-0.8
				c-0.9,0-1.2,0.5-1.2,0.9c0,0.1,0,0.2,0.1,0.3c0.2,0.3,0.7,0.5,1.4,0.7l0.6,0.1c0.2,0,0.4,0.1,0.6,0.2c0.8,0.3,1.5,0.7,1.5,1.7
				C186.5,98.6,186.5,99,186.2,99.3z"/>
			<path d="M192.4,99.3c-0.3,0.5-1,1-2.4,1c-0.2,0-1.2,0-1.9-0.5c-0.1-0.1-0.3-0.2-0.5-0.4c-0.5-0.5-0.5-1.1-0.6-1.4l1.2-0.2
				c0,0.4,0,0.8,0.3,1.1c0.4,0.4,0.9,0.5,1.4,0.5c0.1,0,0.8,0,1.2-0.4c0.3-0.3,0.3-0.5,0.3-0.7c0-0.1,0-0.3-0.1-0.5
				c-0.2-0.4-0.8-0.5-1.2-0.5l-0.6-0.1c-0.8-0.2-1.2-0.3-1.5-0.5c-0.5-0.3-0.8-0.7-0.8-1.3c0-0.2,0-0.6,0.3-1
				c0.6-0.8,1.9-0.8,2.1-0.8c1.3,0,2.1,0.7,2.4,1.1c0.3,0.4,0.3,0.8,0.3,1l-1.2,0.1c0-0.3,0-0.4-0.1-0.6c-0.2-0.3-0.7-0.8-1.6-0.8
				c-0.9,0-1.2,0.5-1.2,0.9c0,0.1,0,0.2,0.1,0.3c0.2,0.3,0.7,0.5,1.4,0.7l0.6,0.1c0.2,0,0.4,0.1,0.6,0.2c0.8,0.3,1.5,0.7,1.5,1.7
				C192.7,98.6,192.6,99,192.4,99.3z"/>
			<path d="M198.9,99.1c-0.3,0.5-1,1.2-2.4,1.2c-0.7,0-1.1-0.1-1.3-0.3c-0.8-0.3-1.8-1.2-1.8-3.2c0-1.2,0.4-1.8,0.7-2.2
				c0.6-0.7,1.4-1.1,2.3-1.1c0.3,0,0.7,0.1,1,0.2c0.4,0.1,1.2,0.5,1.6,1.5c0.2,0.4,0.3,0.9,0.3,1.9h-4.8c0,1.1,0.5,1.8,0.9,2
				c0.3,0.2,0.7,0.3,1.1,0.3c0.6,0,0.9-0.2,1.1-0.4c0.1-0.1,0.2-0.2,0.3-0.4c0.2-0.3,0.2-0.6,0.3-0.7l1.1,0.1
				C199.3,98.4,199.1,98.8,198.9,99.1z M198,95.8c-0.2-0.8-0.9-1.3-1.7-1.3c-1.1,0-1.7,0.9-1.8,1.9h3.6
				C198.1,96.1,198.1,96,198,95.8z"/>
			<path d="M202.9,95c-0.6,0.1-1.1,0.5-1.3,1.2c-0.1,0.3-0.1,0.5-0.1,1.2v2.9h-1.1v-6.3h1.1V95c0.1-0.3,0.3-0.5,0.6-0.7
				s0.8-0.5,1.6-0.5V95C203.3,94.9,203.1,94.9,202.9,95z"/>
			<path d="M212.6,99.3c-0.3,0.5-1,1-2.4,1c-0.2,0-1.2,0-1.9-0.5c-0.1-0.1-0.3-0.2-0.5-0.4c-0.5-0.5-0.5-1.1-0.6-1.4l1.2-0.2
				c0,0.4,0,0.8,0.3,1.1c0.4,0.4,0.9,0.5,1.4,0.5c0.1,0,0.8,0,1.2-0.4c0.3-0.3,0.3-0.5,0.3-0.7c0-0.1,0-0.3-0.1-0.5
				c-0.2-0.4-0.8-0.5-1.2-0.5l-0.6-0.1c-0.8-0.2-1.2-0.3-1.5-0.5c-0.5-0.3-0.8-0.7-0.8-1.3c0-0.2,0-0.6,0.3-1
				c0.6-0.8,1.9-0.8,2.1-0.8c1.3,0,2.1,0.7,2.4,1.1c0.3,0.4,0.3,0.8,0.3,1l-1.2,0.1c0-0.3,0-0.4-0.1-0.6c-0.2-0.3-0.7-0.8-1.6-0.8
				c-0.9,0-1.2,0.5-1.2,0.9c0,0.1,0,0.2,0.1,0.3c0.2,0.3,0.7,0.5,1.4,0.7l0.6,0.1c0.2,0,0.4,0.1,0.6,0.2c0.8,0.3,1.5,0.7,1.5,1.7
				C212.9,98.6,212.9,99,212.6,99.3z"/>
			<path d="M218.9,100.3c-0.1,0-0.4,0-0.7-0.2c-0.1-0.1-0.2-0.2-0.2-0.2c-0.2-0.2-0.2-0.4-0.2-0.5c-0.3,0.3-0.9,1-2.2,1
				c-0.4,0-0.7-0.1-0.9-0.1c-0.8-0.3-1.3-0.9-1.3-1.7c0-0.3,0.1-0.9,0.7-1.4c0.6-0.5,1.8-0.7,2.6-0.7l1-0.1c0-0.2,0-0.3,0-0.5
				c0-0.5-0.1-1.4-1.4-1.4c-0.2,0-1,0-1.3,0.8c-0.1,0.2-0.1,0.3-0.1,0.6l-1.1-0.1c0-0.1,0-0.3,0.1-0.6c0.2-0.6,0.8-1.5,2.3-1.5
				c0.2,0,0.5,0,1,0.1c0.3,0.1,1.1,0.3,1.4,1.2c0.1,0.3,0.1,0.7,0.1,1.4v2.1c0,0.1,0,0.3,0,0.4c0,0.1,0,0.5,0.5,0.5
				c0.1,0,0.2,0,0.3-0.1v0.9C219.3,100.3,219.1,100.3,218.9,100.3z M217.7,97.2v-0.1c-0.5,0.1-1.8,0.2-2.3,0.5
				c-0.2,0.1-0.8,0.3-0.8,1c0,0.5,0.3,0.9,1.2,0.9c0.6,0,1.9-0.2,1.9-1.9C217.7,97.5,217.7,97.4,217.7,97.2z"/>
			<path d="M225.3,100.3c-0.1,0-0.4,0-0.7-0.2c-0.1-0.1-0.2-0.2-0.2-0.2c-0.2-0.2-0.2-0.4-0.2-0.5c-0.3,0.3-0.9,1-2.2,1
				c-0.4,0-0.7-0.1-0.9-0.1c-0.8-0.3-1.3-0.9-1.3-1.7c0-0.3,0.1-0.9,0.7-1.4c0.6-0.5,1.8-0.7,2.6-0.7l1-0.1c0-0.2,0-0.3,0-0.5
				c0-0.5-0.1-1.4-1.4-1.4c-0.2,0-1,0-1.3,0.8c-0.1,0.2-0.1,0.3-0.1,0.6l-1.1-0.1c0-0.1,0-0.3,0.1-0.6c0.2-0.6,0.8-1.5,2.3-1.5
				c0.2,0,0.5,0,1,0.1c0.3,0.1,1.1,0.3,1.4,1.2c0.1,0.3,0.1,0.7,0.1,1.4v2.1c0,0.1,0,0.3,0,0.4c0,0.1,0,0.5,0.5,0.5
				c0.1,0,0.2,0,0.3-0.1v0.9C225.7,100.3,225.5,100.3,225.3,100.3z M224.1,97.2v-0.1c-0.5,0.1-1.8,0.2-2.3,0.5
				c-0.2,0.1-0.8,0.3-0.8,1c0,0.5,0.3,0.9,1.2,0.9c0.6,0,1.9-0.2,1.9-1.9C224.2,97.5,224.1,97.4,224.1,97.2z"/>
			<path d="M226.9,100.2v-9.5h1v9.5H226.9z"/>
		</g>
	</g>
	<g>
		<g>
			<path d="M120.1,173.2v-9.5h1v9.5H120.1z"/>
			<path d="M127.8,172.1c-0.3,0.5-1,1.2-2.4,1.2c-0.7,0-1.1-0.1-1.3-0.3c-0.8-0.3-1.8-1.2-1.8-3.2c0-1.2,0.4-1.8,0.7-2.2
				c0.6-0.7,1.4-1.1,2.3-1.1c0.3,0,0.7,0.1,1,0.2c0.4,0.1,1.2,0.5,1.6,1.5c0.2,0.4,0.3,0.9,0.3,1.9h-4.8c0,1.1,0.5,1.8,0.9,2
				c0.3,0.2,0.7,0.3,1.1,0.3c0.6,0,0.9-0.2,1.1-0.4c0.1-0.1,0.2-0.2,0.3-0.4c0.2-0.3,0.2-0.6,0.3-0.7l1.1,0.1
				C128.2,171.4,128.1,171.8,127.8,172.1z M127,168.8c-0.2-0.8-0.9-1.3-1.7-1.3c-1.1,0-1.7,0.9-1.8,1.9h3.6
				C127.1,169.1,127,169,127,168.8z"/>
			<path d="M129.4,165v-1.2h1v1.2H129.4z M129.4,173.2v-6.3h1v6.3H129.4z"/>
			<path d="M133.5,173.3c-0.6,0-0.9-0.1-1.1-0.4c-0.2-0.2-0.1-0.5-0.1-1v-4.1h-1v-0.9h1v-2h1.1v2h1.1v0.9h-1.1v3.6
				c0,0.4,0,0.7,0.1,0.9c0.1,0.1,0.2,0.2,0.4,0.2c0.1,0,0.4,0,0.7-0.1v0.9C134.4,173.2,133.9,173.3,133.5,173.3z"/>
			<path d="M139.8,173.2l0-1c-0.1,0.1-0.1,0.2-0.3,0.3c-0.5,0.5-1.2,0.8-1.9,0.8c-0.2,0-1.2,0-1.7-0.8c-0.4-0.6-0.3-1.3-0.3-1.9
				v-3.7h1.1v3.6c0,0.7,0,1,0.1,1.3c0.1,0.3,0.5,0.6,1.2,0.6c0.2,0,1-0.1,1.5-0.7c0.3-0.5,0.3-1,0.3-1.6v-3.2h1v6.3H139.8z"/>
			<path d="M146.5,173.2v-4c0-0.2,0.1-0.8-0.5-1.2c-0.2-0.1-0.5-0.3-1-0.3c-0.5,0-0.8,0.1-1.2,0.5c-0.1,0.1-0.3,0.3-0.4,0.6
				c-0.1,0.3-0.1,0.6-0.1,0.9v3.6h-1.1v-6.3h1.1v0.9c0.1-0.2,0.3-0.4,0.3-0.4c0.2-0.2,0.8-0.7,1.6-0.7c0.3,0,1.2,0.1,1.8,0.9
				c0.4,0.6,0.4,1.2,0.4,1.9v3.8H146.5z"/>
			<path d="M154.7,174.5c-0.3,1.2-1.3,1.5-1.7,1.6c-0.2,0.1-0.6,0.1-1.1,0.1c-0.2,0-0.6,0-1.1-0.1c-1.5-0.4-1.7-1.6-1.8-2.2h1.2
				c0,0.1,0,0.5,0.3,0.9c0.5,0.6,1.3,0.6,1.5,0.6c0.1,0,1.1,0,1.5-0.6c0.2-0.4,0.3-0.8,0.3-1.7l0-0.7c-0.7,1-1.6,1.1-2.1,1.1
				c-0.6,0-1.1-0.2-1.3-0.3c-0.7-0.4-1.6-1.2-1.6-3c0-0.3,0-1.4,0.7-2.3c0.5-0.7,1.2-1.1,2.3-1.1c0.2,0,0.5,0,0.9,0.2
				c0.3,0.1,0.7,0.3,1.2,0.9v-0.9h1.1v6C154.8,173.7,154.8,174,154.7,174.5z M153.6,169c-0.3-0.9-1-1.4-1.9-1.3
				c-0.3,0-0.6,0.1-0.8,0.2c-0.5,0.3-1.1,0.9-1.1,2.2c0,0.7,0.2,1.5,0.8,2c0.3,0.3,0.8,0.4,1.2,0.4c0.6,0,1-0.2,1.2-0.4
				c0.4-0.3,0.7-0.9,0.7-2.1C153.8,169.8,153.8,169.4,153.6,169z"/>
			<path d="M167.8,172.8c-0.7,0.6-1.6,0.6-1.9,0.6c-0.2,0-0.7,0-1.2-0.2c-0.8-0.3-1.9-1.1-1.9-3.1c0-2,1.1-2.9,1.9-3.2
				c0.5-0.2,0.9-0.2,1.2-0.2c1.7,0,2.4,0.9,2.7,1.6c0.1,0.2,0.1,0.3,0.2,0.6l-1.2,0.1c0-0.1-0.1-0.4-0.3-0.7
				c-0.4-0.7-1.2-0.7-1.4-0.7c-1,0-1.9,0.6-1.9,2.6c0,1.1,0.4,1.7,0.7,2.1c0.4,0.3,0.8,0.5,1.3,0.5c0.3,0,0.5,0,0.8-0.2
				c0.7-0.3,0.9-0.9,1-1.6l1.2,0.1C168.7,172,168.1,172.6,167.8,172.8z"/>
			<path d="M174.8,173.3c-0.1,0-0.4,0-0.7-0.2c-0.1-0.1-0.2-0.2-0.2-0.2c-0.2-0.2-0.2-0.4-0.2-0.5c-0.3,0.3-0.9,1-2.2,1
				c-0.4,0-0.7-0.1-0.9-0.1c-0.8-0.3-1.3-0.9-1.3-1.7c0-0.3,0.1-0.9,0.7-1.4c0.6-0.5,1.8-0.7,2.6-0.7l1-0.1c0-0.2,0-0.3,0-0.5
				c0-0.5-0.1-1.4-1.4-1.4c-0.2,0-1,0-1.3,0.8c-0.1,0.2-0.1,0.3-0.1,0.6l-1.1-0.1c0-0.1,0-0.3,0.1-0.6c0.2-0.6,0.8-1.5,2.3-1.5
				c0.2,0,0.5,0,1,0.1c0.3,0.1,1.1,0.3,1.4,1.2c0.1,0.3,0.1,0.7,0.1,1.4v2.1c0,0.1,0,0.3,0,0.4c0,0.1,0,0.5,0.5,0.5
				c0.1,0,0.2,0,0.3-0.1v0.9C175.2,173.3,175,173.3,174.8,173.3z M173.6,170.2v-0.1c-0.5,0.1-1.8,0.2-2.3,0.5
				c-0.2,0.1-0.8,0.3-0.8,1c0,0.5,0.3,0.9,1.2,0.9c0.6,0,1.9-0.2,1.9-1.9C173.6,170.5,173.6,170.4,173.6,170.2z"/>
			<path d="M178.7,167.9c-0.6,0.1-1.1,0.5-1.3,1.2c-0.1,0.3-0.1,0.5-0.1,1.2v2.9h-1.1v-6.3h1.1v1.2c0.1-0.3,0.3-0.5,0.6-0.7
				s0.8-0.5,1.6-0.5v1.2C179.1,167.9,178.9,167.9,178.7,167.9z"/>
			<path d="M180.3,173.2v-9.5h1v9.5H180.3z"/>
			<path d="M191,172.3c-0.3,0.5-1,1-2.4,1c-0.2,0-1.2,0-1.9-0.5c-0.1-0.1-0.3-0.2-0.5-0.4c-0.5-0.5-0.5-1.1-0.6-1.4l1.2-0.2
				c0,0.4,0,0.8,0.3,1.1c0.4,0.4,0.9,0.5,1.4,0.5c0.1,0,0.8,0,1.2-0.4c0.3-0.3,0.3-0.5,0.3-0.7c0-0.1,0-0.3-0.1-0.5
				c-0.2-0.4-0.8-0.5-1.2-0.5l-0.6-0.1c-0.8-0.2-1.2-0.3-1.5-0.5c-0.5-0.3-0.8-0.7-0.8-1.3c0-0.2,0-0.6,0.3-1
				c0.6-0.8,1.9-0.8,2.1-0.8c1.3,0,2.1,0.7,2.4,1.1c0.3,0.4,0.3,0.8,0.3,1l-1.2,0.1c0-0.3,0-0.4-0.1-0.6c-0.2-0.3-0.7-0.8-1.6-0.8
				c-0.9,0-1.2,0.5-1.2,0.9c0,0.1,0,0.2,0.1,0.3c0.2,0.3,0.7,0.5,1.4,0.7l0.6,0.1c0.2,0,0.4,0.1,0.6,0.2c0.8,0.3,1.5,0.7,1.5,1.7
				C191.3,171.6,191.2,172,191,172.3z"/>
			<path d="M197,172.8c-0.7,0.6-1.6,0.6-1.9,0.6c-0.2,0-0.7,0-1.2-0.2c-0.8-0.3-1.9-1.1-1.9-3.1c0-2,1.1-2.9,1.9-3.2
				c0.5-0.2,0.9-0.2,1.2-0.2c1.7,0,2.4,0.9,2.7,1.6c0.1,0.2,0.1,0.3,0.2,0.6l-1.2,0.1c0-0.1-0.1-0.4-0.3-0.7
				c-0.4-0.7-1.2-0.7-1.4-0.7c-1,0-1.9,0.6-1.9,2.6c0,1.1,0.4,1.7,0.7,2.1c0.4,0.3,0.8,0.5,1.3,0.5c0.3,0,0.5,0,0.8-0.2
				c0.7-0.3,0.9-0.9,1-1.6l1.2,0.1C197.9,172,197.3,172.6,197,172.8z"/>
			<path d="M203.2,173.2v-3.3c0-0.4,0-1-0.1-1.4c-0.2-0.6-0.7-0.8-1.3-0.8c-0.3,0-1,0.1-1.4,0.8c-0.3,0.5-0.3,1.1-0.3,1.7v3.1h-1.1
				v-9.5h1.1l0,3.8c0.7-0.8,1.5-0.8,1.9-0.8c0.8,0,1.3,0.3,1.6,0.5c0.1,0.1,0.1,0.1,0.3,0.3c0.4,0.6,0.4,1.3,0.4,2v3.7H203.2z"/>
			<path d="M210,173.2l0-1c-0.1,0.1-0.1,0.2-0.3,0.3c-0.5,0.5-1.2,0.8-1.9,0.8c-0.2,0-1.2,0-1.7-0.8c-0.4-0.6-0.3-1.3-0.3-1.9v-3.7
				h1.1v3.6c0,0.7,0,1,0.1,1.3c0.1,0.3,0.5,0.6,1.2,0.6c0.2,0,1-0.1,1.5-0.7c0.3-0.5,0.3-1,0.3-1.6v-3.2h1v6.3H210z"/>
			<path d="M215,167.9c-0.6,0.1-1.1,0.5-1.3,1.2c-0.1,0.3-0.1,0.5-0.1,1.2v2.9h-1.1v-6.3h1.1v1.2c0.1-0.3,0.3-0.5,0.6-0.7
				c0.3-0.2,0.8-0.5,1.6-0.5v1.2C215.4,167.9,215.1,167.9,215,167.9z"/>
			<path d="M216.5,165v-1.2h1v1.2H216.5z M216.5,173.2v-6.3h1v6.3H216.5z"/>
			<path d="M223.7,172.8c-0.7,0.6-1.6,0.6-1.9,0.6c-0.2,0-0.7,0-1.2-0.2c-0.8-0.3-1.9-1.1-1.9-3.1c0-2,1.1-2.9,1.9-3.2
				c0.5-0.2,0.9-0.2,1.2-0.2c1.7,0,2.4,0.9,2.7,1.6c0.1,0.2,0.1,0.3,0.2,0.6l-1.2,0.1c0-0.1-0.1-0.4-0.3-0.7
				c-0.4-0.7-1.2-0.7-1.4-0.7c-1,0-1.9,0.6-1.9,2.6c0,1.1,0.4,1.7,0.7,2.1c0.4,0.3,0.8,0.5,1.3,0.5c0.3,0,0.5,0,0.8-0.2
				c0.7-0.3,0.9-0.9,1-1.6l1.2,0.1C224.6,172,224,172.6,223.7,172.8z"/>
			<path d="M229.9,173.2v-3.3c0-0.4,0-1-0.1-1.4c-0.2-0.6-0.7-0.8-1.3-0.8c-0.3,0-1,0.1-1.4,0.8c-0.3,0.5-0.3,1.1-0.3,1.7v3.1h-1.1
				v-9.5h1.1l0,3.8c0.7-0.8,1.5-0.8,1.9-0.8c0.8,0,1.3,0.3,1.6,0.5c0.1,0.1,0.1,0.1,0.3,0.3c0.4,0.6,0.4,1.3,0.4,2v3.7H229.9z"/>
			<path d="M234,173.3c-0.6,0-0.9-0.1-1.1-0.4c-0.2-0.2-0.1-0.5-0.1-1v-4.1h-1v-0.9h1v-2h1.1v2h1.1v0.9h-1.1v3.6
				c0,0.4,0,0.7,0.1,0.9c0.1,0.1,0.2,0.2,0.4,0.2c0.1,0,0.4,0,0.7-0.1v0.9C235,173.2,234.5,173.3,234,173.3z"/>
		</g>
	</g>
	<g>
		<g>
			<path d="M167.8,113.2v-0.8c-0.3,0.4-0.9,1-2.2,1c-1.2,0-1.8-0.6-2.1-1c-0.4-0.4-0.8-1.2-0.8-2.4c0-0.8,0.1-1.6,0.6-2.2
				c0.3-0.4,1-1.1,2.3-1.1c0.9,0,1.5,0.4,1.8,0.6c0.2,0.1,0.3,0.2,0.4,0.4v-4h1.1v9.5H167.8z M167.8,109.2c-0.2-0.9-0.9-1.5-1.9-1.6
				c-0.3,0-1,0-1.5,0.7c-0.4,0.5-0.5,1.1-0.5,1.7c0,0.2,0,1,0.5,1.7c0.5,0.7,1.2,0.7,1.5,0.7c0.4,0,0.7-0.1,1-0.3
				c0.5-0.3,1-0.9,1-2.1C167.9,109.9,167.9,109.5,167.8,109.2z"/>
			<path d="M170.5,105v-1.2h1v1.2H170.5z M170.5,113.2v-6.3h1v6.3H170.5z"/>
			<path d="M178.2,112.1c-0.3,0.5-1,1.2-2.4,1.2c-0.7,0-1.1-0.1-1.3-0.3c-0.8-0.3-1.8-1.2-1.8-3.2c0-1.2,0.4-1.8,0.7-2.2
				c0.6-0.7,1.4-1.1,2.3-1.1c0.3,0,0.7,0.1,1,0.2c0.4,0.1,1.2,0.5,1.6,1.5c0.2,0.4,0.3,0.9,0.3,1.9h-4.8c0,1.1,0.5,1.8,0.9,2
				c0.3,0.2,0.7,0.3,1.1,0.3c0.6,0,0.9-0.2,1.1-0.4c0.1-0.1,0.2-0.2,0.3-0.4c0.2-0.3,0.2-0.6,0.3-0.7l1.1,0.1
				C178.6,111.4,178.5,111.8,178.2,112.1z M177.4,108.8c-0.2-0.8-0.9-1.3-1.7-1.3c-1.1,0-1.7,0.9-1.8,1.9h3.6
				C177.5,109.1,177.4,109,177.4,108.8z"/>
			<path d="M184,113.2v-4c0-0.2,0.1-0.8-0.5-1.2c-0.2-0.1-0.5-0.3-1-0.3c-0.5,0-0.8,0.1-1.2,0.5c-0.1,0.1-0.3,0.3-0.4,0.6
				c-0.1,0.3-0.1,0.6-0.1,0.9v3.6h-1.1v-6.3h1.1v0.9c0.1-0.2,0.3-0.4,0.3-0.4c0.2-0.2,0.8-0.7,1.6-0.7c0.3,0,1.2,0.1,1.8,0.9
				c0.4,0.6,0.4,1.2,0.4,1.9v3.8H184z"/>
			<path d="M191.5,112.3c-0.3,0.5-1,1-2.4,1c-0.2,0-1.2,0-1.9-0.5c-0.1-0.1-0.3-0.2-0.5-0.4c-0.5-0.5-0.5-1.1-0.6-1.4l1.2-0.2
				c0,0.4,0,0.8,0.3,1.1c0.4,0.4,0.9,0.5,1.4,0.5c0.1,0,0.8,0,1.2-0.4c0.3-0.3,0.3-0.5,0.3-0.7c0-0.1,0-0.3-0.1-0.5
				c-0.2-0.4-0.8-0.5-1.2-0.5l-0.6-0.1c-0.8-0.2-1.2-0.3-1.5-0.5c-0.5-0.3-0.8-0.7-0.8-1.3c0-0.2,0-0.6,0.3-1
				c0.6-0.8,1.9-0.8,2.1-0.8c1.3,0,2.1,0.7,2.4,1.1c0.3,0.4,0.3,0.8,0.3,1l-1.2,0.1c0-0.3,0-0.4-0.1-0.6c-0.2-0.3-0.7-0.8-1.6-0.8
				c-0.9,0-1.2,0.5-1.2,0.9c0,0.1,0,0.2,0.1,0.3c0.2,0.3,0.7,0.5,1.4,0.7l0.6,0.1c0.2,0,0.4,0.1,0.6,0.2c0.8,0.3,1.5,0.7,1.5,1.7
				C191.7,111.6,191.7,112,191.5,112.3z"/>
			<path d="M194.4,113.3c-0.6,0-0.9-0.1-1.1-0.4c-0.2-0.2-0.1-0.5-0.1-1v-4.1h-1v-0.9h1v-2h1.1v2h1.1v0.9h-1.1v3.6
				c0,0.4,0,0.7,0.1,0.9c0.1,0.1,0.2,0.2,0.4,0.2c0.1,0,0.4,0,0.7-0.1v0.9C195.4,113.2,194.8,113.3,194.4,113.3z"/>
			<path d="M201.5,113.3c-0.1,0-0.4,0-0.7-0.2c-0.1-0.1-0.2-0.2-0.2-0.2c-0.2-0.2-0.2-0.4-0.2-0.5c-0.3,0.3-0.9,1-2.2,1
				c-0.4,0-0.7-0.1-0.9-0.1c-0.8-0.3-1.3-0.9-1.3-1.7c0-0.3,0.1-0.9,0.7-1.4c0.6-0.5,1.8-0.7,2.6-0.7l1-0.1c0-0.2,0-0.3,0-0.5
				c0-0.5-0.1-1.4-1.4-1.4c-0.2,0-1,0-1.3,0.8c-0.1,0.2-0.1,0.3-0.1,0.6l-1.1-0.1c0-0.1,0-0.3,0.1-0.6c0.2-0.6,0.8-1.5,2.3-1.5
				c0.2,0,0.5,0,1,0.1c0.3,0.1,1.1,0.3,1.4,1.2c0.1,0.3,0.1,0.7,0.1,1.4v2.1c0,0.1,0,0.3,0,0.4c0,0.1,0,0.5,0.5,0.5
				c0.1,0,0.2,0,0.3-0.1v0.9C201.9,113.3,201.7,113.3,201.5,113.3z M200.3,110.2v-0.1c-0.5,0.1-1.8,0.2-2.3,0.5
				c-0.2,0.1-0.8,0.3-0.8,1c0,0.5,0.3,0.9,1.2,0.9c0.6,0,1.9-0.2,1.9-1.9C200.3,110.5,200.3,110.4,200.3,110.2z"/>
			<path d="M208.7,114.5c-0.3,1.2-1.3,1.5-1.7,1.6c-0.2,0.1-0.6,0.1-1.1,0.1c-0.2,0-0.6,0-1.1-0.1c-1.5-0.4-1.7-1.6-1.8-2.2h1.2
				c0,0.1,0,0.5,0.3,0.9c0.5,0.6,1.3,0.6,1.5,0.6c0.1,0,1.1,0,1.5-0.6c0.2-0.4,0.3-0.8,0.3-1.7l0-0.7c-0.7,1-1.6,1.1-2.1,1.1
				c-0.6,0-1.1-0.2-1.3-0.3c-0.7-0.4-1.6-1.2-1.6-3c0-0.3,0-1.4,0.7-2.3c0.5-0.7,1.2-1.1,2.3-1.1c0.2,0,0.5,0,0.9,0.2
				c0.3,0.1,0.7,0.3,1.2,0.9v-0.9h1.1v6C208.9,113.7,208.8,114,208.7,114.5z M207.6,109c-0.3-0.9-1-1.4-1.9-1.3
				c-0.3,0-0.6,0.1-0.8,0.2c-0.5,0.3-1.1,0.9-1.1,2.2c0,0.7,0.2,1.5,0.8,2c0.3,0.3,0.8,0.4,1.2,0.4c0.6,0,1-0.2,1.2-0.4
				c0.4-0.3,0.7-0.9,0.7-2.1C207.8,109.8,207.8,109.4,207.6,109z"/>
			<path d="M211.2,115.3h-0.6c0.2-0.7,0.4-1.4,0.4-2.1h-0.6v-1.5h1.3v0.8C211.7,113.5,211.5,114.4,211.2,115.3z"/>
			<path d="M220.5,113.2v-0.8c-0.3,0.4-0.9,1-2.2,1c-1.2,0-1.8-0.6-2.1-1c-0.4-0.4-0.8-1.2-0.8-2.4c0-0.8,0.1-1.6,0.6-2.2
				c0.3-0.4,1-1.1,2.3-1.1c0.9,0,1.5,0.4,1.8,0.6c0.2,0.1,0.3,0.2,0.4,0.4v-4h1.1v9.5H220.5z M220.4,109.2c-0.2-0.9-0.9-1.5-1.9-1.6
				c-0.3,0-1,0-1.5,0.7c-0.4,0.5-0.5,1.1-0.5,1.7c0,0.2,0,1,0.5,1.7c0.5,0.7,1.2,0.7,1.5,0.7c0.4,0,0.7-0.1,1-0.3
				c0.5-0.3,1-0.9,1-2.1C220.5,109.9,220.5,109.5,220.4,109.2z"/>
			<path d="M228.2,112.1c-0.3,0.5-1,1.2-2.4,1.2c-0.7,0-1.1-0.1-1.3-0.3c-0.8-0.3-1.8-1.2-1.8-3.2c0-1.2,0.4-1.8,0.7-2.2
				c0.6-0.7,1.4-1.1,2.3-1.1c0.3,0,0.7,0.1,1,0.2c0.4,0.1,1.2,0.5,1.6,1.5c0.2,0.4,0.3,0.9,0.3,1.9h-4.8c0,1.1,0.5,1.8,0.9,2
				c0.3,0.2,0.7,0.3,1.1,0.3c0.6,0,0.9-0.2,1.1-0.4c0.1-0.1,0.2-0.2,0.3-0.4c0.2-0.3,0.2-0.6,0.3-0.7l1.1,0.1
				C228.5,111.4,228.4,111.8,228.2,112.1z M227.3,108.8c-0.2-0.8-0.9-1.3-1.7-1.3c-1.1,0-1.7,0.9-1.8,1.9h3.6
				C227.4,109.1,227.4,109,227.3,108.8z"/>
			<path d="M233.8,113.2v-4c0-0.2,0.1-0.8-0.5-1.2c-0.2-0.1-0.5-0.3-1-0.3c-0.5,0-0.8,0.1-1.2,0.5c-0.1,0.1-0.3,0.3-0.4,0.6
				c-0.1,0.3-0.1,0.6-0.1,0.9v3.6h-1.1v-6.3h1.1v0.9c0.1-0.2,0.3-0.4,0.3-0.4c0.2-0.2,0.8-0.7,1.6-0.7c0.3,0,1.2,0.1,1.8,0.9
				c0.4,0.6,0.4,1.2,0.4,1.9v3.8H233.8z"/>
			<path d="M239.7,113.2l0-1.2c0.2-0.1,0.4-0.2,0.6-0.3c0.4-0.2,1.3-0.9,2.2-1.8c0.9-0.8,1.8-1.8,1.8-3.1c0-1.1-0.6-1.7-1.7-1.7
				c-0.7,0-1.2,0.3-1.4,0.5c-0.1,0.2-0.2,0.4-0.2,0.5c-0.1,0.3-0.1,0.6-0.1,0.8c0,0.3,0,0.5,0.2,1.1h-1.2c-0.1-0.2-0.2-0.5-0.2-1.1
				c0-0.3,0-1.4,0.8-2.1c0.3-0.3,1-0.7,2.1-0.7c0.3,0,1.2,0,1.9,0.7c0.6,0.5,1,1.4,1,2.2c0,0.7-0.2,1.6-1.2,2.8
				c-0.2,0.3-0.5,0.5-1,1c-0.3,0.3-0.7,0.6-1.1,0.8c-0.3,0.2-0.6,0.4-0.9,0.6h4.3v1H239.7z"/>
			<path d="M247,113.2l0-1.2c0.2-0.1,0.4-0.2,0.6-0.3c0.4-0.2,1.3-0.9,2.2-1.8c0.9-0.8,1.8-1.8,1.8-3.1c0-1.1-0.6-1.7-1.7-1.7
				c-0.7,0-1.2,0.3-1.4,0.5c-0.1,0.2-0.2,0.4-0.2,0.5c-0.1,0.3-0.1,0.6-0.1,0.8c0,0.3,0,0.5,0.2,1.1h-1.2c-0.1-0.2-0.2-0.5-0.2-1.1
				c0-0.3,0-1.4,0.8-2.1c0.3-0.3,1-0.7,2.1-0.7c0.3,0,1.2,0,1.9,0.7c0.6,0.5,1,1.4,1,2.2c0,0.7-0.2,1.6-1.2,2.8
				c-0.2,0.3-0.5,0.5-1,1c-0.3,0.3-0.7,0.6-1.1,0.8c-0.3,0.2-0.6,0.4-0.9,0.6h4.3v1H247z"/>
			<path d="M254.8,115.3h-0.6c0.2-0.7,0.4-1.4,0.4-2.1h-0.6v-1.5h1.3v0.8C255.4,113.5,255.2,114.4,254.8,115.3z"/>
			<path d="M262.5,104.7c0,0-0.3-0.1-0.6-0.1c-0.1,0-0.5,0-0.7,0.4c-0.1,0.2-0.1,0.3-0.1,0.8v1.1h1.2v0.9h-1.2v5.4h-1v-5.4h-1v-0.9
				h1v-0.5c0-0.9,0-1.3,0.2-1.7c0.3-0.9,1.3-0.9,1.5-0.9c0.1,0,0.4,0,0.8,0.1L262.5,104.7z"/>
			<path d="M268,112.1c-0.3,0.5-1,1.2-2.4,1.2c-0.7,0-1.1-0.1-1.3-0.3c-0.8-0.3-1.8-1.2-1.8-3.2c0-1.2,0.4-1.8,0.7-2.2
				c0.6-0.7,1.4-1.1,2.3-1.1c0.3,0,0.7,0.1,1,0.2c0.4,0.1,1.2,0.5,1.6,1.5c0.2,0.4,0.3,0.9,0.3,1.9h-4.8c0,1.1,0.5,1.8,0.9,2
				c0.3,0.2,0.7,0.3,1.1,0.3c0.6,0,0.9-0.2,1.1-0.4c0.1-0.1,0.2-0.2,0.3-0.4c0.2-0.3,0.2-0.6,0.3-0.7l1.1,0.1
				C268.4,111.4,268.2,111.8,268,112.1z M267.2,108.8c-0.2-0.8-0.9-1.3-1.7-1.3c-1.1,0-1.7,0.9-1.8,1.9h3.6
				C267.2,109.1,267.2,109,267.2,108.8z"/>
			<path d="M274.7,112.3c-0.4,0.5-0.8,0.7-1,0.8c-0.2,0.1-0.6,0.2-1.2,0.2c-0.8,0-1.2-0.2-1.4-0.4c-0.3-0.2-0.5-0.4-0.7-0.6v0.8
				h-1.1v-9.5h1.1v4c0.1-0.1,0.1-0.2,0.3-0.4c0.5-0.5,1.2-0.7,1.9-0.7c0.4,0,1.4,0.1,2.1,1c0.4,0.4,0.8,1.1,0.8,2.4
				C275.4,110.4,275.4,111.5,274.7,112.3z M274,108.6c-0.2-0.3-0.7-1-1.7-1c-0.8,0-1.2,0.4-1.4,0.6c-0.3,0.3-0.6,0.8-0.6,1.8
				c0,0.7,0.1,1.1,0.3,1.4c0.2,0.3,0.7,1,1.7,1c0.4,0,0.7-0.1,1-0.3c0.4-0.3,0.9-1,0.9-2.2C274.3,109.8,274.3,109.2,274,108.6z"/>
			<path d="M278.7,107.9c-0.6,0.1-1.1,0.5-1.3,1.2c-0.1,0.3-0.1,0.5-0.1,1.2v2.9h-1.1v-6.3h1.1v1.2c0.1-0.3,0.3-0.5,0.6-0.7
				s0.8-0.5,1.6-0.5v1.2C279.1,107.9,278.9,107.9,278.7,107.9z"/>
			<path d="M284.1,113.2l0-1c-0.1,0.1-0.1,0.2-0.3,0.3c-0.5,0.5-1.2,0.8-1.9,0.8c-0.2,0-1.2,0-1.7-0.8c-0.4-0.6-0.3-1.3-0.3-1.9
				v-3.7h1.1v3.6c0,0.7,0,1,0.1,1.3c0.1,0.3,0.5,0.6,1.2,0.6c0.2,0,1-0.1,1.5-0.7c0.3-0.5,0.3-1,0.3-1.6v-3.2h1v6.3H284.1z"/>
			<path d="M291.3,113.3c-0.1,0-0.4,0-0.7-0.2c-0.1-0.1-0.2-0.2-0.2-0.2c-0.2-0.2-0.2-0.4-0.2-0.5c-0.3,0.3-0.9,1-2.2,1
				c-0.4,0-0.7-0.1-0.9-0.1c-0.8-0.3-1.3-0.9-1.3-1.7c0-0.3,0.1-0.9,0.7-1.4c0.6-0.5,1.8-0.7,2.6-0.7l1-0.1c0-0.2,0-0.3,0-0.5
				c0-0.5-0.1-1.4-1.4-1.4c-0.2,0-1,0-1.3,0.8c-0.1,0.2-0.1,0.3-0.1,0.6l-1.1-0.1c0-0.1,0-0.3,0.1-0.6c0.2-0.6,0.8-1.5,2.3-1.5
				c0.2,0,0.5,0,1,0.1c0.3,0.1,1.1,0.3,1.4,1.2c0.1,0.3,0.1,0.7,0.1,1.4v2.1c0,0.1,0,0.3,0,0.4c0,0.1,0,0.5,0.5,0.5
				c0.1,0,0.2,0,0.3-0.1v0.9C291.7,113.3,291.5,113.3,291.3,113.3z M290.1,110.2v-0.1c-0.5,0.1-1.8,0.2-2.3,0.5
				c-0.2,0.1-0.8,0.3-0.8,1c0,0.5,0.3,0.9,1.2,0.9c0.6,0,1.9-0.2,1.9-1.9C290.2,110.5,290.1,110.4,290.1,110.2z"/>
			<path d="M295,107.9c-0.6,0.1-1.1,0.5-1.3,1.2c-0.1,0.3-0.1,0.5-0.1,1.2v2.9h-1.1v-6.3h1.1v1.2c0.1-0.3,0.3-0.5,0.6-0.7
				s0.8-0.5,1.6-0.5v1.2C295.4,107.9,295.2,107.9,295,107.9z"/>
			<path d="M302,113.2v-6.6H300v-0.8c1.2,0,1.7-0.3,2-0.8c0.2-0.3,0.3-0.7,0.3-0.8h0.9v9H302z"/>
			<path d="M311.7,112.2c-0.1,0.1-0.4,0.5-0.8,0.7c-0.3,0.2-0.8,0.3-1.5,0.3c-0.4,0-0.7-0.1-0.8-0.1c-0.3-0.1-1.1-0.4-1.5-1.3
				c-0.1-0.2-0.2-0.4-0.3-0.9l1.2-0.2c0,0.1,0.1,0.5,0.3,0.8c0.3,0.4,0.8,0.6,1.3,0.6c0.2,0,0.8,0,1.2-0.5c0.6-0.6,0.9-1.8,0.9-2.7
				c-0.3,0.4-0.9,1.2-2.2,1.2c-1.8,0-3-1.3-3-3c0-0.3,0.1-1.4,0.8-2.3c0.3-0.4,1-0.9,2.2-0.9c0.4,0,1.3,0,2.1,0.8
				c0.7,0.6,1.2,1.7,1.2,3.7C312.8,109,312.8,110.9,311.7,112.2z M311.4,106.6c-0.3-0.9-1-1.5-1.9-1.5c-0.5,0-0.9,0.2-1.1,0.3
				c-0.8,0.5-0.8,1.6-0.8,1.9c0,0.4,0.1,0.6,0.1,0.8c0.2,0.4,0.6,1.1,1.7,1.1c0.3,0,0.5,0,0.8-0.1c0.4-0.1,1.2-0.5,1.2-1.7
				C311.5,107.2,311.5,106.9,311.4,106.6z"/>
			<path d="M318.1,113.1c-0.2,0.1-0.6,0.2-1.2,0.2c-2,0-2.8-1.3-3.1-2c-0.1-0.2-0.1-0.4-0.2-0.9l1.2-0.1c0,0.2,0.1,0.4,0.2,0.7
				c0.2,0.5,0.5,0.9,1,1.1c0.1,0.1,0.4,0.1,0.8,0.1c0.3,0,0.6-0.1,0.8-0.2c0.5-0.2,1.2-0.8,1.2-2.1c0-0.2,0-0.5-0.1-0.8
				c-0.1-0.5-0.5-1-1.1-1.2c-0.2-0.1-0.4-0.1-0.8-0.1c-0.2,0-0.6,0-1,0.3c-0.1,0-0.1,0.1-0.3,0.2c-0.3,0.3-0.4,0.5-0.5,0.7H314
				l0.3-4.9h5.1v1.1h-4.2l-0.1,2.4c0.3-0.3,0.9-0.7,2-0.7c0.6,0,1,0.1,1.2,0.2c1.2,0.5,1.8,1.7,1.8,2.9
				C320.1,111.3,319.4,112.6,318.1,113.1z"/>
			<path d="M325.4,113.1c-0.2,0.1-0.6,0.2-1.2,0.2c-2,0-2.8-1.3-3.1-2c-0.1-0.2-0.1-0.4-0.2-0.9l1.2-0.1c0,0.2,0.1,0.4,0.2,0.7
				c0.2,0.5,0.5,0.9,1,1.1c0.1,0.1,0.4,0.1,0.8,0.1c0.3,0,0.6-0.1,0.8-0.2c0.5-0.2,1.2-0.8,1.2-2.1c0-0.2,0-0.5-0.1-0.8
				c-0.1-0.5-0.5-1-1.1-1.2c-0.2-0.1-0.4-0.1-0.8-0.1c-0.2,0-0.6,0-1,0.3c-0.1,0-0.1,0.1-0.3,0.2c-0.3,0.3-0.4,0.5-0.5,0.7h-1.1
				l0.3-4.9h5.1v1.1h-4.2l-0.1,2.4c0.3-0.3,0.9-0.7,2-0.7c0.6,0,1,0.1,1.2,0.2c1.2,0.5,1.8,1.7,1.8,2.9
				C327.3,111.3,326.6,112.6,325.4,113.1z"/>
			<path d="M329.2,115.3h-0.6c0.2-0.7,0.4-1.4,0.4-2.1h-0.6v-1.5h1.3v0.8C329.8,113.5,329.6,114.4,329.2,115.3z"/>
		</g>
	</g>
	<g>
		<g>
			<path d="M163.3,126.9l0-1.2c0.2-0.1,0.4-0.2,0.6-0.3c0.4-0.2,1.3-0.9,2.2-1.8c0.9-0.8,1.8-1.8,1.8-3.1c0-1.1-0.6-1.7-1.7-1.7
				c-0.7,0-1.2,0.3-1.4,0.5c-0.1,0.2-0.2,0.4-0.2,0.5c-0.1,0.3-0.1,0.6-0.1,0.8c0,0.3,0,0.5,0.2,1.1h-1.2c-0.1-0.2-0.2-0.5-0.2-1.1
				c0-0.3,0-1.4,0.8-2.1c0.3-0.3,1-0.7,2.1-0.7c0.3,0,1.2,0,1.9,0.7c0.6,0.5,1,1.4,1,2.2c0,0.7-0.2,1.6-1.2,2.8
				c-0.2,0.3-0.5,0.5-1,1c-0.3,0.3-0.7,0.6-1.1,0.8c-0.3,0.2-0.6,0.4-0.9,0.6h4.3v1H163.3z"/>
			<path d="M175.1,126.3c-0.5,0.4-1.1,0.6-1.8,0.6c-0.5,0-1-0.1-1.5-0.4c-0.9-0.5-1.8-1.8-1.8-4.1c0-0.4,0-2.7,1.4-4
				c0.7-0.6,1.5-0.7,1.8-0.7c0.3,0,0.9,0,1.5,0.4c0.9,0.5,1.8,1.8,1.8,4.2C176.5,124.5,175.8,125.7,175.1,126.3z M174.6,119.5
				c-0.5-0.6-1-0.7-1.3-0.7c-0.7,0-1,0.3-1.2,0.5c-0.1,0.1-0.3,0.3-0.5,0.7c-0.3,0.7-0.4,1.6-0.4,2.3c0,0.2,0,1.8,0.7,2.8
				c0.2,0.3,0.6,0.8,1.4,0.7c0.1,0,0.5,0,0.9-0.2c1-0.6,1.2-2.3,1.2-3.3C175.3,122.1,175.3,120.5,174.6,119.5z"/>
			<path d="M177.3,126.9v-1.5h1.3v1.5H177.3z"/>
			<path d="M182.3,126.9v-6.6h-1.9v-0.8c1.2,0,1.7-0.3,2-0.8c0.2-0.3,0.3-0.7,0.3-0.8h0.9v9H182.3z"/>
			<path d="M191,126.7c-0.2,0.1-0.6,0.2-1.2,0.2c-2,0-2.8-1.3-3.1-2c-0.1-0.2-0.1-0.4-0.2-0.9l1.2-0.1c0,0.2,0.1,0.4,0.2,0.7
				c0.2,0.5,0.5,0.9,1,1.1c0.1,0.1,0.4,0.1,0.8,0.1c0.3,0,0.6-0.1,0.8-0.2c0.5-0.2,1.2-0.8,1.2-2.1c0-0.2,0-0.5-0.1-0.8
				c-0.1-0.5-0.5-1-1.1-1.2c-0.2-0.1-0.4-0.1-0.8-0.1c-0.2,0-0.6,0-1,0.3c-0.1,0-0.1,0.1-0.3,0.2c-0.3,0.3-0.4,0.5-0.5,0.7h-1.1
				l0.3-4.9h5.1v1.1h-4.2l-0.1,2.4c0.3-0.3,0.9-0.7,2-0.7c0.6,0,1,0.1,1.2,0.2c1.2,0.5,1.8,1.7,1.8,2.9
				C193,125,192.3,126.3,191,126.7z"/>
			<path d="M201,126.9l0-1c-0.1,0.1-0.1,0.2-0.3,0.3c-0.5,0.5-1.2,0.8-1.9,0.8c-0.2,0-1.2,0-1.7-0.8c-0.4-0.6-0.3-1.3-0.3-1.9v-3.7
				h1.1v3.6c0,0.7,0,1,0.1,1.3c0.1,0.3,0.5,0.6,1.2,0.6c0.2,0,1-0.1,1.5-0.7c0.3-0.5,0.3-1,0.3-1.6v-3.2h1v6.3H201z"/>
			<path d="M207.3,126.9v-3.3c0-0.4,0-1-0.1-1.4c-0.2-0.6-0.7-0.8-1.3-0.8c-0.3,0-1,0.1-1.4,0.8c-0.3,0.5-0.3,1.1-0.3,1.7v3.1h-1.1
				v-9.5h1.1l0,3.8c0.7-0.8,1.5-0.8,1.9-0.8c0.8,0,1.3,0.3,1.6,0.5c0.1,0.1,0.1,0.1,0.3,0.3c0.4,0.6,0.4,1.3,0.4,2v3.7H207.3z"/>
			<path d="M211.8,121.6c-0.6,0.1-1.1,0.5-1.3,1.2c-0.1,0.3-0.1,0.5-0.1,1.2v2.9h-1.1v-6.3h1.1v1.2c0.1-0.3,0.3-0.5,0.6-0.7
				s0.8-0.5,1.6-0.5v1.2C212.2,121.6,212,121.6,211.8,121.6z"/>
		</g>
	</g>
	<g>
		<g>
			<path d="M168.1,137.4v2.2h-1.2v-2.2h-4.1v-1.1l4.3-5.8h0.9v5.8h1.3v1H168.1z M164,136.3h2.9l0.1-4.1L164,136.3z"/>
			<path d="M170.2,139.5V138h1.3v1.5H170.2z"/>
			<path d="M180.7,138.5c-0.3,0.5-1,1.2-2.4,1.2c-0.7,0-1.1-0.1-1.3-0.3c-0.8-0.3-1.8-1.2-1.8-3.2c0-1.2,0.4-1.8,0.7-2.2
				c0.6-0.7,1.4-1.1,2.3-1.1c0.3,0,0.7,0.1,1,0.2c0.4,0.1,1.2,0.5,1.6,1.5c0.2,0.4,0.3,0.9,0.3,1.9h-4.8c0,1.1,0.5,1.8,0.9,2
				c0.3,0.2,0.7,0.3,1.1,0.3c0.6,0,0.9-0.2,1.1-0.4c0.1-0.1,0.2-0.2,0.3-0.4c0.2-0.3,0.2-0.6,0.3-0.7l1.1,0.1
				C181.1,137.7,180.9,138.1,180.7,138.5z M179.9,135.2c-0.2-0.8-0.9-1.3-1.7-1.3c-1.1,0-1.7,0.9-1.8,1.9h3.6
				C179.9,135.5,179.9,135.3,179.9,135.2z"/>
			<path d="M185.7,139.5l-1.3-2.3l-1.3,2.3h-1.2l2-3.2l-1.9-3.1h1.2l1.3,2.2l1.3-2.2h1.2l-1.9,3.1l1.9,3.2H185.7z"/>
			<path d="M189.5,139.6c-0.6,0-0.9-0.1-1.1-0.4c-0.2-0.2-0.1-0.5-0.1-1v-4.1h-1v-0.9h1v-2h1.1v2h1.1v0.9h-1.1v3.6
				c0,0.4,0,0.7,0.1,0.9c0.1,0.1,0.2,0.2,0.4,0.2c0.1,0,0.4,0,0.7-0.1v0.9C190.5,139.5,189.9,139.6,189.5,139.6z"/>
			<path d="M194.4,134.3c-0.6,0.1-1.1,0.5-1.3,1.2c-0.1,0.3-0.1,0.5-0.1,1.2v2.9h-1.1v-6.3h1.1v1.2c0.1-0.3,0.3-0.5,0.6-0.7
				s0.8-0.5,1.6-0.5v1.2C194.8,134.2,194.6,134.2,194.4,134.3z"/>
			<path d="M201.2,139.6c-0.1,0-0.4,0-0.7-0.2c-0.1-0.1-0.2-0.2-0.2-0.2c-0.2-0.2-0.2-0.4-0.2-0.5c-0.3,0.3-0.9,1-2.2,1
				c-0.4,0-0.7-0.1-0.9-0.1c-0.8-0.3-1.3-0.9-1.3-1.7c0-0.3,0.1-0.9,0.7-1.4c0.6-0.5,1.8-0.7,2.6-0.7l1-0.1c0-0.2,0-0.3,0-0.5
				c0-0.5-0.1-1.4-1.4-1.4c-0.2,0-1,0-1.3,0.8c-0.1,0.2-0.1,0.3-0.1,0.6l-1.1-0.1c0-0.1,0-0.3,0.1-0.6c0.2-0.6,0.8-1.5,2.3-1.5
				c0.2,0,0.5,0,1,0.1c0.3,0.1,1.1,0.3,1.4,1.2c0.1,0.3,0.1,0.7,0.1,1.4v2.1c0,0.1,0,0.3,0,0.4c0,0.1,0,0.5,0.5,0.5
				c0.1,0,0.2,0,0.3-0.1v0.9C201.5,139.6,201.3,139.6,201.2,139.6z M200,136.6v-0.1c-0.5,0.1-1.8,0.2-2.3,0.5
				c-0.2,0.1-0.8,0.3-0.8,1c0,0.5,0.3,0.9,1.2,0.9c0.6,0,1.9-0.2,1.9-1.9C200,136.8,200,136.7,200,136.6z"/>
			<path d="M207.1,139.5l-2.3-3l-0.8,0.8v2.2H203v-9.5h1.1v5.8l2.5-2.7h1.3l-2.3,2.5l2.9,3.8H207.1z"/>
			<path d="M214.3,138.7c-0.3,0.4-1,1.1-2.3,1.1c-0.4,0-1.4,0-2.2-0.8c-0.4-0.4-0.9-1.2-0.9-2.5c0-0.8,0.2-1.6,0.7-2.3
				c0.6-0.8,1.4-1.1,2.4-1.1c0.4,0,0.9,0.1,1.3,0.2c0.7,0.3,1.8,1.2,1.8,3.1C215,136.7,215,137.8,214.3,138.7z M213.6,134.8
				c-0.1-0.2-0.2-0.4-0.4-0.5c-0.5-0.4-1-0.4-1.2-0.4c-2,0-2,2.2-2,2.6c0,0.3,0,0.5,0.1,0.6c0.1,0.5,0.4,1.8,1.9,1.8
				c0.3,0,1-0.1,1.5-0.8c0.4-0.6,0.4-1.6,0.4-1.7C213.9,136.2,213.9,135.4,213.6,134.8z"/>
			<path d="M220.7,139.5v-4c0-0.2,0.1-0.8-0.5-1.2c-0.2-0.1-0.5-0.3-1-0.3c-0.5,0-0.8,0.1-1.2,0.5c-0.1,0.1-0.3,0.3-0.4,0.6
				c-0.1,0.3-0.1,0.6-0.1,0.9v3.6h-1.1v-6.3h1.1v0.9c0.1-0.2,0.3-0.4,0.3-0.4c0.2-0.2,0.8-0.7,1.6-0.7c0.3,0,1.2,0.1,1.8,0.9
				c0.4,0.6,0.4,1.2,0.4,1.9v3.8H220.7z"/>
			<path d="M222.9,139.5v-0.9l3.6-4.5h-3.3v-0.9h4.6v0.9l-3.7,4.6h3.8v0.9H222.9z"/>
			<path d="M234.4,138.5c-0.3,0.5-1,1.2-2.4,1.2c-0.7,0-1.1-0.1-1.3-0.3c-0.8-0.3-1.8-1.2-1.8-3.2c0-1.2,0.4-1.8,0.7-2.2
				c0.6-0.7,1.4-1.1,2.3-1.1c0.3,0,0.7,0.1,1,0.2c0.4,0.1,1.2,0.5,1.6,1.5c0.2,0.4,0.3,0.9,0.3,1.9H230c0,1.1,0.5,1.8,0.9,2
				c0.3,0.2,0.7,0.3,1.1,0.3c0.6,0,0.9-0.2,1.1-0.4c0.1-0.1,0.2-0.2,0.3-0.4c0.2-0.3,0.2-0.6,0.3-0.7l1.1,0.1
				C234.8,137.7,234.7,138.1,234.4,138.5z M233.6,135.2c-0.2-0.8-0.9-1.3-1.7-1.3c-1.1,0-1.7,0.9-1.8,1.9h3.6
				C233.6,135.5,233.6,135.3,233.6,135.2z"/>
			<path d="M238.7,134.3c-0.6,0.1-1.1,0.5-1.3,1.2c-0.1,0.3-0.1,0.5-0.1,1.2v2.9h-1.1v-6.3h1.1v1.2c0.1-0.3,0.3-0.5,0.6-0.7
				s0.8-0.5,1.6-0.5v1.2C239.1,134.2,238.9,134.2,238.7,134.3z"/>
			<path d="M242.1,139.6c-0.6,0-0.9-0.1-1.1-0.4c-0.2-0.2-0.1-0.5-0.1-1v-4.1h-1v-0.9h1v-2h1.1v2h1.1v0.9H242v3.6
				c0,0.4,0,0.7,0.1,0.9c0.1,0.1,0.2,0.2,0.4,0.2c0.1,0,0.4,0,0.7-0.1v0.9C243.1,139.5,242.6,139.6,242.1,139.6z"/>
		</g>
	</g>
	<g>
		<g>
			<path d="M165.7,220.5h-1l-2.3-6.3h1.1l1.7,4.8l1.7-4.8h1.1L165.7,220.5z"/>
			<path d="M168.6,212.3V211h1v1.2H168.6z M168.6,220.5v-6.3h1v6.3H168.6z"/>
			<path d="M176,219.7c-0.3,0.4-1,1.1-2.3,1.1c-0.4,0-1.4,0-2.2-0.8c-0.4-0.4-0.9-1.2-0.9-2.5c0-0.8,0.2-1.6,0.7-2.3
				c0.6-0.8,1.4-1.1,2.4-1.1c0.4,0,0.9,0.1,1.3,0.2c0.7,0.3,1.8,1.2,1.8,3.1C176.7,217.7,176.6,218.8,176,219.7z M175.2,215.7
				c-0.1-0.2-0.2-0.4-0.4-0.5c-0.5-0.4-1-0.4-1.2-0.4c-2,0-2,2.2-2,2.6c0,0.3,0,0.5,0.1,0.6c0.1,0.5,0.4,1.8,1.9,1.8
				c0.3,0,1-0.1,1.5-0.8c0.4-0.6,0.4-1.6,0.4-1.7C175.5,217.2,175.5,216.4,175.2,215.7z"/>
			<path d="M177.7,220.5V211h1v9.5H177.7z"/>
			<path d="M180,212.3V211h1v1.2H180z M180,220.5v-6.3h1v6.3H180z"/>
			<path d="M186.4,220.5v-4c0-0.2,0.1-0.8-0.5-1.2c-0.2-0.1-0.5-0.3-1-0.3c-0.5,0-0.8,0.1-1.2,0.5c-0.1,0.1-0.3,0.3-0.4,0.6
				c-0.1,0.3-0.1,0.6-0.1,0.9v3.6h-1.1v-6.3h1.1v0.9c0.1-0.2,0.3-0.4,0.3-0.4c0.2-0.2,0.8-0.7,1.6-0.7c0.3,0,1.2,0.1,1.8,0.9
				c0.4,0.6,0.4,1.2,0.4,1.9v3.8H186.4z"/>
			<path d="M192.9,220.5l-2.3-3l-0.8,0.8v2.2h-1.1V211h1.1v5.8l2.5-2.7h1.3l-2.3,2.5l2.9,3.8H192.9z"/>
			<path d="M199.6,219.7c-0.3,0.4-1,1.1-2.3,1.1c-0.4,0-1.4,0-2.2-0.8c-0.4-0.4-0.9-1.2-0.9-2.5c0-0.8,0.2-1.6,0.7-2.3
				c0.6-0.8,1.4-1.1,2.4-1.1c0.4,0,0.9,0.1,1.3,0.2c0.7,0.3,1.8,1.2,1.8,3.1C200.3,217.7,200.3,218.8,199.6,219.7z M198.8,215.7
				c-0.1-0.2-0.2-0.4-0.4-0.5c-0.5-0.4-1-0.4-1.2-0.4c-2,0-2,2.2-2,2.6c0,0.3,0,0.5,0.1,0.6c0.1,0.5,0.4,1.8,1.9,1.8
				c0.3,0,1-0.1,1.5-0.8c0.4-0.6,0.4-1.6,0.4-1.7C199.2,217.2,199.2,216.4,198.8,215.7z"/>
			<path d="M205.4,220.5v-4c0-0.2,0.1-0.8-0.5-1.2c-0.2-0.1-0.5-0.3-1-0.3c-0.5,0-0.8,0.1-1.2,0.5c-0.1,0.1-0.3,0.3-0.4,0.6
				c-0.1,0.3-0.1,0.6-0.1,0.9v3.6h-1.1v-6.3h1.1v0.9c0.1-0.2,0.3-0.4,0.3-0.4c0.2-0.2,0.8-0.7,1.6-0.7c0.3,0,1.2,0.1,1.8,0.9
				c0.4,0.6,0.4,1.2,0.4,1.9v3.8H205.4z"/>
			<path d="M207.1,220.5v-0.9l3.6-4.5h-3.3v-0.9h4.6v0.9l-3.7,4.6h3.8v0.9H207.1z"/>
			<path d="M218.1,219.5c-0.3,0.5-1,1.2-2.4,1.2c-0.7,0-1.1-0.1-1.3-0.3c-0.8-0.3-1.8-1.2-1.8-3.2c0-1.2,0.4-1.8,0.7-2.2
				c0.6-0.7,1.4-1.1,2.3-1.1c0.3,0,0.7,0.1,1,0.2c0.4,0.1,1.2,0.5,1.6,1.5c0.2,0.4,0.3,0.9,0.3,1.9h-4.8c0,1.1,0.5,1.8,0.9,2
				c0.3,0.2,0.7,0.3,1.1,0.3c0.6,0,0.9-0.2,1.1-0.4c0.1-0.1,0.2-0.2,0.3-0.4c0.2-0.3,0.2-0.6,0.3-0.7l1.1,0.1
				C218.5,218.7,218.3,219.1,218.1,219.5z M217.3,216.2c-0.2-0.8-0.9-1.3-1.7-1.3c-1.1,0-1.7,0.9-1.8,1.9h3.6
				C217.3,216.4,217.3,216.3,217.3,216.2z"/>
			<path d="M221.9,215.3c-0.6,0.1-1.1,0.5-1.3,1.2c-0.1,0.3-0.1,0.5-0.1,1.2v2.9h-1.1v-6.3h1.1v1.2c0.1-0.3,0.3-0.5,0.6-0.7
				s0.8-0.5,1.6-0.5v1.2C222.3,215.2,222.1,215.2,221.9,215.3z"/>
			<path d="M224.7,220.6c-0.6,0-0.9-0.1-1.1-0.4c-0.2-0.2-0.1-0.5-0.1-1v-4.1h-1v-0.9h1v-2h1.1v2h1.1v0.9h-1.1v3.6
				c0,0.4,0,0.7,0.1,0.9c0.1,0.1,0.2,0.2,0.4,0.2c0.1,0,0.4,0,0.7-0.1v0.9C225.7,220.5,225.2,220.6,224.7,220.6z"/>
			<path d="M229.8,212.3V211h1v1.2H229.8z M229.8,220.5v-6.3h1v6.3H229.8z"/>
			<path d="M236.3,220.5v-4c0-0.2,0.1-0.8-0.5-1.2c-0.2-0.1-0.5-0.3-1-0.3c-0.5,0-0.8,0.1-1.2,0.5c-0.1,0.1-0.3,0.3-0.4,0.6
				c-0.1,0.3-0.1,0.6-0.1,0.9v3.6h-1.1v-6.3h1.1v0.9c0.1-0.2,0.3-0.4,0.3-0.4c0.2-0.2,0.8-0.7,1.6-0.7c0.3,0,1.2,0.1,1.8,0.9
				c0.4,0.6,0.4,1.2,0.4,1.9v3.8H236.3z"/>
			<path d="M246.5,220.5v-0.8c-0.3,0.4-0.9,1-2.2,1c-1.2,0-1.8-0.6-2.1-1c-0.4-0.4-0.8-1.2-0.8-2.4c0-0.8,0.1-1.6,0.6-2.2
				c0.3-0.4,1-1.1,2.3-1.1c0.9,0,1.5,0.4,1.8,0.6c0.2,0.1,0.3,0.2,0.4,0.4v-4h1.1v9.5H246.5z M246.4,216.5c-0.2-0.9-0.9-1.5-1.9-1.6
				c-0.3,0-1,0-1.5,0.7c-0.4,0.5-0.5,1.1-0.5,1.7c0,0.2,0,1,0.5,1.7c0.5,0.7,1.2,0.7,1.5,0.7c0.4,0,0.7-0.1,1-0.3
				c0.5-0.3,1-0.9,1-2.1C246.5,217.2,246.5,216.9,246.4,216.5z"/>
			<path d="M251.7,217v-1h3.8v1H251.7z"/>
			<path d="M261.2,220.5v-0.8c-0.3,0.4-0.9,1-2.2,1c-1.2,0-1.8-0.6-2.1-1c-0.4-0.4-0.8-1.2-0.8-2.4c0-0.8,0.1-1.6,0.6-2.2
				c0.3-0.4,1-1.1,2.3-1.1c0.9,0,1.5,0.4,1.8,0.6c0.2,0.1,0.3,0.2,0.4,0.4v-4h1.1v9.5H261.2z M261.2,216.5c-0.2-0.9-0.9-1.5-1.9-1.6
				c-0.3,0-1,0-1.5,0.7c-0.4,0.5-0.5,1.1-0.5,1.7c0,0.2,0,1,0.5,1.7c0.5,0.7,1.2,0.7,1.5,0.7c0.4,0,0.7-0.1,1-0.3
				c0.5-0.3,1-0.9,1-2.1C261.3,217.2,261.3,216.9,261.2,216.5z"/>
			<path d="M267.7,220.5l0-1c-0.1,0.1-0.1,0.2-0.3,0.3c-0.5,0.5-1.2,0.8-1.9,0.8c-0.2,0-1.2,0-1.7-0.8c-0.4-0.6-0.3-1.3-0.3-1.9
				v-3.7h1.1v3.6c0,0.7,0,1,0.1,1.3c0.1,0.3,0.5,0.6,1.2,0.6c0.2,0,1-0.1,1.5-0.7c0.3-0.5,0.3-1,0.3-1.6v-3.2h1v6.3H267.7z"/>
			<path d="M272.5,215.3c-0.6,0.1-1.1,0.5-1.3,1.2c-0.1,0.3-0.1,0.5-0.1,1.2v2.9h-1.1v-6.3h1.1v1.2c0.1-0.3,0.3-0.5,0.6-0.7
				c0.3-0.2,0.8-0.5,1.6-0.5v1.2C272.9,215.2,272.7,215.2,272.5,215.3z"/>
			<path d="M273.8,220.5V219h1.3v1.5H273.8z"/>
			<path d="M284.7,219.7c-0.3,0.4-1,1.1-2.3,1.1c-0.4,0-1.4,0-2.2-0.8c-0.4-0.4-0.9-1.2-0.9-2.5c0-0.8,0.2-1.6,0.7-2.3
				c0.6-0.8,1.4-1.1,2.4-1.1c0.4,0,0.9,0.1,1.3,0.2c0.7,0.3,1.8,1.2,1.8,3.1C285.5,217.7,285.4,218.8,284.7,219.7z M284,215.7
				c-0.1-0.2-0.2-0.4-0.4-0.5c-0.5-0.4-1-0.4-1.2-0.4c-2,0-2,2.2-2,2.6c0,0.3,0,0.5,0.1,0.6c0.1,0.5,0.4,1.8,1.9,1.8
				c0.3,0,1-0.1,1.5-0.8c0.4-0.6,0.4-1.6,0.4-1.7C284.3,217.2,284.3,216.4,284,215.7z"/>
			<path d="M291.9,219.7c-0.3,0.4-1,1.1-2.3,1.1c-0.3,0-1.1,0-1.8-0.6c-0.1-0.1-0.2-0.2-0.3-0.3v3.7h-1v-9.3h1l0,0.9
				c0.1-0.1,0.3-0.3,0.5-0.5c0.7-0.5,1.4-0.6,1.7-0.6c0.6,0,1.1,0.2,1.3,0.4c0.7,0.4,1.5,1.2,1.5,3
				C292.5,217.7,292.5,218.8,291.9,219.7z M291.3,216.3c-0.1-0.4-0.6-1.3-1.9-1.3c-0.3,0-0.7,0.1-1,0.3c-0.4,0.3-1,0.9-1,2.2
				c0,0.9,0.3,1.3,0.5,1.7c0.2,0.2,0.4,0.4,0.7,0.5c0.1,0.1,0.4,0.2,0.8,0.2c0.9,0,1.3-0.4,1.5-0.7c0.5-0.7,0.5-1.5,0.5-1.7
				C291.4,217.2,291.4,216.7,291.3,216.3z"/>
			<path d="M293.4,220.5V219h1.3v1.5H293.4z"/>
			<path d="M305.2,218.7c-0.4,1.2-1.5,1.9-2.8,1.9c-0.5,0-1.7-0.1-2.5-1.3c-0.4-0.7-0.7-1.5-0.7-3.2c0-0.3,0-1.6,0.4-2.7
				c0.1-0.4,0.3-0.7,0.5-1c0.3-0.4,0.8-0.7,1.3-0.9c0.2-0.1,0.5-0.2,1-0.2c0.2,0,0.6,0,1.1,0.2c1,0.4,1.4,1.1,1.7,2.1l-1.2,0.2
				c-0.1-0.6-0.3-1.1-1-1.4c-0.1,0-0.3-0.1-0.6-0.1c-0.1,0-0.7,0-1.2,0.4c-0.2,0.2-0.5,0.5-0.7,1.1c-0.2,0.7-0.2,1.1-0.3,1.8
				c0,0,0.2-0.2,0.3-0.3c0.3-0.3,0.9-0.8,2-0.8c0.2,0,0.7,0,1.2,0.2c0.6,0.3,1.7,1,1.7,2.7C305.4,217.7,305.4,218.1,305.2,218.7z
				 M304.1,216.9c-0.2-0.5-0.6-1-1.1-1.1c-0.3-0.1-0.5-0.1-0.7-0.1c-0.1,0-0.4,0-0.7,0.1c-0.7,0.3-1.1,1-1.1,1.8
				c0,0.1,0,0.4,0.1,0.8c0.1,0.4,0.6,1.2,1.8,1.2c0.3,0,0.5-0.1,0.7-0.1c0.7-0.3,1.1-1.1,1.1-1.8C304.2,217.2,304.2,217,304.1,216.9
				z"/>
			<path d="M309.2,220.5v-6.6h-1.9v-0.8c1.2,0,1.7-0.3,2-0.8c0.2-0.3,0.3-0.7,0.3-0.8h0.9v9H309.2z"/>
		</g>
	</g>
	<g>
		<g>
			<path d="M168,233.1c-0.3,0.5-1,1-2.4,1c-0.2,0-1.2,0-1.9-0.5c-0.1-0.1-0.3-0.2-0.5-0.4c-0.5-0.5-0.5-1.1-0.6-1.4l1.2-0.2
				c0,0.4,0,0.8,0.3,1.1c0.4,0.4,0.9,0.5,1.4,0.5c0.1,0,0.8,0,1.2-0.4c0.3-0.3,0.3-0.5,0.3-0.7c0-0.1,0-0.3-0.1-0.5
				c-0.2-0.4-0.8-0.5-1.2-0.5l-0.6-0.1c-0.8-0.2-1.2-0.3-1.5-0.5c-0.5-0.3-0.8-0.7-0.8-1.3c0-0.2,0-0.6,0.3-1
				c0.6-0.8,1.9-0.8,2.1-0.8c1.3,0,2.1,0.7,2.4,1.1c0.3,0.4,0.3,0.8,0.3,1l-1.2,0.1c0-0.3,0-0.4-0.1-0.6c-0.2-0.3-0.7-0.8-1.6-0.8
				c-0.9,0-1.2,0.5-1.2,0.9c0,0.1,0,0.2,0.1,0.3c0.2,0.3,0.7,0.5,1.4,0.7l0.6,0.1c0.2,0,0.4,0.1,0.6,0.2c0.8,0.3,1.5,0.7,1.5,1.7
				C168.2,232.3,168.2,232.7,168,233.1z"/>
			<path d="M169.9,236.6c-0.4,0.4-1,0.4-1.2,0.4c-0.2,0-0.5,0-0.7-0.1v-1c0.3,0,0.3,0,0.5,0c0.1,0,0.3,0,0.5-0.1
				c0.2-0.1,0.2-0.4,0.2-0.9v-7.4h1v7.7C170.2,235.8,170.2,236.2,169.9,236.6z M169.2,225.7v-1.2h1v1.2H169.2z"/>
			<path d="M176.8,232.9c-0.3,0.5-1,1.2-2.4,1.2c-0.7,0-1.1-0.1-1.3-0.3c-0.8-0.3-1.8-1.2-1.8-3.2c0-1.2,0.4-1.8,0.7-2.2
				c0.6-0.7,1.4-1.1,2.3-1.1c0.3,0,0.7,0.1,1,0.2c0.4,0.1,1.2,0.5,1.6,1.5c0.2,0.4,0.3,0.9,0.3,1.9h-4.8c0,1.1,0.5,1.8,0.9,2
				c0.3,0.2,0.7,0.3,1.1,0.3c0.6,0,0.9-0.2,1.1-0.4c0.1-0.1,0.2-0.2,0.3-0.4c0.2-0.3,0.2-0.6,0.3-0.7l1.1,0.1
				C177.1,232.1,177,232.5,176.8,232.9z M175.9,229.6c-0.2-0.8-0.9-1.3-1.7-1.3c-1.1,0-1.7,0.9-1.8,1.9h3.6
				C176,229.9,176,229.7,175.9,229.6z"/>
			<path d="M183.7,233.1c-0.4,0.5-0.8,0.7-1,0.8c-0.2,0.1-0.6,0.2-1.2,0.2c-0.8,0-1.2-0.2-1.4-0.4c-0.3-0.2-0.5-0.4-0.7-0.6v0.8
				h-1.1v-9.5h1.1v4c0.1-0.1,0.1-0.2,0.3-0.4c0.5-0.5,1.2-0.7,1.9-0.7c0.4,0,1.4,0.1,2.1,1c0.4,0.4,0.8,1.1,0.8,2.4
				C184.3,231.1,184.3,232.2,183.7,233.1z M182.9,229.4c-0.2-0.3-0.7-1-1.7-1c-0.8,0-1.2,0.4-1.4,0.6c-0.3,0.3-0.6,0.8-0.6,1.8
				c0,0.7,0.1,1.1,0.3,1.4c0.2,0.3,0.7,1,1.7,1c0.4,0,0.7-0.1,1-0.3c0.4-0.3,0.9-1,0.9-2.2C183.2,230.5,183.2,229.9,182.9,229.4z"/>
			<path d="M190.5,232.9c-0.3,0.5-1,1.2-2.4,1.2c-0.7,0-1.1-0.1-1.3-0.3c-0.8-0.3-1.8-1.2-1.8-3.2c0-1.2,0.4-1.8,0.7-2.2
				c0.6-0.7,1.4-1.1,2.3-1.1c0.3,0,0.7,0.1,1,0.2c0.4,0.1,1.2,0.5,1.6,1.5c0.2,0.4,0.3,0.9,0.3,1.9h-4.8c0,1.1,0.5,1.8,0.9,2
				c0.3,0.2,0.7,0.3,1.1,0.3c0.6,0,0.9-0.2,1.1-0.4c0.1-0.1,0.2-0.2,0.3-0.4c0.2-0.3,0.2-0.6,0.3-0.7l1.1,0.1
				C190.9,232.1,190.8,232.5,190.5,232.9z M189.7,229.6c-0.2-0.8-0.9-1.3-1.7-1.3c-1.1,0-1.7,0.9-1.8,1.9h3.6
				C189.8,229.9,189.7,229.7,189.7,229.6z"/>
			<path d="M196.1,233.9v-4c0-0.2,0.1-0.8-0.5-1.2c-0.2-0.1-0.5-0.3-1-0.3c-0.5,0-0.8,0.1-1.2,0.5c-0.1,0.1-0.3,0.3-0.4,0.6
				c-0.1,0.3-0.1,0.6-0.1,0.9v3.6H192v-6.3h1.1v0.9c0.1-0.2,0.3-0.4,0.3-0.4c0.2-0.2,0.8-0.7,1.6-0.7c0.3,0,1.2,0.1,1.8,0.9
				c0.4,0.6,0.4,1.2,0.4,1.9v3.8H196.1z"/>
			<path d="M200.2,234c-0.6,0-0.9-0.1-1.1-0.4c-0.2-0.2-0.1-0.5-0.1-1v-4.1h-1v-0.9h1v-2h1.1v2h1.1v0.9H200v3.6c0,0.4,0,0.7,0.1,0.9
				c0.1,0.1,0.2,0.2,0.4,0.2c0.1,0,0.4,0,0.7-0.1v0.9C201.1,233.9,200.6,234,200.2,234z"/>
			<path d="M207.3,232.9c-0.3,0.5-1,1.2-2.4,1.2c-0.7,0-1.1-0.1-1.3-0.3c-0.8-0.3-1.8-1.2-1.8-3.2c0-1.2,0.4-1.8,0.7-2.2
				c0.6-0.7,1.4-1.1,2.3-1.1c0.3,0,0.7,0.1,1,0.2c0.4,0.1,1.2,0.5,1.6,1.5c0.2,0.4,0.3,0.9,0.3,1.9h-4.8c0,1.1,0.5,1.8,0.9,2
				c0.3,0.2,0.7,0.3,1.1,0.3c0.6,0,0.9-0.2,1.1-0.4c0.1-0.1,0.2-0.2,0.3-0.4c0.2-0.3,0.2-0.6,0.3-0.7l1.1,0.1
				C207.7,232.1,207.6,232.5,207.3,232.9z M206.5,229.6c-0.2-0.8-0.9-1.3-1.7-1.3c-1.1,0-1.7,0.9-1.8,1.9h3.6
				C206.5,229.9,206.5,229.7,206.5,229.6z"/>
			<path d="M216.8,233.1c-0.3,0.5-1,1-2.4,1c-0.2,0-1.2,0-1.9-0.5c-0.1-0.1-0.3-0.2-0.5-0.4c-0.5-0.5-0.5-1.1-0.6-1.4l1.2-0.2
				c0,0.4,0,0.8,0.3,1.1c0.4,0.4,0.9,0.5,1.4,0.5c0.1,0,0.8,0,1.2-0.4c0.3-0.3,0.3-0.5,0.3-0.7c0-0.1,0-0.3-0.1-0.5
				c-0.2-0.4-0.8-0.5-1.2-0.5l-0.6-0.1c-0.8-0.2-1.2-0.3-1.5-0.5c-0.5-0.3-0.8-0.7-0.8-1.3c0-0.2,0-0.6,0.3-1
				c0.6-0.8,1.9-0.8,2.1-0.8c1.3,0,2.1,0.7,2.4,1.1c0.3,0.4,0.3,0.8,0.3,1l-1.2,0.1c0-0.3,0-0.4-0.1-0.6c-0.2-0.3-0.7-0.8-1.6-0.8
				c-0.9,0-1.2,0.5-1.2,0.9c0,0.1,0,0.2,0.1,0.3c0.2,0.3,0.7,0.5,1.4,0.7l0.6,0.1c0.2,0,0.4,0.1,0.6,0.2c0.8,0.3,1.5,0.7,1.5,1.7
				C217.1,232.3,217.1,232.7,216.8,233.1z"/>
			<path d="M218.1,225.7v-1.2h1v1.2H218.1z M218.1,233.9v-6.3h1v6.3H218.1z"/>
			<path d="M224.6,233.9v-4c0-0.2,0.1-0.8-0.5-1.2c-0.2-0.1-0.5-0.3-1-0.3c-0.5,0-0.8,0.1-1.2,0.5c-0.1,0.1-0.3,0.3-0.4,0.6
				c-0.1,0.3-0.1,0.6-0.1,0.9v3.6h-1.1v-6.3h1.1v0.9c0.1-0.2,0.3-0.4,0.3-0.4c0.2-0.2,0.8-0.7,1.6-0.7c0.3,0,1.2,0.1,1.8,0.9
				c0.4,0.6,0.4,1.2,0.4,1.9v3.8H224.6z"/>
			<path d="M229.8,225.5c0,0-0.3-0.1-0.6-0.1c-0.1,0-0.5,0-0.7,0.4c-0.1,0.2-0.1,0.3-0.1,0.8v1.1h1.2v0.9h-1.2v5.4h-1v-5.4h-1v-0.9
				h1v-0.5c0-0.9,0-1.3,0.2-1.7c0.3-0.9,1.3-0.9,1.5-0.9c0.1,0,0.4,0,0.8,0.1L229.8,225.5z"/>
			<path d="M235.5,233.1c-0.3,0.4-1,1.1-2.3,1.1c-0.4,0-1.4,0-2.2-0.8c-0.4-0.4-0.9-1.2-0.9-2.5c0-0.8,0.2-1.6,0.7-2.3
				c0.6-0.8,1.4-1.1,2.4-1.1c0.4,0,0.9,0.1,1.3,0.2c0.7,0.3,1.8,1.2,1.8,3.1C236.2,231.1,236.2,232.2,235.5,233.1z M234.7,229.2
				c-0.1-0.2-0.2-0.4-0.4-0.5c-0.5-0.4-1-0.4-1.2-0.4c-2,0-2,2.2-2,2.6c0,0.3,0,0.5,0.1,0.6c0.1,0.5,0.4,1.8,1.9,1.8
				c0.3,0,1-0.1,1.5-0.8c0.4-0.6,0.4-1.6,0.4-1.7C235.1,230.6,235.1,229.8,234.7,229.2z"/>
			<path d="M241.4,233.9v-4c0-0.2,0.1-0.8-0.5-1.2c-0.2-0.1-0.5-0.3-1-0.3c-0.5,0-0.8,0.1-1.2,0.5c-0.1,0.1-0.3,0.3-0.4,0.6
				c-0.1,0.3-0.1,0.6-0.1,0.9v3.6h-1.1v-6.3h1.1v0.9c0.1-0.2,0.3-0.4,0.3-0.4c0.2-0.2,0.8-0.7,1.6-0.7c0.3,0,1.2,0.1,1.8,0.9
				c0.4,0.6,0.4,1.2,0.4,1.9v3.8H241.4z"/>
			<path d="M243.9,225.7v-1.2h1v1.2H243.9z M243.9,233.9v-6.3h1v6.3H243.9z"/>
			<path d="M251.4,232.9c-0.3,0.5-1,1.2-2.4,1.2c-0.7,0-1.1-0.1-1.3-0.3c-0.8-0.3-1.8-1.2-1.8-3.2c0-1.2,0.4-1.8,0.7-2.2
				c0.6-0.7,1.4-1.1,2.3-1.1c0.3,0,0.7,0.1,1,0.2c0.4,0.1,1.2,0.5,1.6,1.5c0.2,0.4,0.3,0.9,0.3,1.9h-4.8c0,1.1,0.5,1.8,0.9,2
				c0.3,0.2,0.7,0.3,1.1,0.3c0.6,0,0.9-0.2,1.1-0.4c0.1-0.1,0.2-0.2,0.3-0.4c0.2-0.3,0.2-0.6,0.3-0.7l1.1,0.1
				C251.8,232.1,251.7,232.5,251.4,232.9z M250.6,229.6c-0.2-0.8-0.9-1.3-1.7-1.3c-1.1,0-1.7,0.9-1.8,1.9h3.6
				C250.7,229.9,250.6,229.7,250.6,229.6z"/>
			<path d="M256.2,225.7v-1.2h1v1.2H256.2z M256.2,233.9v-6.3h1v6.3H256.2z"/>
			<path d="M262.7,233.9v-4c0-0.2,0.1-0.8-0.5-1.2c-0.2-0.1-0.5-0.3-1-0.3c-0.5,0-0.8,0.1-1.2,0.5c-0.1,0.1-0.3,0.3-0.4,0.6
				c-0.1,0.3-0.1,0.6-0.1,0.9v3.6h-1.1v-6.3h1.1v0.9c0.1-0.2,0.3-0.4,0.3-0.4c0.2-0.2,0.8-0.7,1.6-0.7c0.3,0,1.2,0.1,1.8,0.9
				c0.4,0.6,0.4,1.2,0.4,1.9v3.8H262.7z"/>
			<path d="M273.4,234c-0.1,0-0.4,0-0.7-0.2c-0.1-0.1-0.2-0.2-0.2-0.2c-0.2-0.2-0.2-0.4-0.2-0.5c-0.3,0.3-0.9,1-2.2,1
				c-0.4,0-0.7-0.1-0.9-0.1c-0.8-0.3-1.3-0.9-1.3-1.7c0-0.3,0.1-0.9,0.7-1.4c0.6-0.5,1.8-0.7,2.6-0.7l1-0.1c0-0.2,0-0.3,0-0.5
				c0-0.5-0.1-1.4-1.4-1.4c-0.2,0-1,0-1.3,0.8c-0.1,0.2-0.1,0.3-0.1,0.6l-1.1-0.1c0-0.1,0-0.3,0.1-0.6c0.2-0.6,0.8-1.5,2.3-1.5
				c0.2,0,0.5,0,1,0.1c0.3,0.1,1.1,0.3,1.4,1.2c0.1,0.3,0.1,0.7,0.1,1.4v2.1c0,0.1,0,0.3,0,0.4c0,0.1,0,0.5,0.5,0.5
				c0.1,0,0.2,0,0.3-0.1v0.9C273.7,234,273.6,234,273.4,234z M272.2,231v-0.1c-0.5,0.1-1.8,0.2-2.3,0.5c-0.2,0.1-0.8,0.3-0.8,1
				c0,0.5,0.3,0.9,1.2,0.9c0.6,0,1.9-0.2,1.9-1.9C272.2,231.2,272.2,231.1,272.2,231z"/>
			<path d="M274.5,230.4v-1h3.8v1H274.5z"/>
			<path d="M284.1,233.9v-0.8c-0.3,0.4-0.9,1-2.2,1c-1.2,0-1.8-0.6-2.1-1c-0.4-0.4-0.8-1.2-0.8-2.4c0-0.8,0.1-1.6,0.6-2.2
				c0.3-0.4,1-1.1,2.3-1.1c0.9,0,1.5,0.4,1.8,0.6c0.2,0.1,0.3,0.2,0.4,0.4v-4h1.1v9.5H284.1z M284,229.9c-0.2-0.9-0.9-1.5-1.9-1.6
				c-0.3,0-1,0-1.5,0.7c-0.4,0.5-0.5,1.1-0.5,1.7c0,0.2,0,1,0.5,1.7c0.5,0.7,1.2,0.7,1.5,0.7c0.4,0,0.7-0.1,1-0.3
				c0.5-0.3,1-0.9,1-2.1C284.1,230.6,284.1,230.3,284,229.9z"/>
			<path d="M290.7,233.9l0-1c-0.1,0.1-0.1,0.2-0.3,0.3c-0.5,0.5-1.2,0.8-1.9,0.8c-0.2,0-1.2,0-1.7-0.8c-0.4-0.6-0.3-1.3-0.3-1.9
				v-3.7h1.1v3.6c0,0.7,0,1,0.1,1.3c0.1,0.3,0.5,0.6,1.2,0.6c0.2,0,1-0.1,1.5-0.7c0.3-0.5,0.3-1,0.3-1.6v-3.2h1v6.3H290.7z"/>
			<path d="M295.6,228.7c-0.6,0.1-1.1,0.5-1.3,1.2c-0.1,0.3-0.1,0.5-0.1,1.2v2.9h-1.1v-6.3h1.1v1.2c0.1-0.3,0.3-0.5,0.6-0.7
				s0.8-0.5,1.6-0.5v1.2C296,228.6,295.7,228.6,295.6,228.7z"/>
			<path d="M296.9,233.9v-1.5h1.3v1.5H296.9z"/>
			<path d="M308,233.1c-0.3,0.4-1,1.1-2.3,1.1c-0.4,0-1.4,0-2.2-0.8c-0.4-0.4-0.9-1.2-0.9-2.5c0-0.8,0.2-1.6,0.7-2.3
				c0.6-0.8,1.4-1.1,2.4-1.1c0.4,0,0.9,0.1,1.3,0.2c0.7,0.3,1.8,1.2,1.8,3.1C308.8,231.1,308.7,232.2,308,233.1z M307.3,229.2
				c-0.1-0.2-0.2-0.4-0.4-0.5c-0.5-0.4-1-0.4-1.2-0.4c-2,0-2,2.2-2,2.6c0,0.3,0,0.5,0.1,0.6c0.1,0.5,0.4,1.8,1.9,1.8
				c0.3,0,1-0.1,1.5-0.8c0.4-0.6,0.4-1.6,0.4-1.7C307.6,230.6,307.6,229.8,307.3,229.2z"/>
			<path d="M315.2,233.1c-0.3,0.4-1,1.1-2.3,1.1c-0.3,0-1.1,0-1.8-0.6c-0.1-0.1-0.2-0.2-0.3-0.3v3.7h-1v-9.3h1l0,0.9
				c0.1-0.1,0.3-0.3,0.5-0.5c0.7-0.5,1.4-0.6,1.7-0.6c0.6,0,1.1,0.2,1.3,0.4c0.7,0.4,1.5,1.2,1.5,3
				C315.9,231.1,315.9,232.2,315.2,233.1z M314.7,229.7c-0.1-0.4-0.6-1.3-1.9-1.3c-0.3,0-0.7,0.1-1,0.3c-0.4,0.3-1,0.9-1,2.2
				c0,0.9,0.3,1.3,0.5,1.7c0.2,0.2,0.4,0.4,0.7,0.5c0.1,0.1,0.4,0.2,0.8,0.2c0.9,0,1.3-0.4,1.5-0.7c0.5-0.7,0.5-1.5,0.5-1.7
				C314.8,230.6,314.8,230.1,314.7,229.7z"/>
			<path d="M316.9,233.9v-1.5h1.3v1.5H316.9z"/>
			<path d="M328.1,233c-0.1,0.1-0.4,0.5-0.8,0.7c-0.3,0.2-0.8,0.3-1.5,0.3c-0.4,0-0.7-0.1-0.8-0.1c-0.3-0.1-1.1-0.4-1.5-1.3
				c-0.1-0.2-0.2-0.4-0.3-0.9l1.2-0.2c0,0.1,0.1,0.5,0.3,0.8c0.3,0.4,0.8,0.6,1.3,0.6c0.2,0,0.8,0,1.2-0.5c0.6-0.6,0.9-1.8,0.9-2.7
				c-0.3,0.4-0.9,1.2-2.2,1.2c-1.8,0-3-1.3-3-3c0-0.3,0.1-1.4,0.8-2.3c0.3-0.4,1-0.9,2.2-0.9c0.4,0,1.3,0,2.1,0.8
				c0.7,0.6,1.2,1.7,1.2,3.7C329.1,229.7,329.1,231.7,328.1,233z M327.7,227.3c-0.3-0.9-1-1.5-1.9-1.5c-0.5,0-0.9,0.2-1.1,0.3
				c-0.8,0.5-0.8,1.6-0.8,1.9c0,0.4,0.1,0.6,0.1,0.8c0.2,0.4,0.6,1.1,1.7,1.1c0.3,0,0.5,0,0.8-0.1c0.4-0.1,1.2-0.5,1.2-1.7
				C327.8,228,327.8,227.7,327.7,227.3z"/>
			<path d="M330.5,233.9l0-1.2c0.2-0.1,0.4-0.2,0.6-0.3c0.4-0.2,1.3-0.9,2.2-1.8c0.9-0.8,1.8-1.8,1.8-3.1c0-1.1-0.6-1.7-1.7-1.7
				c-0.7,0-1.2,0.3-1.4,0.5c-0.1,0.2-0.2,0.4-0.2,0.5c-0.1,0.3-0.1,0.6-0.1,0.8c0,0.3,0,0.5,0.2,1.1h-1.2c-0.1-0.2-0.2-0.5-0.2-1.1
				c0-0.3,0-1.4,0.8-2.1c0.3-0.3,1-0.7,2.1-0.7c0.3,0,1.2,0,1.9,0.7c0.6,0.5,1,1.4,1,2.2c0,0.7-0.2,1.6-1.2,2.8
				c-0.2,0.3-0.5,0.5-1,1c-0.3,0.3-0.7,0.6-1.1,0.8c-0.3,0.2-0.6,0.4-0.9,0.6h4.3v1H330.5z"/>
		</g>
	</g>
	<g>
		<g>
			<path d="M167.8,153.9v-0.8c-0.3,0.4-0.9,1-2.2,1c-1.2,0-1.8-0.6-2.1-1c-0.4-0.4-0.8-1.2-0.8-2.4c0-0.8,0.1-1.6,0.6-2.2
				c0.3-0.4,1-1.1,2.3-1.1c0.9,0,1.5,0.4,1.8,0.6c0.2,0.1,0.3,0.2,0.4,0.4v-4h1.1v9.5H167.8z M167.8,149.9c-0.2-0.9-0.9-1.5-1.9-1.6
				c-0.3,0-1,0-1.5,0.7c-0.4,0.5-0.5,1.1-0.5,1.7c0,0.2,0,1,0.5,1.7c0.5,0.7,1.2,0.7,1.5,0.7c0.4,0,0.7-0.1,1-0.3
				c0.5-0.3,1-0.9,1-2.1C167.9,150.6,167.9,150.2,167.8,149.9z"/>
			<path d="M175.7,152.8c-0.3,0.5-1,1.2-2.4,1.2c-0.7,0-1.1-0.1-1.3-0.3c-0.8-0.3-1.8-1.2-1.8-3.2c0-1.2,0.4-1.8,0.7-2.2
				c0.6-0.7,1.4-1.1,2.3-1.1c0.3,0,0.7,0.1,1,0.2c0.4,0.1,1.2,0.5,1.6,1.5c0.2,0.4,0.3,0.9,0.3,1.9h-4.8c0,1.1,0.5,1.8,0.9,2
				c0.3,0.2,0.7,0.3,1.1,0.3c0.6,0,0.9-0.2,1.1-0.4c0.1-0.1,0.2-0.2,0.3-0.4c0.2-0.3,0.2-0.6,0.3-0.7l1.1,0.1
				C176,152.1,175.9,152.4,175.7,152.8z M174.8,149.5c-0.2-0.8-0.9-1.3-1.7-1.3c-1.1,0-1.7,0.9-1.8,1.9h3.6
				C174.9,149.8,174.9,149.6,174.8,149.5z"/>
			<path d="M179.7,148.6c-0.6,0.1-1.1,0.5-1.3,1.2c-0.1,0.3-0.1,0.5-0.1,1.2v2.9h-1.1v-6.3h1.1v1.2c0.1-0.3,0.3-0.5,0.6-0.7
				s0.8-0.5,1.6-0.5v1.2C180.1,148.6,179.9,148.6,179.7,148.6z"/>
			<path d="M186.3,154c-0.6,0-0.9-0.1-1.1-0.4c-0.2-0.2-0.1-0.5-0.1-1v-4.1h-1v-0.9h1v-2h1.1v2h1.1v0.9h-1.1v3.6
				c0,0.4,0,0.7,0.1,0.9c0.1,0.1,0.2,0.2,0.4,0.2c0.1,0,0.4,0,0.7-0.1v0.9C187.2,153.9,186.7,154,186.3,154z"/>
			<path d="M193.6,153c-0.3,0.4-1,1.1-2.3,1.1c-0.4,0-1.4,0-2.2-0.8c-0.4-0.4-0.9-1.2-0.9-2.5c0-0.8,0.2-1.6,0.7-2.3
				c0.6-0.8,1.4-1.1,2.4-1.1c0.4,0,0.9,0.1,1.3,0.2c0.7,0.3,1.8,1.2,1.8,3.1C194.3,151.1,194.3,152.1,193.6,153z M192.8,149.1
				c-0.1-0.2-0.2-0.4-0.4-0.5c-0.5-0.4-1-0.4-1.2-0.4c-2,0-2,2.2-2,2.6c0,0.3,0,0.5,0.1,0.6c0.1,0.5,0.4,1.8,1.9,1.8
				c0.3,0,1-0.1,1.5-0.8c0.4-0.6,0.4-1.6,0.4-1.7C193.2,150.5,193.2,149.7,192.8,149.1z"/>
			<path d="M199.7,153.9v-4c0-0.2,0.1-0.8-0.5-1.2c-0.2-0.1-0.5-0.3-1-0.3c-0.5,0-0.8,0.1-1.2,0.5c-0.1,0.1-0.3,0.3-0.4,0.6
				c-0.1,0.3-0.1,0.6-0.1,0.9v3.6h-1.1v-6.3h1.1v0.9c0.1-0.2,0.3-0.4,0.3-0.4c0.2-0.2,0.8-0.7,1.6-0.7c0.3,0,1.2,0.1,1.8,0.9
				c0.4,0.6,0.4,1.2,0.4,1.9v3.8H199.7z"/>
			<path d="M206.5,153.9v-3.3c0-0.4,0-1-0.1-1.4c-0.2-0.6-0.7-0.8-1.3-0.8c-0.3,0-1,0.1-1.4,0.8c-0.3,0.5-0.3,1.1-0.3,1.7v3.1h-1.1
				v-9.5h1.1l0,3.8c0.7-0.8,1.5-0.8,1.9-0.8c0.8,0,1.3,0.3,1.6,0.5c0.1,0.1,0.1,0.1,0.3,0.3c0.4,0.6,0.4,1.3,0.4,2v3.7H206.5z"/>
			<path d="M214.1,153.9c-0.1,0-0.4,0-0.7-0.2c-0.1-0.1-0.2-0.2-0.2-0.2c-0.2-0.2-0.2-0.4-0.2-0.5c-0.3,0.3-0.9,1-2.2,1
				c-0.4,0-0.7-0.1-0.9-0.1c-0.8-0.3-1.3-0.9-1.3-1.7c0-0.3,0.1-0.9,0.7-1.4c0.6-0.5,1.8-0.7,2.6-0.7l1-0.1c0-0.2,0-0.3,0-0.5
				c0-0.5-0.1-1.4-1.4-1.4c-0.2,0-1,0-1.3,0.8c-0.1,0.2-0.1,0.3-0.1,0.6l-1.1-0.1c0-0.1,0-0.3,0.1-0.6c0.2-0.6,0.8-1.5,2.3-1.5
				c0.2,0,0.5,0,1,0.1c0.3,0.1,1.1,0.3,1.4,1.2c0.1,0.3,0.1,0.7,0.1,1.4v2.1c0,0.1,0,0.3,0,0.4c0,0.1,0,0.5,0.5,0.5
				c0.1,0,0.2,0,0.3-0.1v0.9C214.5,153.9,214.3,153.9,214.1,153.9z M212.9,150.9v-0.1c-0.5,0.1-1.8,0.2-2.3,0.5
				c-0.2,0.1-0.8,0.3-0.8,1c0,0.5,0.3,0.9,1.2,0.9c0.6,0,1.9-0.2,1.9-1.9C212.9,151.2,212.9,151,212.9,150.9z"/>
			<path d="M215.7,153.9v-9.5h1v9.5H215.7z"/>
			<path d="M218.3,153.9v-9.5h1v9.5H218.3z"/>
			<path d="M226.1,152.8c-0.3,0.5-1,1.2-2.4,1.2c-0.7,0-1.1-0.1-1.3-0.3c-0.8-0.3-1.8-1.2-1.8-3.2c0-1.2,0.4-1.8,0.7-2.2
				c0.6-0.7,1.4-1.1,2.3-1.1c0.3,0,0.7,0.1,1,0.2c0.4,0.1,1.2,0.5,1.6,1.5c0.2,0.4,0.3,0.9,0.3,1.9h-4.8c0,1.1,0.5,1.8,0.9,2
				c0.3,0.2,0.7,0.3,1.1,0.3c0.6,0,0.9-0.2,1.1-0.4c0.1-0.1,0.2-0.2,0.3-0.4c0.2-0.3,0.2-0.6,0.3-0.7l1.1,0.1
				C226.4,152.1,226.3,152.4,226.1,152.8z M225.2,149.5c-0.2-0.8-0.9-1.3-1.7-1.3c-1.1,0-1.7,0.9-1.8,1.9h3.6
				C225.3,149.8,225.2,149.6,225.2,149.5z"/>
			<path d="M227.7,153.9v-1.5h1.3v1.5H227.7z"/>
			<path d="M236.2,155.2c-0.3,1.2-1.3,1.5-1.7,1.6c-0.2,0.1-0.6,0.1-1.1,0.1c-0.2,0-0.6,0-1.1-0.1c-1.5-0.4-1.7-1.6-1.8-2.2h1.2
				c0,0.1,0,0.5,0.3,0.9c0.5,0.6,1.3,0.6,1.5,0.6c0.1,0,1.1,0,1.5-0.6c0.2-0.4,0.3-0.8,0.3-1.7l0-0.7c-0.7,1-1.6,1.1-2.1,1.1
				c-0.6,0-1.1-0.2-1.3-0.3c-0.7-0.4-1.6-1.2-1.6-3c0-0.3,0-1.4,0.7-2.3c0.5-0.7,1.2-1.1,2.3-1.1c0.2,0,0.5,0,0.9,0.2
				c0.3,0.1,0.7,0.3,1.2,0.9v-0.9h1.1v6C236.3,154.4,236.3,154.7,236.2,155.2z M235.1,149.6c-0.3-0.9-1-1.4-1.9-1.3
				c-0.3,0-0.6,0.1-0.8,0.2c-0.5,0.3-1.1,0.9-1.1,2.2c0,0.7,0.2,1.5,0.8,2c0.3,0.3,0.8,0.4,1.2,0.4c0.6,0,1-0.2,1.2-0.4
				c0.4-0.3,0.7-0.9,0.7-2.1C235.3,150.5,235.3,150,235.1,149.6z"/>
			<path d="M243.1,152.8c-0.3,0.5-1,1.2-2.4,1.2c-0.7,0-1.1-0.1-1.3-0.3c-0.8-0.3-1.8-1.2-1.8-3.2c0-1.2,0.4-1.8,0.7-2.2
				c0.6-0.7,1.4-1.1,2.3-1.1c0.3,0,0.7,0.1,1,0.2c0.4,0.1,1.2,0.5,1.6,1.5c0.2,0.4,0.3,0.9,0.3,1.9h-4.8c0,1.1,0.5,1.8,0.9,2
				c0.3,0.2,0.7,0.3,1.1,0.3c0.6,0,0.9-0.2,1.1-0.4c0.1-0.1,0.2-0.2,0.3-0.4c0.2-0.3,0.2-0.6,0.3-0.7l1.1,0.1
				C243.5,152.1,243.3,152.4,243.1,152.8z M242.2,149.5c-0.2-0.8-0.9-1.3-1.7-1.3c-1.1,0-1.7,0.9-1.8,1.9h3.6
				C242.3,149.8,242.3,149.6,242.2,149.5z"/>
			<path d="M249.5,153c-0.3,0.5-1,1-2.4,1c-0.2,0-1.2,0-1.9-0.5c-0.1-0.1-0.3-0.2-0.5-0.4c-0.5-0.5-0.5-1.1-0.6-1.4l1.2-0.2
				c0,0.4,0,0.8,0.3,1.1c0.4,0.4,0.9,0.5,1.4,0.5c0.1,0,0.8,0,1.2-0.4c0.3-0.3,0.3-0.5,0.3-0.7c0-0.1,0-0.3-0.1-0.5
				c-0.2-0.4-0.8-0.5-1.2-0.5l-0.6-0.1c-0.8-0.2-1.2-0.3-1.5-0.5c-0.5-0.3-0.8-0.7-0.8-1.3c0-0.2,0-0.6,0.3-1
				c0.6-0.8,1.9-0.8,2.1-0.8c1.3,0,2.1,0.7,2.4,1.1c0.3,0.4,0.3,0.8,0.3,1l-1.2,0.1c0-0.3,0-0.4-0.1-0.6c-0.2-0.3-0.7-0.8-1.6-0.8
				c-0.9,0-1.2,0.5-1.2,0.9c0,0.1,0,0.2,0.1,0.3c0.2,0.3,0.7,0.5,1.4,0.7l0.6,0.1c0.2,0,0.4,0.1,0.6,0.2c0.8,0.3,1.5,0.7,1.5,1.7
				C249.8,152.2,249.8,152.6,249.5,153z"/>
			<path d="M256.1,152.8c-0.3,0.5-1,1.2-2.4,1.2c-0.7,0-1.1-0.1-1.3-0.3c-0.8-0.3-1.8-1.2-1.8-3.2c0-1.2,0.4-1.8,0.7-2.2
				c0.6-0.7,1.4-1.1,2.3-1.1c0.3,0,0.7,0.1,1,0.2c0.4,0.1,1.2,0.5,1.6,1.5c0.2,0.4,0.3,0.9,0.3,1.9h-4.8c0,1.1,0.5,1.8,0.9,2
				c0.3,0.2,0.7,0.3,1.1,0.3c0.6,0,0.9-0.2,1.1-0.4c0.1-0.1,0.2-0.2,0.3-0.4c0.2-0.3,0.2-0.6,0.3-0.7l1.1,0.1
				C256.5,152.1,256.4,152.4,256.1,152.8z M255.3,149.5c-0.2-0.8-0.9-1.3-1.7-1.3c-1.1,0-1.7,0.9-1.8,1.9h3.6
				C255.4,149.8,255.3,149.6,255.3,149.5z"/>
			<path d="M257.8,153.9v-9.5h1v9.5H257.8z"/>
			<path d="M260.4,153.9v-9.5h1v9.5H260.4z"/>
			<path d="M267.8,153c-0.3,0.5-1,1-2.4,1c-0.2,0-1.2,0-1.9-0.5c-0.1-0.1-0.3-0.2-0.5-0.4c-0.5-0.5-0.5-1.1-0.6-1.4l1.2-0.2
				c0,0.4,0,0.8,0.3,1.1c0.4,0.4,0.9,0.5,1.4,0.5c0.1,0,0.8,0,1.2-0.4c0.3-0.3,0.3-0.5,0.3-0.7c0-0.1,0-0.3-0.1-0.5
				c-0.2-0.4-0.8-0.5-1.2-0.5l-0.6-0.1c-0.8-0.2-1.2-0.3-1.5-0.5c-0.5-0.3-0.8-0.7-0.8-1.3c0-0.2,0-0.6,0.3-1
				c0.6-0.8,1.9-0.8,2.1-0.8c1.3,0,2.1,0.7,2.4,1.1c0.3,0.4,0.3,0.8,0.3,1l-1.2,0.1c0-0.3,0-0.4-0.1-0.6c-0.2-0.3-0.7-0.8-1.6-0.8
				c-0.9,0-1.2,0.5-1.2,0.9c0,0.1,0,0.2,0.1,0.3c0.2,0.3,0.7,0.5,1.4,0.7l0.6,0.1c0.2,0,0.4,0.1,0.6,0.2c0.8,0.3,1.5,0.7,1.5,1.7
				C268.1,152.2,268,152.6,267.8,153z"/>
			<path d="M273.9,153.5c-0.7,0.6-1.6,0.6-1.9,0.6c-0.2,0-0.7,0-1.2-0.2c-0.8-0.3-1.9-1.1-1.9-3.1c0-2,1.1-2.9,1.9-3.2
				c0.5-0.2,0.9-0.2,1.2-0.2c1.7,0,2.4,0.9,2.7,1.6c0.1,0.2,0.1,0.3,0.2,0.6l-1.2,0.1c0-0.1-0.1-0.4-0.3-0.7
				c-0.4-0.7-1.2-0.7-1.4-0.7c-1,0-1.9,0.6-1.9,2.6c0,1.1,0.4,1.7,0.7,2.1c0.4,0.3,0.8,0.5,1.3,0.5c0.3,0,0.5,0,0.8-0.2
				c0.7-0.3,0.9-0.9,1-1.6l1.2,0.1C274.8,152.6,274.2,153.2,273.9,153.5z"/>
			<path d="M280.2,153.9v-3.3c0-0.4,0-1-0.1-1.4c-0.2-0.6-0.7-0.8-1.3-0.8c-0.3,0-1,0.1-1.4,0.8c-0.3,0.5-0.3,1.1-0.3,1.7v3.1H276
				v-9.5h1.1l0,3.8c0.7-0.8,1.5-0.8,1.9-0.8c0.8,0,1.3,0.3,1.6,0.5c0.1,0.1,0.1,0.1,0.3,0.3c0.4,0.6,0.4,1.3,0.4,2v3.7H280.2z"/>
			<path d="M287.7,153.9c-0.1,0-0.4,0-0.7-0.2c-0.1-0.1-0.2-0.2-0.2-0.2c-0.2-0.2-0.2-0.4-0.2-0.5c-0.3,0.3-0.9,1-2.2,1
				c-0.4,0-0.7-0.1-0.9-0.1c-0.8-0.3-1.3-0.9-1.3-1.7c0-0.3,0.1-0.9,0.7-1.4c0.6-0.5,1.8-0.7,2.6-0.7l1-0.1c0-0.2,0-0.3,0-0.5
				c0-0.5-0.1-1.4-1.4-1.4c-0.2,0-1,0-1.3,0.8c-0.1,0.2-0.1,0.3-0.1,0.6l-1.1-0.1c0-0.1,0-0.3,0.1-0.6c0.2-0.6,0.8-1.5,2.3-1.5
				c0.2,0,0.5,0,1,0.1c0.3,0.1,1.1,0.3,1.4,1.2c0.1,0.3,0.1,0.7,0.1,1.4v2.1c0,0.1,0,0.3,0,0.4c0,0.1,0,0.5,0.5,0.5
				c0.1,0,0.2,0,0.3-0.1v0.9C288.1,153.9,287.9,153.9,287.7,153.9z M286.6,150.9v-0.1c-0.5,0.1-1.8,0.2-2.3,0.5
				c-0.2,0.1-0.8,0.3-0.8,1c0,0.5,0.3,0.9,1.2,0.9c0.6,0,1.9-0.2,1.9-1.9C286.6,151.2,286.6,151,286.6,150.9z"/>
			<path d="M292.1,145.4c0,0-0.3-0.1-0.6-0.1c-0.1,0-0.5,0-0.7,0.4c-0.1,0.2-0.1,0.3-0.1,0.8v1.1h1.2v0.9h-1.2v5.4h-1v-5.4h-1v-0.9
				h1V147c0-0.9,0-1.3,0.2-1.7c0.3-0.9,1.3-0.9,1.5-0.9c0.1,0,0.4,0,0.8,0.1L292.1,145.4z"/>
			<path d="M294.3,154c-0.6,0-0.9-0.1-1.1-0.4c-0.2-0.2-0.1-0.5-0.1-1v-4.1h-1v-0.9h1v-2h1.1v2h1.1v0.9h-1.1v3.6
				c0,0.4,0,0.7,0.1,0.9c0.1,0.1,0.2,0.2,0.4,0.2c0.1,0,0.4,0,0.7-0.1v0.9C295.3,153.9,294.8,154,294.3,154z"/>
		</g>
	</g>
	<g>
		<g>
			<path d="M167.2,267.7l-2.3-3l-0.8,0.8v2.2h-1.1v-9.5h1.1v5.8l2.5-2.7h1.3l-2.3,2.5l2.9,3.8H167.2z"/>
			<path d="M173.2,267.7l0-1c-0.1,0.1-0.1,0.2-0.3,0.3c-0.5,0.5-1.2,0.8-1.9,0.8c-0.2,0-1.2,0-1.7-0.8c-0.4-0.6-0.3-1.3-0.3-1.9
				v-3.7h1.1v3.6c0,0.7,0,1,0.1,1.3c0.1,0.3,0.5,0.6,1.2,0.6c0.2,0,1-0.1,1.5-0.7c0.3-0.5,0.3-1,0.3-1.6v-3.2h1v6.3H173.2z"/>
			<path d="M181,266.8c-0.3,0.4-1,1.1-2.3,1.1c-0.4,0-1.4,0-2.2-0.8c-0.4-0.4-0.9-1.2-0.9-2.5c0-0.8,0.2-1.6,0.7-2.3
				c0.6-0.8,1.4-1.1,2.4-1.1c0.4,0,0.9,0.1,1.3,0.2c0.7,0.3,1.8,1.2,1.8,3.1C181.7,264.9,181.7,266,181,266.8z M180.3,262.9
				c-0.1-0.2-0.2-0.4-0.4-0.5c-0.5-0.4-1-0.4-1.2-0.4c-2,0-2,2.2-2,2.6c0,0.3,0,0.5,0.1,0.6c0.1,0.5,0.4,1.8,1.9,1.8
				c0.3,0,1-0.1,1.5-0.8c0.4-0.6,0.4-1.6,0.4-1.7C180.6,264.4,180.6,263.5,180.3,262.9z"/>
			<path d="M187.1,267.7v-4c0-0.2,0.1-0.8-0.5-1.2c-0.2-0.1-0.5-0.3-1-0.3c-0.5,0-0.8,0.1-1.2,0.5c-0.1,0.1-0.3,0.3-0.4,0.6
				c-0.1,0.3-0.1,0.6-0.1,0.9v3.6h-1.1v-6.3h1.1v0.9c0.1-0.2,0.3-0.4,0.3-0.4c0.2-0.2,0.8-0.7,1.6-0.7c0.3,0,1.2,0.1,1.8,0.9
				c0.4,0.6,0.4,1.2,0.4,1.9v3.8H187.1z"/>
			<path d="M189.8,259.5v-1.2h1v1.2H189.8z M189.8,267.7v-6.3h1v6.3H189.8z"/>
		</g>
	</g>
	<g>
		<g>
			<path d="M167.2,280.9l-2.3-3l-0.8,0.8v2.2h-1.1v-9.5h1.1v5.8l2.5-2.7h1.3l-2.3,2.5l2.9,3.8H167.2z"/>
			<path d="M174,281c-0.1,0-0.4,0-0.7-0.2c-0.1-0.1-0.2-0.2-0.2-0.2c-0.2-0.2-0.2-0.4-0.2-0.5c-0.3,0.3-0.9,1-2.2,1
				c-0.4,0-0.7-0.1-0.9-0.1c-0.8-0.3-1.3-0.9-1.3-1.7c0-0.3,0.1-0.9,0.7-1.4c0.6-0.5,1.8-0.7,2.6-0.7l1-0.1c0-0.2,0-0.3,0-0.5
				c0-0.5-0.1-1.4-1.4-1.4c-0.2,0-1,0-1.3,0.8c-0.1,0.2-0.1,0.3-0.1,0.6l-1.1-0.1c0-0.1,0-0.3,0.1-0.6c0.2-0.6,0.8-1.5,2.3-1.5
				c0.2,0,0.5,0,1,0.1c0.3,0.1,1.1,0.3,1.4,1.2c0.1,0.3,0.1,0.7,0.1,1.4v2.1c0,0.1,0,0.3,0,0.4c0,0.1,0,0.5,0.5,0.5
				c0.1,0,0.2,0,0.3-0.1v0.9C174.4,281,174.2,281,174,281z M172.8,278v-0.1c-0.5,0.1-1.8,0.2-2.3,0.5c-0.2,0.1-0.8,0.3-0.8,1
				c0,0.5,0.3,0.9,1.2,0.9c0.6,0,1.9-0.2,1.9-1.9C172.9,278.2,172.8,278.1,172.8,278z"/>
			<path d="M178,275.7c-0.6,0.1-1.1,0.5-1.3,1.2c-0.1,0.3-0.1,0.5-0.1,1.2v2.9h-1.1v-6.3h1.1v1.2c0.1-0.3,0.3-0.5,0.6-0.7
				s0.8-0.5,1.6-0.5v1.2C178.4,275.6,178.2,275.7,178,275.7z"/>
			<path d="M181.2,281.1c-0.6,0-0.9-0.1-1.1-0.4c-0.2-0.2-0.1-0.5-0.1-1v-4.1h-1v-0.9h1v-2h1.1v2h1.1v0.9h-1.1v3.6
				c0,0.4,0,0.7,0.1,0.9c0.1,0.1,0.2,0.2,0.4,0.2c0.1,0,0.4,0,0.7-0.1v0.9C182.1,281,181.6,281.1,181.2,281.1z"/>
			<path d="M188.5,279.9c-0.3,0.5-1,1.2-2.4,1.2c-0.7,0-1.1-0.1-1.3-0.3c-0.8-0.3-1.8-1.2-1.8-3.2c0-1.2,0.4-1.8,0.7-2.2
				c0.6-0.7,1.4-1.1,2.3-1.1c0.3,0,0.7,0.1,1,0.2c0.4,0.1,1.2,0.5,1.6,1.5c0.2,0.4,0.3,0.9,0.3,1.9h-4.8c0,1.1,0.5,1.8,0.9,2
				c0.3,0.2,0.7,0.3,1.1,0.3c0.6,0,0.9-0.2,1.1-0.4c0.1-0.1,0.2-0.2,0.3-0.4c0.2-0.3,0.2-0.6,0.3-0.7l1.1,0.1
				C188.9,279.1,188.8,279.5,188.5,279.9z M187.7,276.6c-0.2-0.8-0.9-1.3-1.7-1.3c-1.1,0-1.7,0.9-1.8,1.9h3.6
				C187.7,276.9,187.7,276.7,187.7,276.6z"/>
			<path d="M194.3,280.9v-4c0-0.2,0.1-0.8-0.5-1.2c-0.2-0.1-0.5-0.3-1-0.3c-0.5,0-0.8,0.1-1.2,0.5c-0.1,0.1-0.3,0.3-0.4,0.6
				c-0.1,0.3-0.1,0.6-0.1,0.9v3.6h-1.1v-6.3h1.1v0.9c0.1-0.2,0.3-0.4,0.3-0.4c0.2-0.2,0.8-0.7,1.6-0.7c0.3,0,1.2,0.1,1.8,0.9
				c0.4,0.6,0.4,1.2,0.4,1.9v3.8H194.3z"/>
			<path d="M199.7,280.9v-0.9l3.6-4.5H200v-0.9h4.6v0.9l-3.7,4.6h3.8v0.9H199.7z"/>
			<path d="M210,280.9l0-1c-0.1,0.1-0.1,0.2-0.3,0.3c-0.5,0.5-1.2,0.8-1.9,0.8c-0.2,0-1.2,0-1.7-0.8c-0.4-0.6-0.3-1.3-0.3-1.9v-3.7
				h1.1v3.6c0,0.7,0,1,0.1,1.3c0.1,0.3,0.5,0.6,1.2,0.6c0.2,0,1-0.1,1.5-0.7c0.3-0.5,0.3-1,0.3-1.6v-3.2h1v6.3H210z"/>
			<path d="M218.8,272.5c0,0-0.3-0.1-0.6-0.1c-0.1,0-0.5,0-0.7,0.4c-0.1,0.2-0.1,0.3-0.1,0.8v1.1h1.2v0.9h-1.2v5.4h-1v-5.4h-1v-0.9
				h1v-0.5c0-0.9,0-1.3,0.2-1.7c0.3-0.9,1.3-0.9,1.5-0.9c0.1,0,0.4,0,0.8,0.1L218.8,272.5z"/>
			<path d="M221.9,275.7c-0.6,0.1-1.1,0.5-1.3,1.2c-0.1,0.3-0.1,0.5-0.1,1.2v2.9h-1.1v-6.3h1.1v1.2c0.1-0.3,0.3-0.5,0.6-0.7
				s0.8-0.5,1.6-0.5v1.2C222.3,275.6,222.1,275.7,221.9,275.7z"/>
			<path d="M223.5,280.9v-1.5h1.3v1.5H223.5z"/>
			<path d="M231.9,280.2c-0.9,0.9-2.1,0.9-2.5,0.9c-0.5,0-2.7-0.1-3.3-2.2c-0.1-0.2-0.1-0.5-0.1-0.9h1.2c0,0.1,0,0.5,0.2,0.9
				c0.2,0.6,0.7,1.1,2,1.1c0.4,0,2,0,2-1.6c0-0.5-0.2-0.8-0.3-0.9c-0.3-0.4-0.8-0.6-1.8-0.6c-0.3,0-0.5,0-0.8,0l0-1.1
				c1,0.1,1.7,0,2.1-0.3c0.2-0.1,0.6-0.5,0.6-1.1c0-0.4-0.1-0.7-0.2-0.8c-0.3-0.5-1-0.7-1.6-0.7c-0.6,0-1.1,0.2-1.4,0.8
				c-0.3,0.4-0.3,0.9-0.3,1.4l-1.2-0.1c0-0.4,0-0.8,0.2-1.2c0.5-1.8,2.2-1.9,2.8-1.9c0.2,0,0.8,0,1.3,0.2c1.4,0.5,1.7,1.8,1.7,2.3
				c0,0.2,0,0.9-0.4,1.4c-0.2,0.2-0.4,0.4-0.7,0.5c0.3,0.1,0.4,0.2,0.5,0.3c0.3,0.3,0.8,0.8,0.8,1.8
				C232.6,278.8,232.5,279.5,231.9,280.2z"/>
			<path d="M234,280.9v-1.5h1.3v1.5H234z"/>
			<path d="M241.1,280.8c-0.2,0.1-0.6,0.2-1.2,0.2c-2,0-2.8-1.3-3.1-2c-0.1-0.2-0.1-0.4-0.2-0.9l1.2-0.1c0,0.2,0.1,0.4,0.2,0.7
				c0.2,0.5,0.5,0.9,1,1.1c0.1,0.1,0.4,0.1,0.8,0.1c0.3,0,0.6-0.1,0.8-0.2c0.5-0.2,1.2-0.8,1.2-2.1c0-0.2,0-0.5-0.1-0.8
				c-0.1-0.5-0.5-1-1.1-1.2c-0.2-0.1-0.4-0.1-0.8-0.1c-0.2,0-0.6,0-1,0.3c-0.1,0-0.1,0.1-0.3,0.2c-0.3,0.3-0.4,0.5-0.5,0.7H237
				l0.3-4.9h5.1v1.1h-4.2l-0.1,2.4c0.3-0.3,0.9-0.7,2-0.7c0.6,0,1,0.1,1.2,0.2c1.2,0.5,1.8,1.7,1.8,2.9
				C243.1,279.1,242.4,280.4,241.1,280.8z"/>
			<path d="M249.4,280.4c-0.5,0.4-1.1,0.6-1.8,0.6c-0.5,0-1-0.1-1.5-0.4c-0.9-0.5-1.8-1.8-1.8-4.1c0-0.4,0-2.7,1.4-4
				c0.7-0.6,1.5-0.7,1.8-0.7c0.3,0,0.9,0,1.5,0.4c0.9,0.5,1.8,1.8,1.8,4.2C250.8,278.6,250.1,279.8,249.4,280.4z M248.9,273.6
				c-0.5-0.6-1-0.7-1.3-0.7c-0.7,0-1,0.3-1.2,0.5c-0.1,0.1-0.3,0.3-0.5,0.7c-0.3,0.7-0.4,1.6-0.4,2.3c0,0.2,0,1.8,0.7,2.8
				c0.2,0.3,0.6,0.8,1.4,0.7c0.1,0,0.5,0,0.9-0.2c1-0.6,1.2-2.3,1.2-3.3C249.6,276.2,249.6,274.5,248.9,273.6z"/>
			<path d="M261.1,280.1c-0.4,0.5-0.8,0.7-1,0.8c-0.2,0.1-0.6,0.2-1.2,0.2c-0.8,0-1.2-0.2-1.4-0.4c-0.3-0.2-0.5-0.4-0.7-0.6v0.8
				h-1.1v-9.5h1.1v4c0.1-0.1,0.1-0.2,0.3-0.4c0.5-0.5,1.2-0.7,1.9-0.7c0.4,0,1.4,0.1,2.1,1c0.4,0.4,0.8,1.1,0.8,2.4
				C261.8,278.1,261.8,279.2,261.1,280.1z M260.3,276.4c-0.2-0.3-0.7-1-1.7-1c-0.8,0-1.2,0.4-1.4,0.6c-0.3,0.3-0.6,0.8-0.6,1.8
				c0,0.7,0.1,1.1,0.3,1.4c0.2,0.3,0.7,1,1.7,1c0.4,0,0.7-0.1,1-0.3c0.4-0.3,0.9-1,0.9-2.2C260.6,277.5,260.6,276.9,260.3,276.4z"/>
			<path d="M263,272.7v-1.2h1v1.2H263z M263,280.9v-6.3h1v6.3H263z"/>
			<path d="M270.4,280.1c-0.3,0.5-1,1-2.4,1c-0.2,0-1.2,0-1.9-0.5c-0.1-0.1-0.3-0.2-0.5-0.4c-0.5-0.5-0.5-1.1-0.6-1.4l1.2-0.2
				c0,0.4,0,0.8,0.3,1.1c0.4,0.4,0.9,0.5,1.4,0.5c0.1,0,0.8,0,1.2-0.4c0.3-0.3,0.3-0.5,0.3-0.7c0-0.1,0-0.3-0.1-0.5
				c-0.2-0.4-0.8-0.5-1.2-0.5l-0.6-0.1c-0.8-0.2-1.2-0.3-1.5-0.5c-0.5-0.3-0.8-0.7-0.8-1.3c0-0.2,0-0.6,0.3-1
				c0.6-0.8,1.9-0.8,2.1-0.8c1.3,0,2.1,0.7,2.4,1.1c0.3,0.4,0.3,0.8,0.3,1l-1.2,0.1c0-0.3,0-0.4-0.1-0.6c-0.2-0.3-0.7-0.8-1.6-0.8
				c-0.9,0-1.2,0.5-1.2,0.9c0,0.1,0,0.2,0.1,0.3c0.2,0.3,0.7,0.5,1.4,0.7l0.6,0.1c0.2,0,0.4,0.1,0.6,0.2c0.8,0.3,1.5,0.7,1.5,1.7
				C270.7,279.3,270.7,279.7,270.4,280.1z"/>
			<path d="M280.4,280c-0.1,0.1-0.4,0.5-0.8,0.7c-0.3,0.2-0.8,0.3-1.5,0.3c-0.4,0-0.7-0.1-0.8-0.1c-0.3-0.1-1.1-0.4-1.5-1.3
				c-0.1-0.2-0.2-0.4-0.3-0.9l1.2-0.2c0,0.1,0.1,0.5,0.3,0.8c0.3,0.4,0.8,0.6,1.3,0.6c0.2,0,0.8,0,1.2-0.5c0.6-0.6,0.9-1.8,0.9-2.7
				c-0.3,0.4-0.9,1.2-2.2,1.2c-1.8,0-3-1.3-3-3c0-0.3,0.1-1.4,0.8-2.3c0.3-0.4,1-0.9,2.2-0.9c0.4,0,1.3,0,2.1,0.8
				c0.7,0.6,1.2,1.7,1.2,3.7C281.4,276.7,281.4,278.7,280.4,280z M280,274.3c-0.3-0.9-1-1.5-1.9-1.5c-0.5,0-0.9,0.2-1.1,0.3
				c-0.8,0.5-0.8,1.6-0.8,1.9c0,0.4,0.1,0.6,0.1,0.8c0.2,0.4,0.6,1.1,1.7,1.1c0.3,0,0.5,0,0.8-0.1c0.4-0.1,1.2-0.5,1.2-1.7
				C280.1,275,280.1,274.7,280,274.3z"/>
			<path d="M282.9,280.9v-1.5h1.3v1.5H282.9z"/>
			<path d="M290,280.8c-0.2,0.1-0.6,0.2-1.2,0.2c-2,0-2.8-1.3-3.1-2c-0.1-0.2-0.1-0.4-0.2-0.9l1.2-0.1c0,0.2,0.1,0.4,0.2,0.7
				c0.2,0.5,0.5,0.9,1,1.1c0.1,0.1,0.4,0.1,0.8,0.1c0.3,0,0.6-0.1,0.8-0.2c0.5-0.2,1.2-0.8,1.2-2.1c0-0.2,0-0.5-0.1-0.8
				c-0.1-0.5-0.5-1-1.1-1.2c-0.2-0.1-0.4-0.1-0.8-0.1c-0.2,0-0.6,0-1,0.3c-0.1,0-0.1,0.1-0.3,0.2c-0.3,0.3-0.4,0.5-0.5,0.7h-1.1
				l0.3-4.9h5.1v1.1h-4.2l-0.1,2.4c0.3-0.3,0.9-0.7,2-0.7c0.6,0,1,0.1,1.2,0.2c1.2,0.5,1.8,1.7,1.8,2.9
				C291.9,279.1,291.2,280.4,290,280.8z"/>
			<path d="M298.2,280.4c-0.5,0.4-1.1,0.6-1.8,0.6c-0.5,0-1-0.1-1.5-0.4c-0.9-0.5-1.8-1.8-1.8-4.1c0-0.4,0-2.7,1.4-4
				c0.7-0.6,1.5-0.7,1.8-0.7c0.3,0,0.9,0,1.5,0.4c0.9,0.5,1.8,1.8,1.8,4.2C299.7,278.6,299,279.8,298.2,280.4z M297.8,273.6
				c-0.5-0.6-1-0.7-1.3-0.7c-0.7,0-1,0.3-1.2,0.5c-0.1,0.1-0.3,0.3-0.5,0.7c-0.3,0.7-0.4,1.6-0.4,2.3c0,0.2,0,1.8,0.7,2.8
				c0.2,0.3,0.6,0.8,1.4,0.7c0.1,0,0.5,0,0.9-0.2c1-0.6,1.2-2.3,1.2-3.3C298.5,276.2,298.5,274.5,297.8,273.6z"/>
		</g>
	</g>
	<g>
		<g>
			<path d="M104.3,206.6c-0.4,0.5-0.8,0.7-1,0.8c-0.2,0.1-0.6,0.2-1.2,0.2c-0.8,0-1.2-0.2-1.4-0.4c-0.3-0.2-0.5-0.4-0.7-0.6v0.8
				h-1.1v-9.5h1.1v4c0.1-0.1,0.1-0.2,0.3-0.4c0.5-0.5,1.2-0.7,1.9-0.7c0.4,0,1.4,0.1,2.1,1c0.4,0.4,0.8,1.1,0.8,2.4
				C105,204.6,105,205.7,104.3,206.6z M103.6,202.9c-0.2-0.3-0.7-1-1.7-1c-0.8,0-1.2,0.4-1.4,0.6c-0.3,0.3-0.6,0.8-0.6,1.8
				c0,0.7,0.1,1.1,0.3,1.4c0.2,0.3,0.7,1,1.7,1c0.4,0,0.7-0.1,1-0.3c0.4-0.3,0.9-1,0.9-2.2C103.9,204,103.9,203.4,103.6,202.9z"/>
			<path d="M111.3,206.4c-0.3,0.5-1,1.2-2.4,1.2c-0.7,0-1.1-0.1-1.3-0.3c-0.8-0.3-1.8-1.2-1.8-3.2c0-1.2,0.4-1.8,0.7-2.2
				c0.6-0.7,1.4-1.1,2.3-1.1c0.3,0,0.7,0.1,1,0.2c0.4,0.1,1.2,0.5,1.6,1.5c0.2,0.4,0.3,0.9,0.3,1.9H107c0,1.1,0.5,1.8,0.9,2
				c0.3,0.2,0.7,0.3,1.1,0.3c0.6,0,0.9-0.2,1.1-0.4c0.1-0.1,0.2-0.2,0.3-0.4c0.2-0.3,0.2-0.6,0.3-0.7l1.1,0.1
				C111.7,205.6,111.6,206,111.3,206.4z M110.5,203.1c-0.2-0.8-0.9-1.3-1.7-1.3c-1.1,0-1.7,0.9-1.8,1.9h3.6
				C110.6,203.4,110.5,203.2,110.5,203.1z"/>
			<path d="M118.1,206.4c-0.3,0.5-1,1.2-2.4,1.2c-0.7,0-1.1-0.1-1.3-0.3c-0.8-0.3-1.8-1.2-1.8-3.2c0-1.2,0.4-1.8,0.7-2.2
				c0.6-0.7,1.4-1.1,2.3-1.1c0.3,0,0.7,0.1,1,0.2c0.4,0.1,1.2,0.5,1.6,1.5c0.2,0.4,0.3,0.9,0.3,1.9h-4.8c0,1.1,0.5,1.8,0.9,2
				c0.3,0.2,0.7,0.3,1.1,0.3c0.6,0,0.9-0.2,1.1-0.4c0.1-0.1,0.2-0.2,0.3-0.4c0.2-0.3,0.2-0.6,0.3-0.7l1.1,0.1
				C118.4,205.6,118.3,206,118.1,206.4z M117.2,203.1c-0.2-0.8-0.9-1.3-1.7-1.3c-1.1,0-1.7,0.9-1.8,1.9h3.6
				C117.3,203.4,117.3,203.2,117.2,203.1z"/>
			<path d="M121.2,207.5c-0.6,0-0.9-0.1-1.1-0.4c-0.2-0.2-0.1-0.5-0.1-1V202h-1v-0.9h1v-2h1.1v2h1.1v0.9h-1.1v3.6
				c0,0.4,0,0.7,0.1,0.9c0.1,0.1,0.2,0.2,0.4,0.2c0.1,0,0.4,0,0.7-0.1v0.9C122.1,207.4,121.6,207.5,121.2,207.5z"/>
			<path d="M127.5,207.4v-3.3c0-0.4,0-1-0.1-1.4c-0.2-0.6-0.7-0.8-1.3-0.8c-0.3,0-1,0.1-1.4,0.8c-0.3,0.5-0.3,1.1-0.3,1.7v3.1h-1.1
				v-9.5h1.1l0,3.8c0.7-0.8,1.5-0.8,1.9-0.8c0.8,0,1.3,0.3,1.6,0.5c0.1,0.1,0.1,0.1,0.3,0.3c0.4,0.6,0.4,1.3,0.4,2v3.7H127.5z"/>
			<path d="M135.1,206.6c-0.3,0.4-1,1.1-2.3,1.1c-0.4,0-1.4,0-2.2-0.8c-0.4-0.4-0.9-1.2-0.9-2.5c0-0.8,0.2-1.6,0.7-2.3
				c0.6-0.8,1.4-1.1,2.4-1.1c0.4,0,0.9,0.1,1.3,0.2c0.7,0.3,1.8,1.2,1.8,3.1C135.9,204.6,135.8,205.7,135.1,206.6z M134.4,202.6
				c-0.1-0.2-0.2-0.4-0.4-0.5c-0.5-0.4-1-0.4-1.2-0.4c-2,0-2,2.2-2,2.6c0,0.3,0,0.5,0.1,0.6c0.1,0.5,0.4,1.8,1.9,1.8
				c0.3,0,1-0.1,1.5-0.8c0.4-0.6,0.4-1.6,0.4-1.7C134.7,204.1,134.7,203.3,134.4,202.6z"/>
			<path d="M139.6,207.4h-1l-2.3-6.3h1.1l1.7,4.8l1.7-4.8h1.1L139.6,207.4z"/>
			<path d="M147.8,206.4c-0.3,0.5-1,1.2-2.4,1.2c-0.7,0-1.1-0.1-1.3-0.3c-0.8-0.3-1.8-1.2-1.8-3.2c0-1.2,0.4-1.8,0.7-2.2
				c0.6-0.7,1.4-1.1,2.3-1.1c0.3,0,0.7,0.1,1,0.2c0.4,0.1,1.2,0.5,1.6,1.5c0.2,0.4,0.3,0.9,0.3,1.9h-4.8c0,1.1,0.5,1.8,0.9,2
				c0.3,0.2,0.7,0.3,1.1,0.3c0.6,0,0.9-0.2,1.1-0.4c0.1-0.1,0.2-0.2,0.3-0.4c0.2-0.3,0.2-0.6,0.3-0.7l1.1,0.1
				C148.2,205.6,148.1,206,147.8,206.4z M147,203.1c-0.2-0.8-0.9-1.3-1.7-1.3c-1.1,0-1.7,0.9-1.8,1.9h3.6
				C147,203.4,147,203.2,147,203.1z"/>
			<path d="M153.5,207.4v-4c0-0.2,0.1-0.8-0.5-1.2c-0.2-0.1-0.5-0.3-1-0.3c-0.5,0-0.8,0.1-1.2,0.5c-0.1,0.1-0.3,0.3-0.4,0.6
				c-0.1,0.3-0.1,0.6-0.1,0.9v3.6h-1.1v-6.3h1.1v0.9c0.1-0.2,0.3-0.4,0.3-0.4c0.2-0.2,0.8-0.7,1.6-0.7c0.3,0,1.2,0.1,1.8,0.9
				c0.4,0.6,0.4,1.2,0.4,1.9v3.8H153.5z"/>
			<path d="M168,206.6c-0.3,0.4-1,1.1-2.3,1.1c-0.4,0-1.4,0-2.2-0.8c-0.4-0.4-0.9-1.2-0.9-2.5c0-0.8,0.2-1.6,0.7-2.3
				c0.6-0.8,1.4-1.1,2.4-1.1c0.4,0,0.9,0.1,1.3,0.2c0.7,0.3,1.8,1.2,1.8,3.1C168.7,204.6,168.7,205.7,168,206.6z M167.2,202.6
				c-0.1-0.2-0.2-0.4-0.4-0.5c-0.5-0.4-1-0.4-1.2-0.4c-2,0-2,2.2-2,2.6c0,0.3,0,0.5,0.1,0.6c0.1,0.5,0.4,1.8,1.9,1.8
				c0.3,0,1-0.1,1.5-0.8c0.4-0.6,0.4-1.6,0.4-1.7C167.6,204.1,167.6,203.3,167.2,202.6z"/>
			<path d="M174.1,207.4l0-1c-0.1,0.1-0.1,0.2-0.3,0.3c-0.5,0.5-1.2,0.8-1.9,0.8c-0.2,0-1.2,0-1.7-0.8c-0.4-0.6-0.3-1.3-0.3-1.9
				v-3.7h1.1v3.6c0,0.7,0,1,0.1,1.3c0.1,0.3,0.5,0.6,1.2,0.6c0.2,0,1-0.1,1.5-0.7c0.3-0.5,0.3-1,0.3-1.6v-3.2h1v6.3H174.1z"/>
			<path d="M179.2,207.4h-1l-2.3-6.3h1.1l1.7,4.8l1.7-4.8h1.1L179.2,207.4z"/>
			<path d="M187.4,206.4c-0.3,0.5-1,1.2-2.4,1.2c-0.7,0-1.1-0.1-1.3-0.3c-0.8-0.3-1.8-1.2-1.8-3.2c0-1.2,0.4-1.8,0.7-2.2
				c0.6-0.7,1.4-1.1,2.3-1.1c0.3,0,0.7,0.1,1,0.2c0.4,0.1,1.2,0.5,1.6,1.5c0.2,0.4,0.3,0.9,0.3,1.9H183c0,1.1,0.5,1.8,0.9,2
				c0.3,0.2,0.7,0.3,1.1,0.3c0.6,0,0.9-0.2,1.1-0.4c0.1-0.1,0.2-0.2,0.3-0.4c0.2-0.3,0.2-0.6,0.3-0.7l1.1,0.1
				C187.8,205.6,187.7,206,187.4,206.4z M186.6,203.1c-0.2-0.8-0.9-1.3-1.7-1.3c-1.1,0-1.7,0.9-1.8,1.9h3.6
				C186.6,203.4,186.6,203.2,186.6,203.1z"/>
			<path d="M191.4,202.2c-0.6,0.1-1.1,0.5-1.3,1.2c-0.1,0.3-0.1,0.5-0.1,1.2v2.9H189v-6.3h1.1v1.2c0.1-0.3,0.3-0.5,0.6-0.7
				s0.8-0.5,1.6-0.5v1.2C191.8,202.1,191.6,202.1,191.4,202.2z"/>
			<path d="M194.5,207.5c-0.6,0-0.9-0.1-1.1-0.4c-0.2-0.2-0.1-0.5-0.1-1V202h-1v-0.9h1v-2h1.1v2h1.1v0.9h-1.1v3.6
				c0,0.4,0,0.7,0.1,0.9c0.1,0.1,0.2,0.2,0.4,0.2c0.1,0,0.4,0,0.7-0.1v0.9C195.4,207.4,194.9,207.5,194.5,207.5z"/>
			<path d="M200.7,207.4l0-1c-0.1,0.1-0.1,0.2-0.3,0.3c-0.5,0.5-1.2,0.8-1.9,0.8c-0.2,0-1.2,0-1.7-0.8c-0.4-0.6-0.3-1.3-0.3-1.9
				v-3.7h1.1v3.6c0,0.7,0,1,0.1,1.3c0.1,0.3,0.5,0.6,1.2,0.6c0.2,0,1-0.1,1.5-0.7c0.3-0.5,0.3-1,0.3-1.6v-3.2h1v6.3H200.7z"/>
			<path d="M205.7,202.2c-0.6,0.1-1.1,0.5-1.3,1.2c-0.1,0.3-0.1,0.5-0.1,1.2v2.9h-1.1v-6.3h1.1v1.2c0.1-0.3,0.3-0.5,0.6-0.7
				s0.8-0.5,1.6-0.5v1.2C206.1,202.1,205.9,202.1,205.7,202.2z"/>
			<path d="M212.4,206.4c-0.3,0.5-1,1.2-2.4,1.2c-0.7,0-1.1-0.1-1.3-0.3c-0.8-0.3-1.8-1.2-1.8-3.2c0-1.2,0.4-1.8,0.7-2.2
				c0.6-0.7,1.4-1.1,2.3-1.1c0.3,0,0.7,0.1,1,0.2c0.4,0.1,1.2,0.5,1.6,1.5c0.2,0.4,0.3,0.9,0.3,1.9H208c0,1.1,0.5,1.8,0.9,2
				c0.3,0.2,0.7,0.3,1.1,0.3c0.6,0,0.9-0.2,1.1-0.4c0.1-0.1,0.2-0.2,0.3-0.4c0.2-0.3,0.2-0.6,0.3-0.7l1.1,0.1
				C212.8,205.6,212.7,206,212.4,206.4z M211.6,203.1c-0.2-0.8-0.9-1.3-1.7-1.3c-1.1,0-1.7,0.9-1.8,1.9h3.6
				C211.7,203.4,211.6,203.2,211.6,203.1z"/>
			<path d="M216.7,207.4v-0.9l3.6-4.5H217v-0.9h4.6v0.9l-3.7,4.6h3.8v0.9H216.7z"/>
			<path d="M226.9,207.4l0-1c-0.1,0.1-0.1,0.2-0.3,0.3c-0.5,0.5-1.2,0.8-1.9,0.8c-0.2,0-1.2,0-1.7-0.8c-0.4-0.6-0.3-1.3-0.3-1.9
				v-3.7h1.1v3.6c0,0.7,0,1,0.1,1.3c0.1,0.3,0.5,0.6,1.2,0.6c0.2,0,1-0.1,1.5-0.7c0.3-0.5,0.3-1,0.3-1.6v-3.2h1v6.3H226.9z"/>
			<path d="M232.5,203.9v-1h3.8v1H232.5z"/>
			<path d="M242.2,207.1c-0.7,0.6-1.6,0.6-1.9,0.6c-0.2,0-0.7,0-1.2-0.2c-0.8-0.3-1.9-1.1-1.9-3.1c0-2,1.1-2.9,1.9-3.2
				c0.5-0.2,0.9-0.2,1.2-0.2c1.7,0,2.4,0.9,2.7,1.6c0.1,0.2,0.1,0.3,0.2,0.6l-1.2,0.1c0-0.1-0.1-0.4-0.3-0.7
				c-0.4-0.7-1.2-0.7-1.4-0.7c-1,0-1.9,0.6-1.9,2.6c0,1.1,0.4,1.7,0.7,2.1c0.4,0.3,0.8,0.5,1.3,0.5c0.3,0,0.5,0,0.8-0.2
				c0.7-0.3,0.9-0.9,1-1.6l1.2,0.1C243.1,206.2,242.5,206.8,242.2,207.1z"/>
			<path d="M249.4,206.6c-0.3,0.4-1,1.1-2.3,1.1c-0.4,0-1.4,0-2.2-0.8c-0.4-0.4-0.9-1.2-0.9-2.5c0-0.8,0.2-1.6,0.7-2.3
				c0.6-0.8,1.4-1.1,2.4-1.1c0.4,0,0.9,0.1,1.3,0.2c0.7,0.3,1.8,1.2,1.8,3.1C250.1,204.6,250.1,205.7,249.4,206.6z M248.6,202.6
				c-0.1-0.2-0.2-0.4-0.4-0.5c-0.5-0.4-1-0.4-1.2-0.4c-2,0-2,2.2-2,2.6c0,0.3,0,0.5,0.1,0.6c0.1,0.5,0.4,1.8,1.9,1.8
				c0.3,0,1-0.1,1.5-0.8c0.4-0.6,0.4-1.6,0.4-1.7C249,204.1,249,203.3,248.6,202.6z"/>
			<path d="M253.7,202.2c-0.6,0.1-1.1,0.5-1.3,1.2c-0.1,0.3-0.1,0.5-0.1,1.2v2.9h-1.1v-6.3h1.1v1.2c0.1-0.3,0.3-0.5,0.6-0.7
				s0.8-0.5,1.6-0.5v1.2C254.1,202.1,253.9,202.1,253.7,202.2z"/>
			<path d="M255.3,199.2v-1.2h1v1.2H255.3z M255.3,207.4v-6.3h1v6.3H255.3z"/>
			<path d="M262.9,206.6c-0.3,0.4-1,1.1-2.3,1.1c-0.4,0-1.4,0-2.2-0.8c-0.4-0.4-0.9-1.2-0.9-2.5c0-0.8,0.2-1.6,0.7-2.3
				c0.6-0.8,1.4-1.1,2.4-1.1c0.4,0,0.9,0.1,1.3,0.2c0.7,0.3,1.8,1.2,1.8,3.1C263.6,204.6,263.6,205.7,262.9,206.6z M262.1,202.6
				c-0.1-0.2-0.2-0.4-0.4-0.5c-0.5-0.4-1-0.4-1.2-0.4c-2,0-2,2.2-2,2.6c0,0.3,0,0.5,0.1,0.6c0.1,0.5,0.4,1.8,1.9,1.8
				c0.3,0,1-0.1,1.5-0.8c0.4-0.6,0.4-1.6,0.4-1.7C262.5,204.1,262.5,203.3,262.1,202.6z"/>
			<path d="M264.8,207.4v-9.5h1v9.5H264.8z"/>
			<path d="M272.3,207.5c-0.1,0-0.4,0-0.7-0.2c-0.1-0.1-0.2-0.2-0.2-0.2c-0.2-0.2-0.2-0.4-0.2-0.5c-0.3,0.3-0.9,1-2.2,1
				c-0.4,0-0.7-0.1-0.9-0.1c-0.8-0.3-1.3-0.9-1.3-1.7c0-0.3,0.1-0.9,0.7-1.4c0.6-0.5,1.8-0.7,2.6-0.7l1-0.1c0-0.2,0-0.3,0-0.5
				c0-0.5-0.1-1.4-1.4-1.4c-0.2,0-1,0-1.3,0.8c-0.1,0.2-0.1,0.3-0.1,0.6l-1.1-0.1c0-0.1,0-0.3,0.1-0.6c0.2-0.6,0.8-1.5,2.3-1.5
				c0.2,0,0.5,0,1,0.1c0.3,0.1,1.1,0.3,1.4,1.2c0.1,0.3,0.1,0.7,0.1,1.4v2.1c0,0.1,0,0.3,0,0.4c0,0.1,0,0.5,0.5,0.5
				c0.1,0,0.2,0,0.3-0.1v0.9C272.6,207.5,272.4,207.5,272.3,207.5z M271.1,204.5v-0.1c-0.5,0.1-1.8,0.2-2.3,0.5
				c-0.2,0.1-0.8,0.3-0.8,1c0,0.5,0.3,0.9,1.2,0.9c0.6,0,1.9-0.2,1.9-1.9C271.1,204.7,271.1,204.6,271.1,204.5z"/>
			<path d="M277.9,207.4v-4c0-0.2,0.1-0.8-0.5-1.2c-0.2-0.1-0.5-0.3-1-0.3c-0.5,0-0.8,0.1-1.2,0.5c-0.1,0.1-0.3,0.3-0.4,0.6
				c-0.1,0.3-0.1,0.6-0.1,0.9v3.6h-1.1v-6.3h1.1v0.9c0.1-0.2,0.3-0.4,0.3-0.4c0.2-0.2,0.8-0.7,1.6-0.7c0.3,0,1.2,0.1,1.8,0.9
				c0.4,0.6,0.4,1.2,0.4,1.9v3.8H277.9z"/>
			<path d="M280.2,203.9v-1h3.8v1H280.2z"/>
			<path d="M285.2,207.4v-1.5h1.3v1.5H285.2z"/>
			<path d="M296.5,206.6c-0.3,0.4-1,1.1-2.3,1.1c-0.4,0-1.4,0-2.2-0.8c-0.4-0.4-0.9-1.2-0.9-2.5c0-0.8,0.2-1.6,0.7-2.3
				c0.6-0.8,1.4-1.1,2.4-1.1c0.4,0,0.9,0.1,1.3,0.2c0.7,0.3,1.8,1.2,1.8,3.1C297.3,204.6,297.2,205.7,296.5,206.6z M295.8,202.6
				c-0.1-0.2-0.2-0.4-0.4-0.5c-0.5-0.4-1-0.4-1.2-0.4c-2,0-2,2.2-2,2.6c0,0.3,0,0.5,0.1,0.6c0.1,0.5,0.4,1.8,1.9,1.8
				c0.3,0,1-0.1,1.5-0.8c0.4-0.6,0.4-1.6,0.4-1.7C296.1,204.1,296.1,203.3,295.8,202.6z"/>
			<path d="M303.9,206.6c-0.3,0.4-1,1.1-2.3,1.1c-0.3,0-1.1,0-1.8-0.6c-0.1-0.1-0.2-0.2-0.3-0.3v3.7h-1v-9.3h1l0,0.9
				c0.1-0.1,0.3-0.3,0.5-0.5c0.7-0.5,1.4-0.6,1.7-0.6c0.6,0,1.1,0.2,1.3,0.4c0.7,0.4,1.5,1.2,1.5,3
				C304.5,204.6,304.5,205.7,303.9,206.6z M303.3,203.2c-0.1-0.4-0.6-1.3-1.9-1.3c-0.3,0-0.7,0.1-1,0.3c-0.4,0.3-1,0.9-1,2.2
				c0,0.9,0.3,1.3,0.5,1.7c0.2,0.2,0.4,0.4,0.7,0.5c0.1,0.1,0.4,0.2,0.8,0.2c0.9,0,1.3-0.4,1.5-0.7c0.5-0.7,0.5-1.5,0.5-1.7
				C303.4,204.1,303.4,203.6,303.3,203.2z"/>
			<path d="M305.7,207.4v-1.5h1.3v1.5H305.7z"/>
			<path d="M317.9,205.6c-0.4,1.2-1.5,1.9-2.8,1.9c-0.5,0-1.7-0.1-2.5-1.3c-0.4-0.7-0.7-1.5-0.7-3.2c0-0.3,0-1.6,0.4-2.7
				c0.1-0.4,0.3-0.7,0.5-1c0.3-0.4,0.8-0.7,1.3-0.9c0.2-0.1,0.5-0.2,1-0.2c0.2,0,0.6,0,1.1,0.2c1,0.4,1.4,1.1,1.7,2.1l-1.2,0.2
				c-0.1-0.6-0.3-1.1-1-1.4c-0.1,0-0.3-0.1-0.6-0.1c-0.1,0-0.7,0-1.2,0.4c-0.2,0.2-0.5,0.5-0.7,1.1c-0.2,0.7-0.2,1.1-0.3,1.8
				c0,0,0.2-0.2,0.3-0.3c0.3-0.3,0.9-0.8,2-0.8c0.2,0,0.7,0,1.2,0.2c0.6,0.3,1.7,1,1.7,2.7C318.1,204.6,318.1,205,317.9,205.6z
				 M316.8,203.8c-0.2-0.5-0.6-1-1.1-1.1c-0.3-0.1-0.5-0.1-0.7-0.1c-0.1,0-0.4,0-0.7,0.1c-0.7,0.3-1.1,1-1.1,1.8
				c0,0.1,0,0.4,0.1,0.8c0.1,0.4,0.6,1.2,1.8,1.2c0.3,0,0.5-0.1,0.7-0.1c0.7-0.3,1.1-1.1,1.1-1.8
				C316.9,204.1,316.8,203.9,316.8,203.8z"/>
			<path d="M319.6,207.4l0-1.2c0.2-0.1,0.4-0.2,0.6-0.3c0.4-0.2,1.3-0.9,2.2-1.8c0.9-0.8,1.8-1.8,1.8-3.1c0-1.1-0.6-1.7-1.7-1.7
				c-0.7,0-1.2,0.3-1.4,0.5c-0.1,0.2-0.2,0.4-0.2,0.5c-0.1,0.3-0.1,0.6-0.1,0.8c0,0.3,0,0.5,0.2,1.1h-1.2c-0.1-0.2-0.2-0.5-0.2-1.1
				c0-0.3,0-1.4,0.8-2.1c0.3-0.3,1-0.7,2.1-0.7c0.3,0,1.2,0,1.9,0.7c0.6,0.5,1,1.4,1,2.2c0,0.7-0.2,1.6-1.2,2.8
				c-0.2,0.3-0.5,0.5-1,1c-0.3,0.3-0.7,0.6-1.1,0.8c-0.3,0.2-0.6,0.4-0.9,0.6h4.3v1H319.6z"/>
		</g>
	</g>
	<g>
		<g>
			<path d="M103.4,254.1h-1l-2.3-6.3h1.1l1.7,4.8l1.7-4.8h1.1L103.4,254.1z"/>
			<path d="M111.6,253.2c-0.3,0.4-1,1.1-2.3,1.1c-0.4,0-1.4,0-2.2-0.8c-0.4-0.4-0.9-1.2-0.9-2.5c0-0.8,0.2-1.6,0.7-2.3
				c0.6-0.8,1.4-1.1,2.4-1.1c0.4,0,0.9,0.1,1.3,0.2c0.7,0.3,1.8,1.2,1.8,3.1C112.3,251.3,112.3,252.4,111.6,253.2z M110.9,249.3
				c-0.1-0.2-0.2-0.4-0.4-0.5c-0.5-0.4-1-0.4-1.2-0.4c-2,0-2,2.2-2,2.6c0,0.3,0,0.5,0.1,0.6c0.1,0.5,0.4,1.8,1.9,1.8
				c0.3,0,1-0.1,1.5-0.8c0.4-0.6,0.4-1.6,0.4-1.7C111.2,250.7,111.2,249.9,110.9,249.3z"/>
			<path d="M115.9,248.8c-0.6,0.1-1.1,0.5-1.3,1.2c-0.1,0.3-0.1,0.5-0.1,1.2v2.9h-1.1v-6.3h1.1v1.2c0.1-0.3,0.3-0.5,0.6-0.7
				s0.8-0.5,1.6-0.5v1.2C116.3,248.8,116.1,248.8,115.9,248.8z"/>
			<path d="M120,254.1h-1l-2.3-6.3h1.1l1.7,4.8l1.7-4.8h1.1L120,254.1z"/>
			<path d="M128.2,253c-0.3,0.5-1,1.2-2.4,1.2c-0.7,0-1.1-0.1-1.3-0.3c-0.8-0.3-1.8-1.2-1.8-3.2c0-1.2,0.4-1.8,0.7-2.2
				c0.6-0.7,1.4-1.1,2.3-1.1c0.3,0,0.7,0.1,1,0.2c0.4,0.1,1.2,0.5,1.6,1.5c0.2,0.4,0.3,0.9,0.3,1.9h-4.8c0,1.1,0.5,1.8,0.9,2
				c0.3,0.2,0.7,0.3,1.1,0.3c0.6,0,0.9-0.2,1.1-0.4c0.1-0.1,0.2-0.2,0.3-0.4c0.2-0.3,0.2-0.6,0.3-0.7l1.1,0.1
				C128.6,252.3,128.5,252.7,128.2,253z M127.4,249.7c-0.2-0.8-0.9-1.3-1.7-1.3c-1.1,0-1.7,0.9-1.8,1.9h3.6
				C127.5,250,127.4,249.9,127.4,249.7z"/>
			<path d="M132.2,248.8c-0.6,0.1-1.1,0.5-1.3,1.2c-0.1,0.3-0.1,0.5-0.1,1.2v2.9h-1.1v-6.3h1.1v1.2c0.1-0.3,0.3-0.5,0.6-0.7
				s0.8-0.5,1.6-0.5v1.2C132.6,248.8,132.4,248.8,132.2,248.8z"/>
			<path d="M137.8,254.1l-2.3-3l-0.8,0.8v2.2h-1.1v-9.5h1.1v5.8l2.5-2.7h1.3l-2.3,2.5l2.9,3.8H137.8z"/>
			<path d="M143.8,254.1l0-1c-0.1,0.1-0.1,0.2-0.3,0.3c-0.5,0.5-1.2,0.8-1.9,0.8c-0.2,0-1.2,0-1.7-0.8c-0.4-0.6-0.3-1.3-0.3-1.9
				v-3.7h1.1v3.6c0,0.7,0,1,0.1,1.3c0.1,0.3,0.5,0.6,1.2,0.6c0.2,0,1-0.1,1.5-0.7c0.3-0.5,0.3-1,0.3-1.6v-3.2h1v6.3H143.8z"/>
			<path d="M151.3,254.2c-0.1,0-0.4,0-0.7-0.2c-0.1-0.1-0.2-0.2-0.2-0.2c-0.2-0.2-0.2-0.4-0.2-0.5c-0.3,0.3-0.9,1-2.2,1
				c-0.4,0-0.7-0.1-0.9-0.1c-0.8-0.3-1.3-0.9-1.3-1.7c0-0.3,0.1-0.9,0.7-1.4c0.6-0.5,1.8-0.7,2.6-0.7l1-0.1c0-0.2,0-0.3,0-0.5
				c0-0.5-0.1-1.4-1.4-1.4c-0.2,0-1,0-1.3,0.8c-0.1,0.2-0.1,0.3-0.1,0.6l-1.1-0.1c0-0.1,0-0.3,0.1-0.6c0.2-0.6,0.8-1.5,2.3-1.5
				c0.2,0,0.5,0,1,0.1c0.3,0.1,1.1,0.3,1.4,1.2c0.1,0.3,0.1,0.7,0.1,1.4v2.1c0,0.1,0,0.3,0,0.4c0,0.1,0,0.5,0.5,0.5
				c0.1,0,0.2,0,0.3-0.1v0.9C151.7,254.2,151.5,254.2,151.3,254.2z M150.1,251.1V251c-0.5,0.1-1.8,0.2-2.3,0.5
				c-0.2,0.1-0.8,0.3-0.8,1c0,0.5,0.3,0.9,1.2,0.9c0.6,0,1.9-0.2,1.9-1.9C150.1,251.4,150.1,251.2,150.1,251.1z"/>
			<path d="M155.5,245.6c0,0-0.3-0.1-0.6-0.1c-0.1,0-0.5,0-0.7,0.4c-0.1,0.2-0.1,0.3-0.1,0.8v1.1h1.2v0.9h-1.2v5.4h-1v-5.4h-1v-0.9
				h1v-0.5c0-0.9,0-1.3,0.2-1.7c0.3-0.9,1.3-0.9,1.5-0.9c0.1,0,0.4,0,0.8,0.1L155.5,245.6z"/>
			<path d="M164.5,254.2c-0.6,0-0.9-0.1-1.1-0.4c-0.2-0.2-0.1-0.5-0.1-1v-4.1h-1v-0.9h1v-2h1.1v2h1.1v0.9h-1.1v3.6
				c0,0.4,0,0.7,0.1,0.9c0.1,0.1,0.2,0.2,0.4,0.2c0.1,0,0.4,0,0.7-0.1v0.9C165.5,254.1,164.9,254.2,164.5,254.2z"/>
			<path d="M171.7,253.2c-0.3,0.4-1,1.1-2.3,1.1c-0.4,0-1.4,0-2.2-0.8c-0.4-0.4-0.9-1.2-0.9-2.5c0-0.8,0.2-1.6,0.7-2.3
				c0.6-0.8,1.4-1.1,2.4-1.1c0.4,0,0.9,0.1,1.3,0.2c0.7,0.3,1.8,1.2,1.8,3.1C172.5,251.3,172.4,252.4,171.7,253.2z M171,249.3
				c-0.1-0.2-0.2-0.4-0.4-0.5c-0.5-0.4-1-0.4-1.2-0.4c-2,0-2,2.2-2,2.6c0,0.3,0,0.5,0.1,0.6c0.1,0.5,0.4,1.8,1.9,1.8
				c0.3,0,1-0.1,1.5-0.8c0.4-0.6,0.4-1.6,0.4-1.7C171.3,250.7,171.3,249.9,171,249.3z"/>
			<path d="M177.8,254.1v-4c0-0.2,0.1-0.8-0.5-1.2c-0.2-0.1-0.5-0.3-1-0.3c-0.5,0-0.8,0.1-1.2,0.5c-0.1,0.1-0.3,0.3-0.4,0.6
				c-0.1,0.3-0.1,0.6-0.1,0.9v3.6h-1.1v-6.3h1.1v0.9c0.1-0.2,0.3-0.4,0.3-0.4c0.2-0.2,0.8-0.7,1.6-0.7c0.3,0,1.2,0.1,1.8,0.9
				c0.4,0.6,0.4,1.2,0.4,1.9v3.8H177.8z"/>
			<path d="M184.5,254.1v-3.3c0-0.4,0-1-0.1-1.4c-0.2-0.6-0.7-0.8-1.3-0.8c-0.3,0-1,0.1-1.4,0.8c-0.3,0.5-0.3,1.1-0.3,1.7v3.1h-1.1
				v-9.5h1.1l0,3.8c0.7-0.8,1.5-0.8,1.9-0.8c0.8,0,1.3,0.3,1.6,0.5c0.1,0.1,0.1,0.1,0.3,0.3c0.4,0.6,0.4,1.3,0.4,2v3.7H184.5z"/>
			<path d="M192,254.2c-0.1,0-0.4,0-0.7-0.2c-0.1-0.1-0.2-0.2-0.2-0.2c-0.2-0.2-0.2-0.4-0.2-0.5c-0.3,0.3-0.9,1-2.2,1
				c-0.4,0-0.7-0.1-0.9-0.1c-0.8-0.3-1.3-0.9-1.3-1.7c0-0.3,0.1-0.9,0.7-1.4c0.6-0.5,1.8-0.7,2.6-0.7l1-0.1c0-0.2,0-0.3,0-0.5
				c0-0.5-0.1-1.4-1.4-1.4c-0.2,0-1,0-1.3,0.8c-0.1,0.2-0.1,0.3-0.1,0.6l-1.1-0.1c0-0.1,0-0.3,0.1-0.6c0.2-0.6,0.8-1.5,2.3-1.5
				c0.2,0,0.5,0,1,0.1c0.3,0.1,1.1,0.3,1.4,1.2c0.1,0.3,0.1,0.7,0.1,1.4v2.1c0,0.1,0,0.3,0,0.4c0,0.1,0,0.5,0.5,0.5
				c0.1,0,0.2,0,0.3-0.1v0.9C192.4,254.2,192.2,254.2,192,254.2z M190.8,251.1V251c-0.5,0.1-1.8,0.2-2.3,0.5c-0.2,0.1-0.8,0.3-0.8,1
				c0,0.5,0.3,0.9,1.2,0.9c0.6,0,1.9-0.2,1.9-1.9C190.9,251.4,190.8,251.2,190.8,251.1z"/>
			<path d="M193.6,254.1v-9.5h1v9.5H193.6z"/>
			<path d="M196.1,254.1v-9.5h1v9.5H196.1z"/>
			<path d="M203.8,253c-0.3,0.5-1,1.2-2.4,1.2c-0.7,0-1.1-0.1-1.3-0.3c-0.8-0.3-1.8-1.2-1.8-3.2c0-1.2,0.4-1.8,0.7-2.2
				c0.6-0.7,1.4-1.1,2.3-1.1c0.3,0,0.7,0.1,1,0.2c0.4,0.1,1.2,0.5,1.6,1.5c0.2,0.4,0.3,0.9,0.3,1.9h-4.8c0,1.1,0.5,1.8,0.9,2
				c0.3,0.2,0.7,0.3,1.1,0.3c0.6,0,0.9-0.2,1.1-0.4c0.1-0.1,0.2-0.2,0.3-0.4c0.2-0.3,0.2-0.6,0.3-0.7l1.1,0.1
				C204.2,252.3,204,252.7,203.8,253z M202.9,249.7c-0.2-0.8-0.9-1.3-1.7-1.3c-1.1,0-1.7,0.9-1.8,1.9h3.6
				C203,250,203,249.9,202.9,249.7z"/>
			<path d="M205.1,250.6v-1h3.8v1H205.1z"/>
			<path d="M214.2,254.1l-2.3-3l-0.8,0.8v2.2H210v-9.5h1.1v5.8l2.5-2.7h1.3l-2.3,2.5l2.9,3.8H214.2z"/>
			<path d="M220.9,254.2c-0.1,0-0.4,0-0.7-0.2c-0.1-0.1-0.2-0.2-0.2-0.2c-0.2-0.2-0.2-0.4-0.2-0.5c-0.3,0.3-0.9,1-2.2,1
				c-0.4,0-0.7-0.1-0.9-0.1c-0.8-0.3-1.3-0.9-1.3-1.7c0-0.3,0.1-0.9,0.7-1.4c0.6-0.5,1.8-0.7,2.6-0.7l1-0.1c0-0.2,0-0.3,0-0.5
				c0-0.5-0.1-1.4-1.4-1.4c-0.2,0-1,0-1.3,0.8c-0.1,0.2-0.1,0.3-0.1,0.6l-1.1-0.1c0-0.1,0-0.3,0.1-0.6c0.2-0.6,0.8-1.5,2.3-1.5
				c0.2,0,0.5,0,1,0.1c0.3,0.1,1.1,0.3,1.4,1.2c0.1,0.3,0.1,0.7,0.1,1.4v2.1c0,0.1,0,0.3,0,0.4c0,0.1,0,0.5,0.5,0.5
				c0.1,0,0.2,0,0.3-0.1v0.9C221.3,254.2,221.1,254.2,220.9,254.2z M219.7,251.1V251c-0.5,0.1-1.8,0.2-2.3,0.5
				c-0.2,0.1-0.8,0.3-0.8,1c0,0.5,0.3,0.9,1.2,0.9c0.6,0,1.9-0.2,1.9-1.9C219.7,251.4,219.7,251.2,219.7,251.1z"/>
			<path d="M227.2,253.2c-0.3,0.5-1,1-2.4,1c-0.2,0-1.2,0-1.9-0.5c-0.1-0.1-0.3-0.2-0.5-0.4c-0.5-0.5-0.5-1.1-0.6-1.4l1.2-0.2
				c0,0.4,0,0.8,0.3,1.1c0.4,0.4,0.9,0.5,1.4,0.5c0.1,0,0.8,0,1.2-0.4c0.3-0.3,0.3-0.5,0.3-0.7c0-0.1,0-0.3-0.1-0.5
				c-0.2-0.4-0.8-0.5-1.2-0.5l-0.6-0.1c-0.8-0.2-1.2-0.3-1.5-0.5c-0.5-0.3-0.8-0.7-0.8-1.3c0-0.2,0-0.6,0.3-1
				c0.6-0.8,1.9-0.8,2.1-0.8c1.3,0,2.1,0.7,2.4,1.1c0.3,0.4,0.3,0.8,0.3,1l-1.2,0.1c0-0.3,0-0.4-0.1-0.6c-0.2-0.3-0.7-0.8-1.6-0.8
				c-0.9,0-1.2,0.5-1.2,0.9c0,0.1,0,0.2,0.1,0.3c0.2,0.3,0.7,0.5,1.4,0.7l0.6,0.1c0.2,0,0.4,0.1,0.6,0.2c0.8,0.3,1.5,0.7,1.5,1.7
				C227.5,252.4,227.5,252.8,227.2,253.2z"/>
			<path d="M233.4,253.2c-0.3,0.5-1,1-2.4,1c-0.2,0-1.2,0-1.9-0.5c-0.1-0.1-0.3-0.2-0.5-0.4c-0.5-0.5-0.5-1.1-0.6-1.4l1.2-0.2
				c0,0.4,0,0.8,0.3,1.1c0.4,0.4,0.9,0.5,1.4,0.5c0.1,0,0.8,0,1.2-0.4c0.3-0.3,0.3-0.5,0.3-0.7c0-0.1,0-0.3-0.1-0.5
				c-0.2-0.4-0.8-0.5-1.2-0.5l-0.6-0.1c-0.8-0.2-1.2-0.3-1.5-0.5c-0.5-0.3-0.8-0.7-0.8-1.3c0-0.2,0-0.6,0.3-1
				c0.6-0.8,1.9-0.8,2.1-0.8c1.3,0,2.1,0.7,2.4,1.1c0.3,0.4,0.3,0.8,0.3,1l-1.2,0.1c0-0.3,0-0.4-0.1-0.6c-0.2-0.3-0.7-0.8-1.6-0.8
				c-0.9,0-1.2,0.5-1.2,0.9c0,0.1,0,0.2,0.1,0.3c0.2,0.3,0.7,0.5,1.4,0.7l0.6,0.1c0.2,0,0.4,0.1,0.6,0.2c0.8,0.3,1.5,0.7,1.5,1.7
				C233.7,252.4,233.7,252.8,233.4,253.2z"/>
			<path d="M239.9,253c-0.3,0.5-1,1.2-2.4,1.2c-0.7,0-1.1-0.1-1.3-0.3c-0.8-0.3-1.8-1.2-1.8-3.2c0-1.2,0.4-1.8,0.7-2.2
				c0.6-0.7,1.4-1.1,2.3-1.1c0.3,0,0.7,0.1,1,0.2c0.4,0.1,1.2,0.5,1.6,1.5c0.2,0.4,0.3,0.9,0.3,1.9h-4.8c0,1.1,0.5,1.8,0.9,2
				c0.3,0.2,0.7,0.3,1.1,0.3c0.6,0,0.9-0.2,1.1-0.4c0.1-0.1,0.2-0.2,0.3-0.4c0.2-0.3,0.2-0.6,0.3-0.7l1.1,0.1
				C240.3,252.3,240.2,252.7,239.9,253z M239.1,249.7c-0.2-0.8-0.9-1.3-1.7-1.3c-1.1,0-1.7,0.9-1.8,1.9h3.6
				C239.1,250,239.1,249.9,239.1,249.7z"/>
			<path d="M243.9,248.8c-0.6,0.1-1.1,0.5-1.3,1.2c-0.1,0.3-0.1,0.5-0.1,1.2v2.9h-1.1v-6.3h1.1v1.2c0.1-0.3,0.3-0.5,0.6-0.7
				c0.3-0.2,0.8-0.5,1.6-0.5v1.2C244.3,248.8,244.1,248.8,243.9,248.8z"/>
			<path d="M246.2,256.2h-0.6c0.2-0.7,0.4-1.4,0.4-2.1h-0.6v-1.5h1.3v0.8C246.7,254.4,246.5,255.3,246.2,256.2z"/>
			<path d="M255.8,254.1v-3.3c0-0.4,0-1-0.1-1.4c-0.2-0.6-0.7-0.8-1.3-0.8c-0.3,0-1,0.1-1.4,0.8c-0.3,0.5-0.3,1.1-0.3,1.7v3.1h-1.1
				v-9.5h1.1l0,3.8c0.7-0.8,1.5-0.8,1.9-0.8c0.8,0,1.3,0.3,1.6,0.5c0.1,0.1,0.1,0.1,0.3,0.3c0.4,0.6,0.4,1.3,0.4,2v3.7H255.8z"/>
			<path d="M262.5,254.1l0-1c-0.1,0.1-0.1,0.2-0.3,0.3c-0.5,0.5-1.2,0.8-1.9,0.8c-0.2,0-1.2,0-1.7-0.8c-0.4-0.6-0.3-1.3-0.3-1.9
				v-3.7h1.1v3.6c0,0.7,0,1,0.1,1.3c0.1,0.3,0.5,0.6,1.2,0.6c0.2,0,1-0.1,1.5-0.7c0.3-0.5,0.3-1,0.3-1.6v-3.2h1v6.3H262.5z"/>
			<path d="M270.7,255.4c-0.3,1.2-1.3,1.5-1.7,1.6c-0.2,0.1-0.6,0.1-1.1,0.1c-0.2,0-0.6,0-1.1-0.1c-1.5-0.4-1.7-1.6-1.8-2.2h1.2
				c0,0.1,0,0.5,0.3,0.9c0.5,0.6,1.3,0.6,1.5,0.6c0.1,0,1.1,0,1.5-0.6c0.2-0.4,0.3-0.8,0.3-1.7l0-0.7c-0.7,1-1.6,1.1-2.1,1.1
				c-0.6,0-1.1-0.2-1.3-0.3c-0.7-0.4-1.6-1.2-1.6-3c0-0.3,0-1.4,0.7-2.3c0.5-0.7,1.2-1.1,2.3-1.1c0.2,0,0.5,0,0.9,0.2
				c0.3,0.1,0.7,0.3,1.2,0.9v-0.9h1.1v6C270.9,254.6,270.9,254.9,270.7,255.4z M269.7,249.9c-0.3-0.9-1-1.4-1.9-1.3
				c-0.3,0-0.6,0.1-0.8,0.2c-0.5,0.3-1.1,0.9-1.1,2.2c0,0.7,0.2,1.5,0.8,2c0.3,0.3,0.8,0.4,1.2,0.4c0.6,0,1-0.2,1.2-0.4
				c0.4-0.3,0.7-0.9,0.7-2.1C269.8,250.7,269.8,250.3,269.7,249.9z"/>
			<path d="M273.1,256.2h-0.6c0.2-0.7,0.4-1.4,0.4-2.1h-0.6v-1.5h1.3v0.8C273.7,254.4,273.5,255.3,273.1,256.2z"/>
			<path d="M279.3,256.8c-0.4,0.4-1,0.4-1.2,0.4c-0.2,0-0.5,0-0.7-0.1v-1c0.3,0,0.3,0,0.5,0c0.1,0,0.3,0,0.5-0.1
				c0.2-0.1,0.2-0.4,0.2-0.9v-7.4h1v7.7C279.6,255.9,279.6,256.4,279.3,256.8z M278.6,245.9v-1.2h1v1.2H278.6z"/>
			<path d="M286.3,253c-0.3,0.5-1,1.2-2.4,1.2c-0.7,0-1.1-0.1-1.3-0.3c-0.8-0.3-1.8-1.2-1.8-3.2c0-1.2,0.4-1.8,0.7-2.2
				c0.6-0.7,1.4-1.1,2.3-1.1c0.3,0,0.7,0.1,1,0.2c0.4,0.1,1.2,0.5,1.6,1.5c0.2,0.4,0.3,0.9,0.3,1.9h-4.8c0,1.1,0.5,1.8,0.9,2
				c0.3,0.2,0.7,0.3,1.1,0.3c0.6,0,0.9-0.2,1.1-0.4c0.1-0.1,0.2-0.2,0.3-0.4c0.2-0.3,0.2-0.6,0.3-0.7l1.1,0.1
				C286.6,252.3,286.5,252.7,286.3,253z M285.4,249.7c-0.2-0.8-0.9-1.3-1.7-1.3c-1.1,0-1.7,0.9-1.8,1.9h3.6
				C285.5,250,285.5,249.9,285.4,249.7z"/>
			<path d="M292.5,253.7c-0.7,0.6-1.6,0.6-1.9,0.6c-0.2,0-0.7,0-1.2-0.2c-0.8-0.3-1.9-1.1-1.9-3.1c0-2,1.1-2.9,1.9-3.2
				c0.5-0.2,0.9-0.2,1.2-0.2c1.7,0,2.4,0.9,2.7,1.6c0.1,0.2,0.1,0.3,0.2,0.6l-1.2,0.1c0-0.1-0.1-0.4-0.3-0.7
				c-0.4-0.7-1.2-0.7-1.4-0.7c-1,0-1.9,0.6-1.9,2.6c0,1.1,0.4,1.7,0.7,2.1c0.4,0.3,0.8,0.5,1.3,0.5c0.3,0,0.5,0,0.8-0.2
				c0.7-0.3,0.9-0.9,1-1.6l1.2,0.1C293.4,252.9,292.9,253.5,292.5,253.7z"/>
			<path d="M298.7,254.1l-2.3-3l-0.8,0.8v2.2h-1.1v-9.5h1.1v5.8l2.5-2.7h1.3l-2.3,2.5l2.9,3.8H298.7z"/>
			<path d="M300.5,254.1v-9.5h1v9.5H300.5z"/>
			<path d="M303,245.8v-1.2h1v1.2H303z M303,254.1v-6.3h1v6.3H303z"/>
			<path d="M309.7,254.1v-4c0-0.2,0.1-0.8-0.5-1.2c-0.2-0.1-0.5-0.3-1-0.3c-0.5,0-0.8,0.1-1.2,0.5c-0.1,0.1-0.3,0.3-0.4,0.6
				c-0.1,0.3-0.1,0.6-0.1,0.9v3.6h-1.1v-6.3h1.1v0.9c0.1-0.2,0.3-0.4,0.3-0.4c0.2-0.2,0.8-0.7,1.6-0.7c0.3,0,1.2,0.1,1.8,0.9
				c0.4,0.6,0.4,1.2,0.4,1.9v3.8H309.7z"/>
			<path d="M313,256.2h-0.6c0.2-0.7,0.4-1.4,0.4-2.1h-0.6v-1.5h1.3v0.8C313.6,254.4,313.4,255.3,313,256.2z"/>
		</g>
	</g>
	<g>
		<g>
			<path d="M132.7,186.3c-0.3,0.5-1,1-2.4,1c-0.2,0-1.2,0-1.9-0.5c-0.1-0.1-0.3-0.2-0.5-0.4c-0.5-0.5-0.5-1.1-0.6-1.4l1.2-0.2
				c0,0.4,0,0.8,0.3,1.1c0.4,0.4,0.9,0.5,1.4,0.5c0.1,0,0.8,0,1.2-0.4c0.3-0.3,0.3-0.5,0.3-0.7c0-0.1,0-0.3-0.1-0.5
				c-0.2-0.4-0.8-0.5-1.2-0.5l-0.6-0.1c-0.8-0.2-1.2-0.3-1.5-0.5c-0.5-0.3-0.8-0.7-0.8-1.3c0-0.2,0-0.6,0.3-1
				c0.6-0.8,1.9-0.8,2.1-0.8c1.3,0,2.1,0.7,2.4,1.1c0.3,0.4,0.3,0.8,0.3,1l-1.2,0.1c0-0.3,0-0.4-0.1-0.6c-0.2-0.3-0.7-0.8-1.6-0.8
				c-0.9,0-1.2,0.5-1.2,0.9c0,0.1,0,0.2,0.1,0.3c0.2,0.3,0.7,0.5,1.4,0.7l0.6,0.1c0.2,0,0.4,0.1,0.6,0.2c0.8,0.3,1.5,0.7,1.5,1.7
				C133,185.6,133,186,132.7,186.3z"/>
			<path d="M139.2,186.3c-0.3,0.4-1,1.1-2.3,1.1c-0.4,0-1.4,0-2.2-0.8c-0.4-0.4-0.9-1.2-0.9-2.5c0-0.8,0.2-1.6,0.7-2.3
				c0.6-0.8,1.4-1.1,2.4-1.1c0.4,0,0.9,0.1,1.3,0.2c0.7,0.3,1.8,1.2,1.8,3.1C139.9,184.4,139.9,185.5,139.2,186.3z M138.4,182.4
				c-0.1-0.2-0.2-0.4-0.4-0.5c-0.5-0.4-1-0.4-1.2-0.4c-2,0-2,2.2-2,2.6c0,0.3,0,0.5,0.1,0.6c0.1,0.5,0.4,1.8,1.9,1.8
				c0.3,0,1-0.1,1.5-0.8c0.4-0.6,0.4-1.6,0.4-1.7C138.8,183.9,138.8,183,138.4,182.4z"/>
			<path d="M141.1,187.2v-9.5h1v9.5H141.1z"/>
			<path d="M143.6,179v-1.2h1v1.2H143.6z M143.6,187.2v-6.3h1v6.3H143.6z"/>
			<path d="M151,186.3c-0.3,0.5-1,1-2.4,1c-0.2,0-1.2,0-1.9-0.5c-0.1-0.1-0.3-0.2-0.5-0.4c-0.5-0.5-0.5-1.1-0.6-1.4l1.2-0.2
				c0,0.4,0,0.8,0.3,1.1c0.4,0.4,0.9,0.5,1.4,0.5c0.1,0,0.8,0,1.2-0.4c0.3-0.3,0.3-0.5,0.3-0.7c0-0.1,0-0.3-0.1-0.5
				c-0.2-0.4-0.8-0.5-1.2-0.5l-0.6-0.1c-0.8-0.2-1.2-0.3-1.5-0.5c-0.5-0.3-0.8-0.7-0.8-1.3c0-0.2,0-0.6,0.3-1
				c0.6-0.8,1.9-0.8,2.1-0.8c1.3,0,2.1,0.7,2.4,1.1c0.3,0.4,0.3,0.8,0.3,1l-1.2,0.1c0-0.3,0-0.4-0.1-0.6c-0.2-0.3-0.7-0.8-1.6-0.8
				c-0.9,0-1.2,0.5-1.2,0.9c0,0.1,0,0.2,0.1,0.3c0.2,0.3,0.7,0.5,1.4,0.7l0.6,0.1c0.2,0,0.4,0.1,0.6,0.2c0.8,0.3,1.5,0.7,1.5,1.7
				C151.2,185.6,151.2,186,151,186.3z"/>
			<path d="M153.9,187.3c-0.6,0-0.9-0.1-1.1-0.4c-0.2-0.2-0.1-0.5-0.1-1v-4.1h-1v-0.9h1v-2h1.1v2h1.1v0.9h-1.1v3.6
				c0,0.4,0,0.7,0.1,0.9c0.1,0.1,0.2,0.2,0.4,0.2c0.1,0,0.4,0,0.7-0.1v0.9C154.8,187.2,154.3,187.3,153.9,187.3z"/>
			<path d="M169.2,187.2h-0.9l-1.5-4.7l-1.5,4.7h-1l-2.2-6.3h1.2l1.6,4.7l1.6-4.7h0.9l1.5,4.7l1.6-4.7h1.1L169.2,187.2z"/>
			<path d="M177.4,186.3c-0.3,0.4-1,1.1-2.3,1.1c-0.4,0-1.4,0-2.2-0.8c-0.4-0.4-0.9-1.2-0.9-2.5c0-0.8,0.2-1.6,0.7-2.3
				c0.6-0.8,1.4-1.1,2.4-1.1c0.4,0,0.9,0.1,1.3,0.2c0.7,0.3,1.8,1.2,1.8,3.1C178.1,184.4,178.1,185.5,177.4,186.3z M176.6,182.4
				c-0.1-0.2-0.2-0.4-0.4-0.5c-0.5-0.4-1-0.4-1.2-0.4c-2,0-2,2.2-2,2.6c0,0.3,0,0.5,0.1,0.6c0.1,0.5,0.4,1.8,1.9,1.8
				c0.3,0,1-0.1,1.5-0.8c0.4-0.6,0.4-1.6,0.4-1.7C177,183.9,177,183,176.6,182.4z"/>
			<path d="M179.3,187.2v-9.5h1v9.5H179.3z"/>
			<path d="M184.5,178.7c0,0-0.3-0.1-0.6-0.1c-0.1,0-0.5,0-0.7,0.4c-0.1,0.2-0.1,0.3-0.1,0.8v1.1h1.2v0.9h-1.2v5.4h-1v-5.4h-1v-0.9
				h1v-0.5c0-0.9,0-1.3,0.2-1.7c0.3-0.9,1.3-0.9,1.5-0.9c0.1,0,0.4,0,0.8,0.1L184.5,178.7z"/>
			<path d="M190.8,188.5c-0.3,1.2-1.3,1.5-1.7,1.6c-0.2,0.1-0.6,0.1-1.1,0.1c-0.2,0-0.6,0-1.1-0.1c-1.5-0.4-1.7-1.6-1.8-2.2h1.2
				c0,0.1,0,0.5,0.3,0.9c0.5,0.6,1.3,0.6,1.5,0.6c0.1,0,1.1,0,1.5-0.6c0.2-0.4,0.3-0.8,0.3-1.7l0-0.7c-0.7,1-1.6,1.1-2.1,1.1
				c-0.6,0-1.1-0.2-1.3-0.3c-0.7-0.4-1.6-1.2-1.6-3c0-0.3,0-1.4,0.7-2.3c0.5-0.7,1.2-1.1,2.3-1.1c0.2,0,0.5,0,0.9,0.2
				c0.3,0.1,0.7,0.3,1.2,0.9v-0.9h1.1v6C191,187.7,191,188,190.8,188.5z M189.8,183c-0.3-0.9-1-1.4-1.9-1.3c-0.3,0-0.6,0.1-0.8,0.2
				c-0.5,0.3-1.1,0.9-1.1,2.2c0,0.7,0.2,1.5,0.8,2c0.3,0.3,0.8,0.4,1.2,0.4c0.6,0,1-0.2,1.2-0.4c0.4-0.3,0.7-0.9,0.7-2.1
				C189.9,183.8,189.9,183.4,189.8,183z"/>
			<path d="M197.4,187.3c-0.1,0-0.4,0-0.7-0.2c-0.1-0.1-0.2-0.2-0.2-0.2c-0.2-0.2-0.2-0.4-0.2-0.5c-0.3,0.3-0.9,1-2.2,1
				c-0.4,0-0.7-0.1-0.9-0.1c-0.8-0.3-1.3-0.9-1.3-1.7c0-0.3,0.1-0.9,0.7-1.4c0.6-0.5,1.8-0.7,2.6-0.7l1-0.1c0-0.2,0-0.3,0-0.5
				c0-0.5-0.1-1.4-1.4-1.4c-0.2,0-1,0-1.3,0.8c-0.1,0.2-0.1,0.3-0.1,0.6l-1.1-0.1c0-0.1,0-0.3,0.1-0.6c0.2-0.6,0.8-1.5,2.3-1.5
				c0.2,0,0.5,0,1,0.1c0.3,0.1,1.1,0.3,1.4,1.2c0.1,0.3,0.1,0.7,0.1,1.4v2.1c0,0.1,0,0.3,0,0.4c0,0.1,0,0.5,0.5,0.5
				c0.1,0,0.2,0,0.3-0.1v0.9C197.8,187.3,197.6,187.3,197.4,187.3z M196.2,184.2v-0.1c-0.5,0.1-1.8,0.2-2.3,0.5
				c-0.2,0.1-0.8,0.3-0.8,1c0,0.5,0.3,0.9,1.2,0.9c0.6,0,1.9-0.2,1.9-1.9C196.2,184.5,196.2,184.4,196.2,184.2z"/>
			<path d="M203.1,187.2v-4c0-0.2,0.1-0.8-0.5-1.2c-0.2-0.1-0.5-0.3-1-0.3c-0.5,0-0.8,0.1-1.2,0.5c-0.1,0.1-0.3,0.3-0.4,0.6
				c-0.1,0.3-0.1,0.6-0.1,0.9v3.6h-1.1v-6.3h1.1v0.9c0.1-0.2,0.3-0.4,0.3-0.4c0.2-0.2,0.8-0.7,1.6-0.7c0.3,0,1.2,0.1,1.8,0.9
				c0.4,0.6,0.4,1.2,0.4,1.9v3.8H203.1z"/>
			<path d="M211.3,188.5c-0.3,1.2-1.3,1.5-1.7,1.6c-0.2,0.1-0.6,0.1-1.1,0.1c-0.2,0-0.6,0-1.1-0.1c-1.5-0.4-1.7-1.6-1.8-2.2h1.2
				c0,0.1,0,0.5,0.3,0.9c0.5,0.6,1.3,0.6,1.5,0.6c0.1,0,1.1,0,1.5-0.6c0.2-0.4,0.3-0.8,0.3-1.7l0-0.7c-0.7,1-1.6,1.1-2.1,1.1
				c-0.6,0-1.1-0.2-1.3-0.3c-0.7-0.4-1.6-1.2-1.6-3c0-0.3,0-1.4,0.7-2.3c0.5-0.7,1.2-1.1,2.3-1.1c0.2,0,0.5,0,0.9,0.2
				c0.3,0.1,0.7,0.3,1.2,0.9v-0.9h1.1v6C211.4,187.7,211.4,188,211.3,188.5z M210.2,183c-0.3-0.9-1-1.4-1.9-1.3
				c-0.3,0-0.6,0.1-0.8,0.2c-0.5,0.3-1.1,0.9-1.1,2.2c0,0.7,0.2,1.5,0.8,2c0.3,0.3,0.8,0.4,1.2,0.4c0.6,0,1-0.2,1.2-0.4
				c0.4-0.3,0.7-0.9,0.7-2.1C210.4,183.8,210.3,183.4,210.2,183z"/>
			<path d="M221.1,186.3c-0.3,0.5-1,1-2.4,1c-0.2,0-1.2,0-1.9-0.5c-0.1-0.1-0.3-0.2-0.5-0.4c-0.5-0.5-0.5-1.1-0.6-1.4l1.2-0.2
				c0,0.4,0,0.8,0.3,1.1c0.4,0.4,0.9,0.5,1.4,0.5c0.1,0,0.8,0,1.2-0.4c0.3-0.3,0.3-0.5,0.3-0.7c0-0.1,0-0.3-0.1-0.5
				c-0.2-0.4-0.8-0.5-1.2-0.5l-0.6-0.1c-0.8-0.2-1.2-0.3-1.5-0.5c-0.5-0.3-0.8-0.7-0.8-1.3c0-0.2,0-0.6,0.3-1
				c0.6-0.8,1.9-0.8,2.1-0.8c1.3,0,2.1,0.7,2.4,1.1c0.3,0.4,0.3,0.8,0.3,1l-1.2,0.1c0-0.3,0-0.4-0.1-0.6c-0.2-0.3-0.7-0.8-1.6-0.8
				c-0.9,0-1.2,0.5-1.2,0.9c0,0.1,0,0.2,0.1,0.3c0.2,0.3,0.7,0.5,1.4,0.7l0.6,0.1c0.2,0,0.4,0.1,0.6,0.2c0.8,0.3,1.5,0.7,1.5,1.7
				C221.4,185.6,221.4,186,221.1,186.3z"/>
			<path d="M227.2,186.8c-0.7,0.6-1.6,0.6-1.9,0.6c-0.2,0-0.7,0-1.2-0.2c-0.8-0.3-1.9-1.1-1.9-3.1c0-2,1.1-2.9,1.9-3.2
				c0.5-0.2,0.9-0.2,1.2-0.2c1.7,0,2.4,0.9,2.7,1.6c0.1,0.2,0.1,0.3,0.2,0.6l-1.2,0.1c0-0.1-0.1-0.4-0.3-0.7
				c-0.4-0.7-1.2-0.7-1.4-0.7c-1,0-1.9,0.6-1.9,2.6c0,1.1,0.4,1.7,0.7,2.1c0.4,0.3,0.8,0.5,1.3,0.5c0.3,0,0.5,0,0.8-0.2
				c0.7-0.3,0.9-0.9,1-1.6l1.2,0.1C228.1,186,227.5,186.6,227.2,186.8z"/>
			<path d="M233.4,187.2v-3.3c0-0.4,0-1-0.1-1.4c-0.2-0.6-0.7-0.8-1.3-0.8c-0.3,0-1,0.1-1.4,0.8c-0.3,0.5-0.3,1.1-0.3,1.7v3.1h-1.1
				v-9.5h1.1l0,3.8c0.7-0.8,1.5-0.8,1.9-0.8c0.8,0,1.3,0.3,1.6,0.5c0.1,0.1,0.1,0.1,0.3,0.3c0.4,0.6,0.4,1.3,0.4,2v3.7H233.4z"/>
			<path d="M240.1,187.2v-4c0-0.2,0.1-0.8-0.5-1.2c-0.2-0.1-0.5-0.3-1-0.3c-0.5,0-0.8,0.1-1.2,0.5c-0.1,0.1-0.3,0.3-0.4,0.6
				c-0.1,0.3-0.1,0.6-0.1,0.9v3.6h-1.1v-6.3h1.1v0.9c0.1-0.2,0.3-0.4,0.3-0.4c0.2-0.2,0.8-0.7,1.6-0.7c0.3,0,1.2,0.1,1.8,0.9
				c0.4,0.6,0.4,1.2,0.4,1.9v3.8H240.1z"/>
			<path d="M247.9,186.1c-0.3,0.5-1,1.2-2.4,1.2c-0.7,0-1.1-0.1-1.3-0.3c-0.8-0.3-1.8-1.2-1.8-3.2c0-1.2,0.4-1.8,0.7-2.2
				c0.6-0.7,1.4-1.1,2.3-1.1c0.3,0,0.7,0.1,1,0.2c0.4,0.1,1.2,0.5,1.6,1.5c0.2,0.4,0.3,0.9,0.3,1.9h-4.8c0,1.1,0.5,1.8,0.9,2
				c0.3,0.2,0.7,0.3,1.1,0.3c0.6,0,0.9-0.2,1.1-0.4c0.1-0.1,0.2-0.2,0.3-0.4c0.2-0.3,0.2-0.6,0.3-0.7l1.1,0.1
				C248.2,185.4,248.1,185.8,247.9,186.1z M247,182.8c-0.2-0.8-0.9-1.3-1.7-1.3c-1.1,0-1.7,0.9-1.8,1.9h3.6
				C247.1,183.1,247.1,183,247,182.8z"/>
			<path d="M249.5,179v-1.2h1v1.2H249.5z M249.5,187.2v-6.3h1v6.3H249.5z"/>
			<path d="M256.7,187.2v-0.8c-0.3,0.4-0.9,1-2.2,1c-1.2,0-1.8-0.6-2.1-1c-0.4-0.4-0.8-1.2-0.8-2.4c0-0.8,0.1-1.6,0.6-2.2
				c0.3-0.4,1-1.1,2.3-1.1c0.9,0,1.5,0.4,1.8,0.6c0.2,0.1,0.3,0.2,0.4,0.4v-4h1.1v9.5H256.7z M256.6,183.2c-0.2-0.9-0.9-1.5-1.9-1.6
				c-0.3,0-1,0-1.5,0.7c-0.4,0.5-0.5,1.1-0.5,1.7c0,0.2,0,1,0.5,1.7c0.5,0.7,1.2,0.7,1.5,0.7c0.4,0,0.7-0.1,1-0.3
				c0.5-0.3,1-0.9,1-2.1C256.7,183.9,256.7,183.5,256.6,183.2z"/>
			<path d="M264.4,186.1c-0.3,0.5-1,1.2-2.4,1.2c-0.7,0-1.1-0.1-1.3-0.3c-0.8-0.3-1.8-1.2-1.8-3.2c0-1.2,0.4-1.8,0.7-2.2
				c0.6-0.7,1.4-1.1,2.3-1.1c0.3,0,0.7,0.1,1,0.2c0.4,0.1,1.2,0.5,1.6,1.5c0.2,0.4,0.3,0.9,0.3,1.9H260c0,1.1,0.5,1.8,0.9,2
				c0.3,0.2,0.7,0.3,1.1,0.3c0.6,0,0.9-0.2,1.1-0.4c0.1-0.1,0.2-0.2,0.3-0.4c0.2-0.3,0.2-0.6,0.3-0.7l1.1,0.1
				C264.8,185.4,264.7,185.8,264.4,186.1z M263.6,182.8c-0.2-0.8-0.9-1.3-1.7-1.3c-1.1,0-1.7,0.9-1.8,1.9h3.6
				C263.6,183.1,263.6,183,263.6,182.8z"/>
			<path d="M268.4,181.9c-0.6,0.1-1.1,0.5-1.3,1.2c-0.1,0.3-0.1,0.5-0.1,1.2v2.9H266v-6.3h1.1v1.2c0.1-0.3,0.3-0.5,0.6-0.7
				c0.3-0.2,0.8-0.5,1.6-0.5v1.2C268.8,181.9,268.6,181.9,268.4,181.9z"/>
			<path d="M274.1,187.2v-3.3c0-0.4,0-1-0.1-1.4c-0.2-0.6-0.7-0.8-1.3-0.8c-0.3,0-1,0.1-1.4,0.8c-0.3,0.5-0.3,1.1-0.3,1.7v3.1h-1.1
				v-9.5h1.1l0,3.8c0.7-0.8,1.5-0.8,1.9-0.8c0.8,0,1.3,0.3,1.6,0.5c0.1,0.1,0.1,0.1,0.3,0.3c0.4,0.6,0.4,1.3,0.4,2v3.7H274.1z"/>
			<path d="M281.6,187.3c-0.1,0-0.4,0-0.7-0.2c-0.1-0.1-0.2-0.2-0.2-0.2c-0.2-0.2-0.2-0.4-0.2-0.5c-0.3,0.3-0.9,1-2.2,1
				c-0.4,0-0.7-0.1-0.9-0.1c-0.8-0.3-1.3-0.9-1.3-1.7c0-0.3,0.1-0.9,0.7-1.4c0.6-0.5,1.8-0.7,2.6-0.7l1-0.1c0-0.2,0-0.3,0-0.5
				c0-0.5-0.1-1.4-1.4-1.4c-0.2,0-1,0-1.3,0.8c-0.1,0.2-0.1,0.3-0.1,0.6l-1.1-0.1c0-0.1,0-0.3,0.1-0.6c0.2-0.6,0.8-1.5,2.3-1.5
				c0.2,0,0.5,0,1,0.1c0.3,0.1,1.1,0.3,1.4,1.2c0.1,0.3,0.1,0.7,0.1,1.4v2.1c0,0.1,0,0.3,0,0.4c0,0.1,0,0.5,0.5,0.5
				c0.1,0,0.2,0,0.3-0.1v0.9C282,187.3,281.8,187.3,281.6,187.3z M280.4,184.2v-0.1c-0.5,0.1-1.8,0.2-2.3,0.5
				c-0.2,0.1-0.8,0.3-0.8,1c0,0.5,0.3,0.9,1.2,0.9c0.6,0,1.9-0.2,1.9-1.9C280.4,184.5,280.4,184.4,280.4,184.2z"/>
			<path d="M287.3,187.2v-4c0-0.2,0.1-0.8-0.5-1.2c-0.2-0.1-0.5-0.3-1-0.3c-0.5,0-0.8,0.1-1.2,0.5c-0.1,0.1-0.3,0.3-0.4,0.6
				c-0.1,0.3-0.1,0.6-0.1,0.9v3.6h-1.1v-6.3h1.1v0.9c0.1-0.2,0.3-0.4,0.3-0.4c0.2-0.2,0.8-0.7,1.6-0.7c0.3,0,1.2,0.1,1.8,0.9
				c0.4,0.6,0.4,1.2,0.4,1.9v3.8H287.3z"/>
		</g>
	</g>
	<rect class="st1" width="336.5" height="281.1"/>
	<g>
		<path d="M13.5,25.8c-1.6,0.9-3.1,1.1-3.8,1.1c-1,0-2.5-0.2-4.2-1.6c-0.3-0.3-0.5-0.5-0.8-0.8v1.9H0.3V0.5h4.4l0,9.1
			c0.2-0.2,0.4-0.4,0.6-0.5C7.1,7.7,9.2,7.5,10,7.5c1.1,0,3.3,0.3,5.3,2.3c1.1,1.1,2.7,3.4,2.7,7.3C18,20.5,16.6,24,13.5,25.8z
			 M12.5,13.3c-0.8-1.2-2.2-1.9-3.6-1.9c-1.1,0-2.1,0.4-2.9,1.2c-1.5,1.5-1.4,3.6-1.4,4.2c0,1.8,0.3,3.8,1.9,5
			c0.4,0.3,1.3,0.9,2.6,0.9c0.7,0,2.3-0.2,3.3-1.8c1-1.5,1.1-3.5,1.1-3.9C13.5,16.5,13.5,14.7,12.5,13.3z"/>
		<path d="M36.5,24.1c-1,1-3.5,2.7-7.2,2.7c-1.2,0-4.1-0.1-6.5-2.5c-2.1-2-2.9-4.5-2.9-7.3c0-1.5,0.2-3,0.8-4.4
			c0.8-1.8,3.1-5.2,8.4-5.2c4.1,0,6.3,2.1,7.2,3.5c0.8,1.3,1.7,3.5,1.8,7.1H24.5c0.1,0.5,0.3,1.7,1.2,2.8c0.6,0.8,1.7,1.8,4,1.8
			s3.6-1.1,4.2-1.7c0.1-0.1,0.4-0.4,0.6-0.8l3.7,2.2C37.9,22.6,37.4,23.3,36.5,24.1z M32.8,13.3c-0.4-0.9-1.4-2.3-3.7-2.3
			c-1,0-1.5,0.2-1.8,0.3c-2,0.8-2.5,2.9-2.6,3.5h8.6C33.2,14.8,33.1,14,32.8,13.3z"/>
		<path d="M56.3,24.1c-1,1-3.5,2.7-7.2,2.7c-1.2,0-4.1-0.1-6.5-2.5c-2.1-2-2.9-4.5-2.9-7.3c0-1.5,0.2-3,0.8-4.4
			c0.8-1.8,3.1-5.2,8.4-5.2c4.1,0,6.3,2.1,7.2,3.5c0.8,1.3,1.7,3.5,1.8,7.1H44.4c0.1,0.5,0.3,1.7,1.2,2.8c0.6,0.8,1.7,1.8,4,1.8
			s3.6-1.1,4.2-1.7c0.1-0.1,0.4-0.4,0.6-0.8l3.7,2.2C57.7,22.6,57.2,23.3,56.3,24.1z M52.7,13.3C52.3,12.5,51.3,11,49,11
			c-1,0-1.5,0.2-1.8,0.3c-2,0.8-2.5,2.9-2.6,3.5h8.6C53.1,14.8,52.9,14,52.7,13.3z"/>
		<path d="M66.3,26.5c-2.4,0-3.7-0.6-4.4-1.5c-0.4-0.4-0.5-0.9-0.5-1.1c-0.2-0.6-0.2-1.9-0.2-3.5v-9.3h-2.7V8h2.7V1.5h4.4V8h3.9v3.1
			h-3.9v8.3c0,0.7-0.1,2.1,0.4,2.7c0.5,0.6,1.6,0.5,1.7,0.5c0.6,0,1.2-0.1,1.8-0.2v3.7C68.9,26.2,67.8,26.5,66.3,26.5z"/>
		<path d="M83.8,26.3V16.3c0-1.5,0.1-2.8-1.2-3.8c-0.4-0.3-1.1-0.8-2.3-0.8c-1.5,0-2.7,0.6-3.6,1.8c-0.4,0.4-0.7,1-0.8,1.5
			c-0.1,0.5-0.1,1-0.1,1.6v9.8h-4.4V0.5h4.4v9.4c0.4-0.4,0.8-0.8,1.8-1.4c0.7-0.4,2-1.1,4-1.1s4.2,0.7,5.4,2.4
			c1.1,1.6,1.1,3.3,1.1,5.1v11.3H83.8z"/>
		<path d="M109,21.2c-0.7,1.9-3.1,5.7-8.6,5.7c-0.8,0-2.3,0-4.1-0.8c-1.9-0.8-5.4-3.4-5.4-8.9c0-2,0.5-3.4,0.8-4.1
			c0.8-1.8,3.1-5.5,8.6-5.5c0.7,0,2.3,0.1,4,0.8c2,0.8,5.4,3.3,5.4,8.8C109.8,17.8,109.7,19.5,109,21.2z M100.3,11.4
			c-0.4,0-1.5,0.1-2.5,0.7c-1,0.6-2.2,2.1-2.2,4.9c0,0.9,0.1,1.6,0.4,2.5c0.3,0.9,1.6,3.4,4.6,3.4c3.3,0,4.8-2.9,4.7-5.8
			C105.1,14.2,103.5,11.4,100.3,11.4z"/>
		<path d="M121.4,26.3h-4.7L110.8,8h4.5l3.8,12.6L122.9,8h4.6L121.4,26.3z"/>
		<path d="M145,24.1c-1,1-3.5,2.7-7.2,2.7c-1.2,0-4.1-0.1-6.5-2.5c-2.1-2-2.9-4.5-2.9-7.3c0-1.5,0.2-3,0.8-4.4
			c0.8-1.8,3.1-5.2,8.4-5.2c4.1,0,6.3,2.1,7.2,3.5c0.8,1.3,1.7,3.5,1.8,7.1H133c0.1,0.5,0.3,1.7,1.2,2.8c0.6,0.8,1.7,1.8,4,1.8
			s3.6-1.1,4.2-1.7c0.1-0.1,0.4-0.4,0.6-0.8l3.7,2.2C146.4,22.6,145.9,23.3,145,24.1z M141.3,13.3c-0.4-0.9-1.4-2.3-3.7-2.3
			c-1,0-1.5,0.2-1.8,0.3c-2,0.8-2.5,2.9-2.6,3.5h8.6C141.7,14.8,141.6,14,141.3,13.3z"/>
		<path d="M160.9,26.3V17c0-1.4,0-2.1-0.2-2.8c-0.5-2.1-2.2-2.4-3-2.4c-0.5,0-1.4,0.1-2.3,0.8c-1.3,1.1-1.7,2.6-1.7,5.8v7.9h-4.4V8
			h4.4v2.2c0.1-0.1,0.4-0.6,0.8-1c1.7-1.6,4.2-1.8,4.8-1.8c2.7,0,4.3,1.4,4.9,2.2c1.2,1.7,1.1,4,1.1,5.8v10.7H160.9z"/>
	</g>
</g>
</svg>
