<?xml version="1.0" encoding="utf-8"?>
<!-- Generator: Adobe Illustrator 21.0.0, SVG Export Plug-In . SVG Version: 6.00 Build 0)  -->
<svg version="1.1" id="Layer_1" xmlns="http://www.w3.org/2000/svg" xmlns:xlink="http://www.w3.org/1999/xlink" x="0px" y="0px"
	 viewBox="0 0 124.5 124" style="enable-background:new 0 0 124.5 124;" xml:space="preserve">
<style type="text/css">
	.st0{fill:#FB03E1;}
</style>
<path d="M0,91.4C10.5,81.2,20.9,71.1,31.5,61c-10-10.3-19.9-20.6-29.9-31C11.9,20,22.2,10,32.6,0C42.7,10.5,52.8,20.9,63,31.5
	C73.5,21.3,83.9,11.2,94.5,1.1c10,10.4,20,20.7,30,31.1C114,42.3,103.5,52.4,93,62.5C103.1,73,113.2,83.5,123.4,94
	c-10.4,10-20.7,20-31.1,30c-10.1-10.5-20.2-20.9-30.4-31.5c-10.5,10.1-20.9,20.2-31.5,30.4C20.3,112.4,10.2,101.9,0,91.4z"/>
</svg>
